<svg width="100" height="245" viewBox="0 0 100 245" fill="none" xmlns="http://www.w3.org/2000/svg">
<g id="Group" opacity="0.4">
<g id="Group_2">
<path id="Vector" d="M45.787 85.6258C42.7323 80.0543 39.3926 74.6481 35.2193 70.1706C30.5673 65.1778 25.0711 61.5398 19.3274 58.6141C4.18304 50.9056 -11.0312 51.8151 -26.3476 58.6269C-29.3485 59.9625 -35.4579 64.3447 -38.9159 67.4866C-53.8828 81.0973 -63.8536 103.962 -62.536 125.669C-60.8419 153.641 -44.2778 178.211 -21.9162 187.198C1.05844 196.426 28.0451 188.082 43.1517 165.274C57.9788 142.886 58.8339 109.451 45.7762 85.6321L45.787 85.6258ZM-12.8436 188.196C-35.4579 183.471 -54.4529 162.705 -59.8524 136.234C-63.1168 120.231 -60.7774 104.248 -53.7591 90.097C-47.3862 77.2558 -37.6844 66.0047 -26.0519 59.9752C-13.2738 54.2256 1.11761 52.4384 14.1914 57.9209C24.3504 62.1822 33.4929 68.7777 40.1401 78.9412C47.6208 90.3768 52.262 103.263 53.3 117.732C54.2142 130.465 52.5202 143.128 47.4434 154.513C36.026 180.112 11.0023 193.183 -12.8436 188.196Z" fill="#A66427"/>
<path id="Vector_2" d="M77.4308 129.365C77.6998 122.451 73.0532 116.32 67.3364 115.518C67.1697 110.971 66.6857 106.43 65.8682 101.959C70.9289 99.0201 75.2259 93.6204 72.7735 86.5606C70.746 80.722 63.7386 76.9885 58.9199 80.3022C56.8817 76.0472 54.5154 72.0531 51.864 68.3578C51.9608 68.3069 52.0469 68.2306 52.1114 68.0843C54.9133 61.9213 55.4457 54.251 50.0355 49.6844C45.9052 46.199 39.4409 47.5283 36.7412 52.6609C33.6005 50.2377 30.3038 48.1007 26.8834 46.2626C26.8941 46.2244 26.9156 46.1926 26.9264 46.1481C28.201 38.8085 27.5395 29.3954 19.8759 28.4223C13.944 27.6655 8.60905 32.601 7.66254 39.4508C3.93561 38.7703 0.165665 38.4332 -3.60966 38.4587C-4.27654 32.0031 -8.52512 24.1101 -14.8173 25.6366C-20.6847 27.0549 -25.8583 34.5726 -23.9222 41.696C-26.1326 42.3765 -28.3107 43.1906 -30.4403 44.1955C-31.5697 44.7298 -32.6776 45.3086 -33.7693 45.9255C-35.9689 38.7131 -43.9767 36.3471 -49.1825 40.6148C-54.2593 44.7743 -55.3134 54.4163 -50.3549 59.2755C-52.8342 61.8768 -55.1305 64.6371 -57.2333 67.5501C-62.4768 62.1439 -70.5277 64.7325 -73.7007 71.7986C-76.4703 77.968 -75.3732 88.4623 -68.8551 90.3831C-69.9468 93.6077 -70.8772 96.934 -71.6463 100.356C-78.4924 100.229 -85.0105 103.205 -85.5913 112.389C-86.0592 119.742 -80.6221 127.342 -74.0932 126.534C-73.9911 130.866 -73.5662 135.178 -72.8402 139.426C-78.2666 142.377 -82.3054 148.127 -79.8961 155.46C-77.6642 162.272 -71.0009 165.07 -65.2734 163.442C-63.6492 166.877 -61.8207 170.171 -59.8094 173.307C-63.9289 177.835 -64.2193 185.646 -60.2611 190.543C-56.2545 195.491 -49.0104 195.574 -45.2136 190.238C-41.9976 192.979 -38.5826 195.389 -34.9901 197.374C-34.7535 197.507 -34.5061 197.622 -34.2694 197.749C-36.0926 203.848 -33.3606 210.717 -28.1171 212.873C-22.5509 215.163 -16.221 211.105 -14.9841 204.249C-11.0904 204.866 -7.16451 205.095 -3.24935 204.949C-2.84063 211.71 2.43517 216.683 8.10892 215.736C13.858 214.775 18.1657 207.76 16.5039 201.005C19.9673 199.727 23.3554 198.143 26.6306 196.273C28.9754 202.195 36.8272 204.656 41.4792 201.489C47.766 197.208 48.1478 188.533 44.195 182.148C45.1416 181.117 46.0719 180.061 46.9754 178.961C48.7018 176.856 50.3152 174.649 51.8371 172.353C54.3325 174.579 57.2796 176.404 60.4903 175.775C63.2599 175.234 65.7445 173.091 67.0944 170.184C70.1599 163.569 67.3741 155.072 62.0499 151.453C63.4535 147.351 64.5883 143.122 65.4487 138.828C71.0203 141.392 77.1619 136.399 77.4362 129.358L77.4308 129.365ZM76.1079 126.916C77.1727 134.675 71.6603 139.356 65.6693 137.684C65.9543 136.164 66.207 134.631 66.4222 133.098C68.7992 133.435 71.429 131.718 71.8378 128.773C72.2895 125.529 69.6382 123.52 67.3364 122.763C67.4117 120.689 67.4225 118.609 67.3687 116.536C71.6926 117.783 75.3711 121.51 76.1133 126.916H76.1079ZM71.8754 88.0679C73.3705 94.2882 69.5145 97.7863 65.6101 100.642C65.2551 98.8548 64.8518 97.0739 64.3893 95.3058C66.8363 94.8733 68.5142 91.6996 67.9172 88.8566C67.202 85.4412 63.8945 85.1868 61.7272 86.8786C61.3615 85.8991 60.9797 84.9324 60.5763 83.972C60.1837 83.0371 59.775 82.1148 59.3555 81.199C64.0236 78.7376 70.4771 82.2293 71.8754 88.0679ZM49.9118 51.2935C54.2464 55.6756 53.4344 61.9849 51.1434 67.3783C49.9871 65.8201 48.7824 64.3191 47.5348 62.8753C49.1643 60.7065 48.9868 56.954 47.0507 55.1287C45.0071 53.1952 42.7269 54.3527 41.2425 56.4389C40.0379 55.3449 38.8117 54.2891 37.5479 53.2842C40.5434 48.8512 46.0182 47.3629 49.9118 51.2998V51.2935ZM18.967 29.6753C22.1723 29.8406 24.6569 31.5261 25.6518 35.2213C26.5392 38.4905 26.2918 42.3511 25.7916 45.6774C24.6461 45.086 23.4845 44.5453 22.3175 44.0238C22.3282 43.9793 22.3498 43.9411 22.3498 43.8839C22.6617 40.4367 21.4839 36.6079 18.1872 36.1181C15.9554 35.7874 13.3524 38.0516 13.4654 40.8056C11.8197 40.3413 10.1633 39.9469 8.49075 39.6162C9.70079 33.7967 13.6375 29.3954 18.967 29.6689V29.6753ZM-14.9249 26.934C-9.05755 25.3504 -5.73934 32.779 -4.87349 38.4841C-5.92757 38.5159 -6.98702 38.5668 -8.04111 38.6558C-9.15434 35.4821 -11.1496 32.0031 -14.4732 32.6518C-17.6569 33.2751 -19.1681 36.9259 -19.1305 40.4112C-20.4642 40.7102 -21.7979 41.0536 -23.1155 41.4352C-24.2933 35.0242 -20.3567 28.3969 -14.9249 26.9277V26.934ZM-48.0316 41.2063C-42.8043 37.511 -37.4586 40.8628 -34.8126 46.517C-36.1894 47.3375 -37.5339 48.2215 -38.8568 49.1628C-39.6474 47.6682 -40.7768 46.3135 -42.2719 45.9319C-43.6271 45.5821 -45.5363 45.5502 -46.6441 46.6824C-48.6447 48.743 -48.435 53.4178 -46.4667 55.4212C-47.1497 56.0509 -47.8219 56.6996 -48.4888 57.3484C-48.919 57.7681 -49.3331 58.207 -49.7526 58.6395C-53.3773 53.0616 -53.7269 45.2259 -48.0316 41.1999V41.2063ZM-72.7057 72.4792C-69.7855 65.9982 -62.8264 63.9311 -57.9701 68.5931C-58.9543 70.0051 -59.9062 71.4425 -60.8043 72.918C-60.8473 72.8862 -60.8796 72.8481 -60.9334 72.829C-64.2785 71.4361 -68.4249 71.8622 -69.6403 76.5433C-70.2803 79.0111 -69.1025 83.8766 -66.548 84.2391C-67.2579 85.9246 -67.9086 87.6545 -68.5217 89.4036C-74.0126 86.6814 -75.4001 78.4387 -72.7111 72.4792H-72.7057ZM-84.5211 112.809C-84.4082 109.432 -83.1067 105.896 -80.7189 103.917C-78.1536 101.793 -74.9699 101.602 -71.9367 101.621C-72.1626 102.677 -72.3723 103.733 -72.5659 104.808C-72.7326 105.743 -72.8886 106.684 -73.0338 107.619C-75.6367 107.021 -78.5301 110.29 -78.7721 113.191C-78.9012 114.704 -78.557 116.275 -77.7126 117.452C-76.7392 118.813 -75.3409 119.118 -73.9911 119.665C-74.104 121.65 -74.1524 123.634 -74.1255 125.612C-79.767 124.531 -84.7685 120.282 -84.5211 112.803V112.809ZM-78.8958 154.958C-79.9283 151.835 -79.7831 148.426 -78.1536 145.634C-76.7822 143.287 -74.6741 141.913 -72.6735 140.438C-72.34 142.263 -71.9528 144.069 -71.5118 145.863C-73.9158 146.791 -75.0344 150.34 -74.0771 153.043C-73.2543 155.371 -70.3878 157.629 -68.4464 155.912C-67.6558 158.055 -66.7846 160.16 -65.8435 162.221C-71.0386 163.01 -76.793 161.312 -78.8958 154.964V154.958ZM-59.5082 189.64C-63.2083 185.086 -62.6489 178.554 -59.2447 174.204C-58.1799 175.819 -57.0666 177.39 -55.905 178.904C-57.3301 181.162 -57.8249 184.463 -55.8243 186.523C-54.4045 187.986 -50.9411 188.018 -49.7257 186.027C-48.5479 187.229 -47.3433 188.387 -46.101 189.481C-50.0269 193.545 -55.5877 194.467 -59.5082 189.633V189.64ZM-27.4717 211.76C-32.5539 209.929 -34.5921 203.912 -33.4358 198.181C-31.9623 198.945 -30.4726 199.638 -28.9668 200.274C-29.1227 203.117 -28.0364 206.074 -25.4388 206.691C-23.3844 207.181 -20.6524 205.699 -19.9425 203.251C-18.6465 203.569 -17.345 203.848 -16.0381 204.077C-17.6838 209.833 -22.2443 213.643 -27.4717 211.754V211.76ZM7.57648 214.502C2.38676 215.125 -1.43697 210.597 -2.41576 204.917C-0.872284 204.841 0.671196 204.694 2.20929 204.497C2.61802 207.512 5.24246 209.108 7.7217 208.51C9.82449 208.002 12.2607 205.279 11.6261 202.583C12.9276 202.214 14.2236 201.8 15.509 201.349C16.1705 207.677 13.417 213.808 7.57648 214.508V214.502ZM45.7869 190.727C45.8622 194.601 43.7218 198.442 40.8984 200.319C36.2733 203.384 30.4167 200.382 27.4911 195.752C28.8625 194.944 30.2123 194.092 31.5407 193.182C33.1379 196.216 36.553 197.323 39.0914 194.995C41.221 193.042 41.7104 188.857 39.769 186.581C41.0005 185.442 42.2052 184.253 43.3776 183.012C44.6091 185.385 45.7331 187.846 45.7923 190.721L45.7869 190.727ZM-24.8257 200.293C-38.3137 195.65 -49.9086 185.836 -58.3627 173.059C-58.3197 172.798 -58.4972 172.544 -58.7338 172.486C-67.0481 159.69 -72.2379 143.999 -73.0499 127.577C-73.2005 124.569 -73.179 121.548 -73.0284 118.54C-72.9262 118.412 -72.8563 118.247 -72.8402 118.037C-71.5333 99.8152 -66.2199 81.4979 -55.8082 67.7027C-46.4935 55.364 -34.1027 45.7729 -20.3513 42.3447C-5.45432 38.6304 9.27592 39.6735 23.4576 46.3771C35.472 52.0567 46.072 61.0436 53.6871 73.5413C70.945 101.857 69.5468 140.571 52.4932 168.556C35.273 196.82 3.52151 210.05 -24.815 200.293H-24.8257ZM66.7072 167.844C65.68 171.437 62.9588 174.204 59.7158 174.534C56.9623 174.814 54.6821 173.021 52.4018 171.488C53.2946 170.108 54.1443 168.689 54.9617 167.246C56.4944 170.445 60.7861 169.3 62.2758 166.565C63.6471 164.046 62.3242 158.437 59.6137 157.82C60.3235 156.141 60.9904 154.43 61.6089 152.7C65.4918 156.427 68.4927 161.604 66.7126 167.844H66.7072Z" fill="#A66427"/>
<path id="Vector_3" d="M78.969 181.473C78.969 181.473 78.9529 181.46 78.9421 181.454C74.1934 175.609 76.5919 168.142 76.3499 160.981C76.237 157.661 75.355 153.902 73.1823 151.708C76.4521 151.968 79.6466 149.233 81.3944 146.123C82.7389 143.732 83.6048 141.003 85.0138 138.663C87.0144 135.324 89.811 133.225 93.2313 132.614C93.4787 132.57 93.5325 132.271 93.4519 132.048C93.4626 131.788 93.3497 131.495 93.1184 131.387C87.45 128.792 85.6323 123.494 83.3682 117.312C82.1097 113.865 80.0392 110.176 76.8931 109.298C79.3831 107.511 80.7545 103.847 81.4106 100.578C82.5453 94.9622 82.4055 84.9894 88.1492 83.0432C88.2514 83.0114 88.3213 82.9351 88.375 82.846C88.3858 82.846 88.4019 82.8397 88.4127 82.8333C88.9666 82.6234 88.886 81.5931 88.2729 81.6058C85.0569 81.6567 82.4485 81.2369 79.6681 79.1381C77.0491 77.1664 75.0485 74.4379 72.7467 72.0274C70.4933 69.6678 67.1644 67.429 64.1473 68.3385C65.9113 65.769 65.9597 61.5522 65.438 58.5184C64.2871 51.8148 60.259 44.8313 64.5829 38.5284C64.798 38.2167 64.6475 37.8669 64.4055 37.7843C64.314 37.4408 64.0236 37.1928 63.701 37.4663C58.1079 42.1728 52.8751 38.6938 46.8841 37.3899C44.7651 36.9256 40.893 36.4931 38.9892 38.4584C39.328 35.0367 37.6609 31.5258 35.8592 28.9436C32.256 23.7919 26.9103 19.009 28.1688 11.4532C28.2656 10.8553 27.5341 10.6009 27.3889 11.1988C27.3782 11.2115 27.3674 11.2178 27.3567 11.2306C25.5067 13.6474 23.8771 15.8862 21.3172 17.3109C18.4777 18.8882 15.3584 18.9454 12.3145 19.5306C9.36739 20.0966 5.97928 21.604 4.51647 24.7714C3.66138 21.1397 0.391579 18.9391 -2.48563 17.5526C-8.03569 14.8813 -12.8006 12.4072 -15.3551 5.60181C-15.4465 5.36013 -15.6132 5.30924 -15.7746 5.36013C-16.0058 5.15024 -16.3769 5.18204 -16.4683 5.60817C-17.2481 9.28435 -18.1839 12.3245 -20.4158 15.1739C-22.454 17.7752 -24.9816 19.6451 -27.4071 21.6803C-29.9025 23.7792 -31.8439 26.8702 -31.8063 30.3683C-33.4573 27.8497 -36.996 27.0992 -39.5344 27.0547C-45.2888 26.9465 -52.2103 29.8277 -56.4105 23.4675C-56.5826 23.2068 -56.8676 23.3212 -56.9967 23.5502C-57.1687 23.6392 -57.2924 23.8555 -57.2225 24.0845C-54.7756 31.9965 -59.051 37.0465 -61.4873 43.96C-62.6543 47.2736 -63.0576 51.1597 -61.6862 54.3016C-64.6818 53.0486 -67.9892 54.2762 -70.8234 55.898C-73.2704 57.3036 -75.6044 58.9636 -78.2557 59.7904C-81.1652 60.6936 -83.9403 60.471 -86.8874 60.1021C-87.1133 60.0766 -87.2477 60.2611 -87.28 60.471C-87.3875 60.6363 -87.4252 60.8526 -87.3069 61.0498C-85.4299 64.1281 -83.7682 66.6658 -83.6014 70.6472C-83.4562 74.0499 -84.2576 77.3763 -84.4081 80.7599C-84.5641 84.2644 -83.9403 88.0168 -81.7676 90.2556C-84.3006 90.5673 -86.6776 93.1114 -88.0813 95.4583C-89.6301 98.0468 -90.6358 101.023 -92.303 103.517C-94.6316 107.002 -97.7025 108.369 -101.311 108.878C-101.876 108.719 -102.209 109.641 -101.704 110.004C-99.1653 111.823 -96.7344 113.324 -94.7768 116.078C-92.7171 118.978 -91.8082 122.451 -90.539 125.86C-89.3451 129.059 -87.0864 132.805 -84.0586 133.365C-86.5163 135.241 -87.8877 139.064 -88.4524 142.314C-89.5871 148.807 -88.9902 156.738 -95.0081 159.938C-95.3146 160.103 -95.2232 160.574 -94.9812 160.739C-94.9812 161.038 -94.8306 161.33 -94.5133 161.311C-91.2166 161.127 -88.4201 161.534 -85.6988 163.97C-83.6391 165.814 -81.9881 168.193 -80.0036 170.146C-77.6911 172.423 -74.8031 174.006 -71.9205 173.364C-73.5769 176.067 -73.3026 180.15 -72.4207 183.222C-71.5709 186.18 -70.178 188.895 -69.5004 191.923C-68.5055 196.369 -69.936 199.517 -71.657 203.276C-71.7054 203.32 -71.7538 203.358 -71.8022 203.409C-72.2539 203.848 -71.6785 204.65 -71.1945 204.338C-68.4678 202.57 -65.8326 201.361 -62.665 201.66C-59.6964 201.94 -57.1634 203.829 -54.3131 204.65C-51.3283 205.502 -47.9939 205.228 -45.6276 203.04C-46.1654 206.093 -44.5305 209.623 -42.8096 211.786C-41.0564 213.986 -38.8353 215.57 -37.0767 217.758C-34.3608 221.141 -33.9306 224.665 -34.4146 229.123C-34.4307 229.276 -34.3823 229.378 -34.3017 229.435C-34.2371 229.804 -33.8445 230.071 -33.5918 229.721C-31.8923 227.362 -30.2359 225.218 -27.8589 223.775C-25.229 222.178 -22.4056 221.892 -19.5391 221.339C-16.5651 220.766 -13.1071 219.443 -11.4776 216.378C-10.8806 219.85 -8.11636 222.267 -5.19074 223.355C-2.45874 224.372 0.246368 224.977 2.68797 226.872C5.38232 228.964 7.28613 231.871 8.64676 235.286C8.86188 235.827 9.66318 235.446 9.47495 234.873C9.47495 234.86 9.4642 234.848 9.4642 234.835C9.49647 234.765 9.51798 234.676 9.5126 234.574C9.45882 227.126 15.7726 224.271 20.005 220.41C22.3068 218.311 24.7053 214.94 24.786 211.36C26.4586 213.891 29.7606 214.381 32.4335 214.126C38.4353 213.56 43.9262 212.473 48.8148 217.605C49.0353 217.841 49.3956 217.65 49.4225 217.357C49.6268 217.255 49.7774 217.02 49.7021 216.696C48.7986 212.899 48.9492 208.93 50.3582 205.317C51.3801 202.691 52.9235 200.401 54.0314 197.825C55.2307 195.02 56.0212 191.452 54.9187 188.539C57.9842 190.091 61.6143 189.08 64.47 187.21C66.4061 185.938 68.0141 184.062 69.9717 182.828C72.8381 181.015 75.5379 181.295 78.528 182.344C78.571 182.364 78.6087 182.383 78.6463 182.383C79.1034 182.548 79.367 181.772 78.969 181.486V181.473ZM69.0682 181.944C64.2603 185.334 60.3828 189.983 54.3756 186.86C54.1927 186.765 54.0206 186.797 53.8862 186.892C53.6603 186.905 53.4237 187.153 53.5258 187.433C55.7093 193.634 52.4126 198.086 50.0033 203.282C48.1533 207.264 47.6639 211.474 48.5028 215.812C46.5291 213.408 43.6089 212.345 40.807 212.104C35.9399 211.678 27.2975 215.831 24.8505 208.714C24.7161 208.326 24.3881 208.237 24.1407 208.364C23.904 208.262 23.6082 208.377 23.6405 208.752C24.7053 221.135 9.54488 221.816 8.61449 232.609C7.03337 229.111 4.59714 226.166 1.57472 224.372C-0.339828 223.234 -2.40496 222.738 -4.44859 222.026C-8.17551 220.728 -10.1654 218.305 -10.488 213.687C-10.5311 213.064 -11.3646 212.822 -11.4776 213.528C-11.4776 213.554 -11.4776 213.579 -11.4883 213.605C-13.4943 220.887 -20.7384 219.539 -25.7399 221.339C-28.6279 222.375 -31.4298 224.455 -33.2906 227.33C-32.6668 223.38 -34.2855 219.354 -36.6572 216.537C-40.5724 211.887 -45.8589 208.593 -43.8529 201.037C-43.8153 200.897 -43.8422 200.764 -43.9013 200.655C-43.8583 200.21 -44.3907 199.79 -44.6758 200.204C-49.4084 207.105 -55.2327 201.997 -60.8365 200.528C-63.8751 199.733 -67.2471 200.204 -70.006 201.959C-68.242 198.646 -67.559 195.116 -68.5808 191.02C-70.1243 184.799 -74.4858 178.369 -69.9629 172.512C-69.9307 172.493 -69.893 172.473 -69.8607 172.454C-69.5166 172.232 -69.6886 171.564 -70.0275 171.551C-70.1189 171.519 -70.2157 171.532 -70.3179 171.602C-70.3609 171.628 -70.3932 171.666 -70.4308 171.691C-76.3466 174.261 -80.2241 167.398 -84.2038 163.467C-86.6346 161.063 -89.7162 159.397 -92.8677 159.74C-90.2809 157.762 -88.9364 153.934 -88.3502 150.416C-87.2316 143.726 -87.5274 136.367 -81.3857 133.257C-80.9286 133.028 -81.1921 132.36 -81.5847 132.271C-81.6385 132.233 -81.703 132.201 -81.7891 132.207C-88.732 132.481 -89.4096 123.348 -92.1578 117.859C-93.7712 114.634 -96.3795 111.352 -99.3858 109.673C-96.2719 109.19 -93.3571 107.085 -91.4102 104.197C-87.7425 98.7655 -86.4141 91.146 -79.2883 91.7121C-78.8903 91.7439 -78.7398 91.0379 -79.0839 90.8217C-79.3744 90.6436 -79.6648 90.5164 -79.9552 90.4146C-85.1503 86.3759 -82.6926 78.3939 -82.4667 72.2945C-82.3269 68.5357 -83.2035 64.2044 -85.5052 61.4441C-82.2193 62.1373 -78.6914 61.5204 -75.6259 60.0766C-70.8126 57.7997 -66.1984 52.8642 -60.8365 56.2605C-60.6913 56.3559 -60.5515 56.3687 -60.4224 56.3305C-60.4063 56.3496 -60.3902 56.375 -60.3686 56.4005C-59.9384 56.9093 -59.3199 56.1524 -59.7071 55.6182C-64.2246 49.3852 -59.1855 42.0519 -56.7923 36.2451C-55.5984 33.3512 -54.6088 29.5288 -55.3725 26.2978C-48.9082 32.8996 -35.9527 22.876 -31.8224 33.154C-31.7149 33.4148 -31.4567 33.4721 -31.2416 33.3894C-31.048 33.6565 -30.5855 33.612 -30.6285 33.1668C-30.9673 29.4016 -30.3488 26.2088 -27.8051 23.7092C-25.8959 21.8393 -23.7017 20.4083 -21.7871 18.532C-19.1035 15.9116 -16.2532 12.0828 -15.6832 7.81515C-14.5215 11.345 -11.7734 14.0354 -9.03599 15.8162C-4.51312 18.7546 2.88157 19.6578 3.5592 26.9974C3.63986 27.8688 4.68858 27.9006 4.72622 26.9974C4.72622 26.9147 4.72622 26.8448 4.72622 26.7621C7.01723 19.9694 13.9333 21.0697 18.9724 19.6196C21.9572 18.761 25.1033 16.6749 27.0501 13.6919C26.9211 17.2918 28.2548 20.6945 30.1694 23.6074C33.7242 29.0136 38.274 32.6707 37.5856 40.2711C37.5533 40.6209 37.8383 40.8435 38.1072 40.8435C38.3008 41.0343 38.645 40.9898 38.7741 40.6272C40.8661 34.7568 51.6597 40.729 55.3705 41.3587C57.64 41.7466 60.2967 41.6067 62.3672 40.2838C61.1303 43.1077 61.2809 46.7712 61.9101 49.805C63.3514 56.7757 66.4007 62.5571 62.0983 68.9936C61.9693 69.1908 61.9693 69.4197 62.0499 69.5978C61.9047 69.9413 62.1844 70.3674 62.5555 70.1766C68.9337 66.8248 73.0694 75.1057 77.4417 79.0872C79.652 81.1033 82.4431 82.9224 85.2935 83.1895C83.3897 84.9576 82.4916 88.2458 81.8247 91.0125C80.136 98.0468 80.7545 105.45 74.4784 109.196C73.9836 109.495 74.3439 110.322 74.8387 110.207C75.0323 110.163 75.2152 110.099 75.4034 110.036C81.6203 111.142 82.3679 119.621 85.0353 125.052C86.4605 127.952 88.531 130.821 91.2307 131.991C88.0739 132.811 85.4763 135.616 83.7285 138.835C82.427 141.226 81.5504 143.91 80.1037 146.193C77.8127 149.799 75.0592 150.251 71.4936 150.308C71.3484 150.308 71.2462 150.385 71.1871 150.493C70.9935 150.652 70.8967 151.033 71.1064 151.224C76.1886 155.899 75.1022 162.66 74.7688 169.408C74.5806 173.16 74.8656 177.358 76.8071 180.36C74.2202 179.571 71.3807 180.271 69.0735 181.906L69.0682 181.944Z" fill="#A66427"/>
<path id="Vector_4" d="M4.89289 19.5816C4.61324 20.4085 5.68345 20.9936 5.9631 20.1604C7.15701 16.5606 14.6808 1.04175 7.61414 0.0368476C1.2789 -0.866296 3.47849 15.0914 4.92516 19.499C4.9144 19.5244 4.90365 19.5562 4.89828 19.5816H4.89289ZM7.86691 1.48061C11.9111 2.95617 7.42054 13.3105 5.52212 17.9662C4.68316 12.8271 3.30102 -0.192116 7.86691 1.48061Z" fill="#A66427"/>
<path id="Vector_5" d="M42.0009 33.5802C44.5877 31.2079 57.7637 22.4245 52.1276 17.2855C47.0776 12.6807 42.06 27.7161 41.3931 32.3845C41.3716 32.4036 41.3501 32.4227 41.334 32.4354C40.737 32.976 41.4039 34.1272 42.0009 33.5802ZM51.7188 18.6783C54.5584 22.3927 46.2172 28.5684 42.5709 31.4241C44.0714 26.5013 48.5136 14.4806 51.7188 18.6783Z" fill="#A66427"/>
<path id="Vector_6" d="M68.7132 65.7504C71.7464 64.3067 86.4551 60.128 82.2226 53.3608C78.4312 47.2932 70.1222 60.1344 68.4066 64.4021C68.3851 64.4148 68.3582 64.4211 68.3367 64.4339C67.6322 64.7646 68.0087 66.0875 68.7132 65.7504ZM81.5073 54.5629C83.3735 59.0595 73.9244 62.2905 69.7565 63.8614C72.3379 59.6129 79.3992 49.4875 81.5073 54.5629Z" fill="#A66427"/>
<path id="Vector_7" d="M99.9323 104.471C98.9105 97.0228 86.5573 103.93 83.3735 106.798C83.352 106.798 83.3197 106.792 83.2982 106.786C82.5453 106.697 82.3678 108.077 83.1261 108.159C86.3852 108.522 101.072 112.777 99.9377 104.471H99.9323ZM84.7826 107.053C88.7246 104.68 98.9212 99.5033 98.8298 105.157C98.7491 110.163 89.0957 107.918 84.7826 107.053Z" fill="#A66427"/>
<path id="Vector_8" d="M80.2758 153.781C80.2758 153.781 80.2381 153.743 80.2166 153.723C79.6304 153.157 78.8398 154.194 79.4314 154.76C81.9806 157.19 92.2471 170.324 95.1727 162.647C97.7972 155.771 84.2662 153.469 80.2758 153.781ZM93.9358 162.494C91.5318 166.616 84.5297 158.449 81.3352 154.913C85.729 155.504 96.6463 157.839 93.9358 162.494Z" fill="#A66427"/>
<path id="Vector_9" d="M60.5118 193.698C60.5118 193.698 60.4903 193.641 60.4796 193.615C60.1515 192.814 59.0598 193.354 59.3986 194.162C60.8453 197.635 65.4811 214.661 70.8698 209.153C75.6992 204.224 64.2442 195.402 60.5118 193.698ZM69.7996 208.402C66.1533 210.947 62.706 200.045 61.0711 195.25C64.8465 197.972 73.9191 205.528 69.7996 208.402Z" fill="#A66427"/>
<path id="Vector_10" d="M27.2598 220.143C27.276 219.253 26.0982 219.151 26.0875 220.048C26.0444 223.915 23.6351 241.577 30.5512 239.567C36.7466 237.767 29.9273 223.756 27.2598 220.232C27.2598 220.207 27.2598 220.169 27.2598 220.143ZM29.8843 238.321C25.6572 238.626 26.7758 227.07 27.1577 221.911C29.4756 226.364 34.6545 237.971 29.8843 238.321Z" fill="#A66427"/>
</g>
</g>
</svg>
