<?xml version="1.0" encoding="UTF-8"?>
<svg id="Layer_2" data-name="Layer 2" xmlns="http://www.w3.org/2000/svg" xmlns:xlink="http://www.w3.org/1999/xlink" viewBox="0 0 308.5 134.4">
  <defs>
    <style>
      .cls-1 {
        fill: #fff;
      }

      .cls-2 {
        filter: url(#drop-shadow-4);
      }

      .cls-3 {
        filter: url(#drop-shadow-8);
      }

      .cls-3, .cls-4 {
        fill: #f3b73b;
      }

      .cls-5 {
        filter: url(#drop-shadow-3);
      }

      .cls-6 {
        filter: url(#drop-shadow-1);
      }

      .cls-7 {
        filter: url(#drop-shadow-2);
      }

      .cls-8 {
        fill: none;
      }

      .cls-4 {
        filter: url(#drop-shadow-7);
      }
    </style>
    <filter id="drop-shadow-1" filterUnits="userSpaceOnUse">
      <feOffset dx="4.25" dy="4.25"/>
      <feGaussianBlur result="blur" stdDeviation="5"/>
      <feFlood flood-color="#231f20" flood-opacity=".25"/>
      <feComposite in2="blur" operator="in"/>
      <feComposite in="SourceGraphic"/>
    </filter>
    <filter id="drop-shadow-2" filterUnits="userSpaceOnUse">
      <feOffset dx="4.25" dy="4.25"/>
      <feGaussianBlur result="blur-2" stdDeviation="5"/>
      <feFlood flood-color="#231f20" flood-opacity=".25"/>
      <feComposite in2="blur-2" operator="in"/>
      <feComposite in="SourceGraphic"/>
    </filter>
    <filter id="drop-shadow-3" filterUnits="userSpaceOnUse">
      <feOffset dx="4.25" dy="4.25"/>
      <feGaussianBlur result="blur-3" stdDeviation="5"/>
      <feFlood flood-color="#231f20" flood-opacity=".25"/>
      <feComposite in2="blur-3" operator="in"/>
      <feComposite in="SourceGraphic"/>
    </filter>
    <filter id="drop-shadow-4" filterUnits="userSpaceOnUse">
      <feOffset dx="4.25" dy="4.25"/>
      <feGaussianBlur result="blur-4" stdDeviation="5"/>
      <feFlood flood-color="#231f20" flood-opacity=".25"/>
      <feComposite in2="blur-4" operator="in"/>
      <feComposite in="SourceGraphic"/>
    </filter>
    <filter id="drop-shadow-5" filterUnits="userSpaceOnUse">
      <feOffset dx="4.25" dy="4.25"/>
      <feGaussianBlur result="blur-5" stdDeviation="5"/>
      <feFlood flood-color="#231f20" flood-opacity=".25"/>
      <feComposite in2="blur-5" operator="in"/>
      <feComposite in="SourceGraphic"/>
    </filter>
    <clipPath id="clippath">
      <rect class="cls-8" x="230.43" y="14.49" width="60.77" height="94.54" transform="translate(-1.35 117.52) rotate(-25.33)"/>
    </clipPath>
    <clipPath id="clippath-1">
      <rect class="cls-8" x="230.43" y="14.49" width="60.77" height="94.54" transform="translate(-1.35 117.52) rotate(-25.33)"/>
    </clipPath>
    <filter id="drop-shadow-6" filterUnits="userSpaceOnUse">
      <feOffset dx="4.25" dy="4.25"/>
      <feGaussianBlur result="blur-6" stdDeviation="5"/>
      <feFlood flood-color="#231f20" flood-opacity=".25"/>
      <feComposite in2="blur-6" operator="in"/>
      <feComposite in="SourceGraphic"/>
    </filter>
    <clipPath id="clippath-3">
      <rect class="cls-8" x="10.84" y="10.61" width="51.77" height="104.29"/>
    </clipPath>
    <clipPath id="clippath-4">
      <rect class="cls-8" x="10.84" y="10.78" width="51.77" height="104.29"/>
    </clipPath>
    <filter id="drop-shadow-7" filterUnits="userSpaceOnUse">
      <feOffset dx="4.25" dy="4.25"/>
      <feGaussianBlur result="blur-7" stdDeviation="5"/>
      <feFlood flood-color="#231f20" flood-opacity=".25"/>
      <feComposite in2="blur-7" operator="in"/>
      <feComposite in="SourceGraphic"/>
    </filter>
    <filter id="drop-shadow-8" filterUnits="userSpaceOnUse">
      <feOffset dx="4.25" dy="4.25"/>
      <feGaussianBlur result="blur-8" stdDeviation="5"/>
      <feFlood flood-color="#231f20" flood-opacity=".25"/>
      <feComposite in2="blur-8" operator="in"/>
      <feComposite in="SourceGraphic"/>
    </filter>
  </defs>
  <g id="Layer_1-2" data-name="Layer 1">
    <g class="cls-6">
      <path class="cls-1" d="M114.89,39.04h-20.91v60.49h-3.54V39.04h-20.91v-1.63h45.36v1.63Z"/>
    </g>
    <g class="cls-7">
      <path class="cls-1" d="M160.16,37.41v62.12h-3.54v-31.65h-36.12v31.65h-3.54V37.41h3.54v28.84h36.12v-28.84h3.54Z"/>
    </g>
    <g class="cls-5">
      <path class="cls-1" d="M214.56,101.25h-.34l-48.49-57.94h0s0,56.22,0,56.22h-1.63V36.2h.3l48.53,57.99V37.41h1.63v63.84Z"/>
    </g>
    <g class="cls-2">
      <path class="cls-1" d="M219.53,37.41h3.54v62.12h-3.54V37.41Z"/>
    </g>
    <path class="cls-4" d="M10.84,36.8c0-.41,.05-.84,.15-1.27,.68-13.75,11.91-24.75,25.73-24.75s25.89,11.69,25.89,26.07v.05c0,9.04-4.55,16.32-9.61,21.64-4.1-3.46-7.79-5.7-9.45-6.62-.35-.23-.71-.43-1.09-.61-.1-.08-.28-.18-.43-.25,3.97-3.69,7.63-8.61,7.63-14.16v-.05c0-7.21-5.79-13.04-12.94-13.04s-12.94,5.83-12.94,13.04v.05c0,11.46,15.77,20.22,15.77,20.22,.66,.33,1.26,.76,1.77,1.27,1.37,.74,4.75,2.42,9.45,6.77,5.59,5.14,11.83,13.14,11.83,23.83,0,.51-.05,1.02-.18,1.53-.81,13.62-11.96,24.52-25.66,24.55-6.93,.03-13.45-2.67-18.35-7.64-4.9-4.91-7.58-11.43-7.58-18.38v-.05c0-9.12,4.4-16.32,9.35-21.59,4.2,3.54,8.06,5.81,9.78,6.72,.23,.15,.46,.28,.68,.41,.15,.08,.35,.18,.51,.25-3.77,3.51-7.38,8.35-7.38,14.21,0,7.21,5.79,13.04,12.94,13.04s12.94-5.83,12.94-13.04c0-5.4-3.49-10.39-7.63-14.23-4.15-3.84-8.29-5.96-8.29-5.96-.58-.31-1.09-.66-1.57-1.12v-.03c-2.96-1.4-21.34-10.67-21.34-30.76v-.1Z"/>
    <path class="cls-3" d="M283.83,46.32c0-.34,0-.67-.01-1.01,0-.19,0-.38-.02-.57-.01-.22-.03-.44-.04-.66-.02-.3-.04-.61-.07-.91-.01-.1-.02-.21-.04-.31-.35-3.22-1.23-6.44-2.69-9.53-1.47-3.1-3.4-5.82-5.68-8.14-.07-.07-.13-.14-.2-.2-.23-.23-.46-.44-.69-.66-.15-.14-.3-.29-.46-.43-.15-.14-.31-.27-.47-.41-.24-.21-.49-.42-.73-.62-.07-.06-.15-.12-.22-.17-2.55-2.03-5.46-3.68-8.71-4.82-6.61-2.33-13.68-2.31-20.22,0-.04,.01-.08,.02-.11,.04-.39,.14-.79,.29-1.18,.45-.09,.04-.18,.07-.27,.1-.46,.19-.91,.39-1.36,.6-.02,0-.04,.02-.06,.02,0,0,0,0,0,0h0c-.47,.22-.93,.46-1.38,.7-.05,.03-.1,.05-.14,.08-6.58,3.57-11.56,9.33-14.12,16.39-2.39,6.58-2.42,13.61-.14,20.1,.01,.04,.03,.08,.04,.12,.13,.38,.28,.75,.43,1.13,.04,.1,.08,.21,.12,.31,.16,.38,.33,.76,.5,1.14,.04,.09,.08,.18,.12,.26,.04,.08,.08,.16,.12,.24,.18,.38,.37,.75,.57,1.12,.05,.09,.11,.18,.16,.28,.2,.36,.4,.71,.61,1.06,.02,.03,.04,.06,.06,.09,3.58,5.88,9.04,10.32,15.65,12.65,3.27,1.15,6.62,1.7,9.92,1.72,.05,0,.11,0,.16,0,.36,0,.72,0,1.08-.02,.17,0,.34,0,.51-.02,.25-.01,.49-.03,.74-.05,.28-.02,.56-.04,.85-.07,.13-.01,.26-.03,.39-.05,.39-.05,.78-.1,1.18-.16,.02,0,.03,0,.05,0,1.76-.28,3.51-.71,5.23-1.31l6.05,12.79-6.91,3.27c-1.66,.79-2.38,2.76-1.6,4.42,.78,1.65,2.77,2.35,4.43,1.56l6.91-3.27,4.41,9.31c.78,1.65,2.77,2.35,4.43,1.56,1.66-.79,2.38-2.77,1.6-4.42l-4.41-9.31,6.91-3.27c1.66-.79,2.38-2.77,1.6-4.42-.78-1.65-2.77-2.35-4.43-1.56l-6.91,3.27-6.05-12.79c1.94-1.19,3.71-2.58,5.3-4.12,.06-.06,.13-.12,.19-.18,.23-.23,.46-.47,.68-.7,.14-.15,.28-.3,.42-.45,.14-.16,.28-.32,.42-.47,.21-.24,.42-.48,.62-.73,.06-.07,.12-.15,.17-.22,2.05-2.55,3.73-5.46,4.91-8.69h0c1.18-3.25,1.75-6.57,1.79-9.83,0-.07,0-.15,0-.22m-6.92-3.67c.05,.3,.08,.61,.12,.92,.01,.1,.02,.2,.03,.3,.02,.22,.04,.44,.05,.66,.01,.19,.03,.38,.04,.57,0,.13,0,.26,.01,.39,0,.28,.01,.56,.01,.84,0,.04,0,.08,0,.12-.07,5.27-1.93,10.41-5.26,14.54-.03,.04-.06,.08-.09,.12-.17,.21-.35,.42-.53,.62-.09,.11-.19,.22-.28,.32-.12,.13-.25,.26-.37,.39-.16,.17-.32,.34-.49,.5-.06,.06-.13,.13-.2,.19-.23,.22-.46,.44-.7,.66,0,0,0,0,0,0-3.41,3.03-7.64,5.04-12.14,5.76-.03,0-.06,.01-.1,.02-.29,.05-.58,.08-.87,.12-.12,.01-.24,.03-.36,.04-.2,.02-.41,.04-.62,.05-.21,.02-.41,.03-.62,.04-.12,0-.23,0-.35,.01-.3,0-.59,.02-.89,.02-.03,0-.06,0-.08,0-8.02-.05-15.7-4.17-20.01-11.26,0,0,0-.01-.01-.02-.18-.29-.35-.59-.51-.89-.03-.05-.06-.1-.09-.15-.19-.35-.37-.71-.54-1.07,0,0,0,0,0,0-.17-.36-.33-.72-.48-1.09-.02-.06-.05-.12-.07-.18-.13-.31-.25-.63-.36-.95,0-.02-.01-.03-.02-.05-3.79-10.8,.87-22.97,11.12-28.53,.04-.02,.07-.04,.11-.06,.35-.19,.71-.37,1.08-.55,.02,0,.04-.02,.06-.03,.35-.16,.69-.32,1.04-.46,.08-.03,.15-.06,.23-.09,.3-.12,.6-.24,.9-.35,.03-.01,.07-.02,.1-.03,7.84-2.75,16.36-1.14,22.57,3.78,.05,.04,.11,.08,.16,.13,.2,.16,.39,.33,.58,.49,.12,.1,.24,.2,.35,.31,.13,.11,.25,.23,.37,.34,.18,.17,.35,.33,.52,.5,.06,.06,.11,.12,.17,.18,3.41,3.49,5.65,7.98,6.4,12.79,0,0,0,.02,0,.03Z"/>
  </g>
</svg>