<svg width="131" height="39" viewBox="0 0 131 39" fill="none" xmlns="http://www.w3.org/2000/svg">
<g id="Logo">
<g id="ThniQ">
<path d="M23.35 19.0359C22.7902 18.3631 22.5103 17.6995 22.5103 17.0449C22.5103 16.3722 22.6638 15.7994 22.9708 15.3267C23.2778 14.8358 23.7744 14.4267 24.4606 14.0994C25.1468 13.7539 25.9234 13.5812 26.7902 13.5812H37.8964C38.4562 13.5812 39.0702 13.5266 39.7383 13.4176C40.4246 13.3085 40.9031 13.1994 41.174 13.0903V16.5267L40.9031 16.4994V16.0358C40.9031 15.5994 40.7496 15.2267 40.4426 14.9176C40.1356 14.5903 39.7745 14.4176 39.3591 14.3994H34.2124V30.7362C34.2304 31.3907 34.5194 31.8816 35.0792 32.2089C35.3501 32.3544 35.639 32.4271 35.946 32.4271H36.2981V32.6998H30.3658V32.4271H30.718C31.1875 32.4271 31.5848 32.2635 31.9099 31.9362C32.253 31.6089 32.4336 31.218 32.4516 30.7634V14.3994H26.7902C25.3455 14.3994 24.2981 14.863 23.648 15.7903C23.3048 16.2631 23.1333 16.7631 23.1333 17.2904C23.1333 17.7995 23.2778 18.3359 23.5667 18.8995L23.35 19.0359Z" fill="#191821"/>
<path d="M54.9935 32.4271C55.463 32.4271 55.8603 32.2635 56.1853 31.9362C56.5284 31.5907 56.709 31.1907 56.7271 30.7362V23.6723H45.648V30.7362C45.648 31.2089 45.8196 31.6089 46.1627 31.9362C46.5058 32.2635 46.9121 32.4271 47.3817 32.4271H47.7338V32.6998H41.8015V32.4271H42.1536C42.6232 32.4271 43.0205 32.2635 43.3455 31.9362C43.6886 31.6089 43.8692 31.2089 43.8873 30.7362V15.5722C43.8692 15.0994 43.6886 14.6994 43.3455 14.3721C43.0205 14.0448 42.6232 13.8812 42.1536 13.8812H41.8015V13.6085H47.7338V13.8812H47.3817C46.9121 13.8812 46.5058 14.0448 46.1627 14.3721C45.8376 14.6994 45.6661 15.0994 45.648 15.5722V22.8541H56.7271V15.5722C56.709 14.9176 56.4201 14.4267 55.8603 14.0994C55.5894 13.9539 55.3004 13.8812 54.9935 13.8812H54.6413V13.6085H60.5736V13.8812H60.2215C59.7519 13.8812 59.3456 14.0539 59.0025 14.3994C58.6774 14.7267 58.5059 15.1267 58.4878 15.5994V30.7362C58.5059 31.2089 58.6774 31.6089 59.0025 31.9362C59.3456 32.2635 59.7519 32.4271 60.2215 32.4271H60.5736V32.6998H54.6413V32.4271H54.9935Z" fill="#191821"/>
<path d="M81.7966 13.8812C81.3451 13.8812 80.9568 14.0448 80.6318 14.3721C80.3067 14.6812 80.1352 15.063 80.1171 15.5176V29.5907C80.1171 30.6453 80.1803 31.6453 80.3067 32.5908L80.3609 33.0817H80.1171L65.354 17.2086V30.7907C65.354 31.2453 65.5166 31.6362 65.8416 31.9635C66.1667 32.2726 66.555 32.4271 67.0064 32.4271H67.5211V32.6998H61.9409V32.4271H62.4556C62.9071 32.4271 63.2953 32.2726 63.6204 31.9635C63.9455 31.6362 64.108 31.2362 64.108 30.7634V16.6085C64.108 15.4994 64.0448 14.5085 63.9184 13.6357L63.8642 13.1994H64.1351L78.8981 29.0725V15.5449C78.8801 15.0721 78.7085 14.6812 78.3835 14.3721C78.0584 14.0448 77.6701 13.8812 77.2187 13.8812H76.704V13.6085H82.2842V13.8812H81.7966Z" fill="#191821"/>
<path d="M83.7213 32.4271C84.1909 32.4271 84.5882 32.2635 84.9132 31.9362C85.2563 31.5907 85.4369 31.1816 85.455 30.7089V15.5722C85.4369 15.0994 85.2563 14.6994 84.9132 14.3721C84.5882 14.0448 84.1909 13.8812 83.7213 13.8812H83.3692V13.6085H89.3015V13.8812H88.9493C88.4798 13.8812 88.0735 14.0448 87.7304 14.3721C87.4053 14.6994 87.2338 15.0994 87.2157 15.5722V30.7089C87.2157 31.1816 87.3873 31.5907 87.7304 31.9362C88.0735 32.2635 88.4798 32.4271 88.9493 32.4271H89.3015V32.6998H83.3692V32.4271H83.7213Z" fill="#191821"/>
<path d="M127.993 37.4454C127.253 37.8272 126.386 38.1454 125.393 38.4C124.418 38.6545 123.542 38.8182 122.765 38.8909C122.007 38.9636 121.329 39 120.734 39C118.783 39 116.788 38.6636 114.747 37.9909C113.952 37.7363 112.616 37.2272 110.738 36.4636C106.043 34.5726 102.774 33.4453 100.932 33.0817V32.8089C100.95 32.8089 100.977 32.8089 101.013 32.8089C104.156 32.8089 106.557 31.7726 108.219 29.6998C109.447 28.1543 110.061 26.0815 110.061 23.4814C110.061 20.8632 109.248 18.6268 107.623 16.7722C105.961 14.863 103.803 13.9085 101.149 13.9085C99.5415 13.9085 98.0607 14.2903 96.7063 15.054C95.3519 15.8176 94.2774 16.9085 93.4828 18.3268C92.7063 19.745 92.318 21.345 92.318 23.1269C92.318 24.3451 92.5257 25.4815 92.941 26.5361C93.3564 27.5906 93.9343 28.4543 94.6747 29.127C95.7402 30.1089 96.9772 30.5998 98.3858 30.5998C99.1442 30.5998 99.9027 30.4271 100.661 30.0816C101.781 29.5725 102.53 28.7179 102.91 27.5179L103.153 27.5997C102.81 28.9088 102.106 29.918 101.04 30.6271C100.246 31.1544 99.2797 31.418 98.142 31.418C97.7808 31.418 97.3925 31.3907 96.9772 31.3362C94.8643 31.0271 93.2119 30.118 92.0201 28.6088C90.8282 27.0815 90.2322 25.3088 90.2322 23.2905C90.2322 21.2723 90.7108 19.4904 91.6679 17.9449C92.6431 16.3813 93.9523 15.1812 95.5957 14.3448C97.2571 13.5085 99.072 13.0903 101.04 13.0903C103.226 13.0903 105.167 13.5539 106.864 14.4812C108.562 15.4085 109.862 16.6449 110.765 18.1904C111.686 19.7177 112.147 21.3996 112.147 23.236C112.147 24.7451 111.876 26.1179 111.334 27.3543C110.81 28.5725 110.124 29.5725 109.275 30.3543C107.578 31.918 105.663 32.8453 103.533 33.1362C104.995 33.4271 107.262 34.0272 110.332 34.9363C113.402 35.8636 114.946 36.3272 114.964 36.3272C117.564 37.0545 120.065 37.4181 122.467 37.4181C123.84 37.4181 125.194 37.2818 126.53 37.009C128.445 36.6454 129.898 35.9727 130.892 34.9908L131 35.1272C130.512 35.909 129.51 36.6818 127.993 37.4454Z" fill="#191821"/>
</g>
<path id="8" d="M21.0638 26.6652C21.0638 29.4144 20.1049 31.6562 18.187 33.3908C16.2692 35.0927 13.7012 35.9436 10.4831 35.9436C7.29756 35.9436 4.74585 35.0927 2.82801 33.3908C0.94267 31.6562 0 29.4798 0 26.8616C0 24.6033 0.601358 22.7215 1.80407 21.216C3.00679 19.6778 4.74585 18.3686 7.02126 17.2886C3.51063 14.7358 1.75532 11.7739 1.75532 8.40293C1.75532 6.04651 2.55171 4.09919 4.14449 2.56097C5.76979 0.990019 7.89892 0.204544 10.5319 0.204544C13.1649 0.204544 15.2777 0.940926 16.8705 2.41369C18.4958 3.88645 19.3085 5.91559 19.3085 8.50111C19.3085 10.4648 18.7884 12.1994 17.7482 13.7049C16.708 15.1776 15.229 16.2577 13.3111 16.945C16.2692 18.4177 18.3008 19.8905 19.406 21.3632C20.5112 22.9015 21.0638 24.6688 21.0638 26.6652ZM5.41222 7.76473C5.41222 10.9721 7.08627 13.5412 10.4344 15.4722L11.5071 16.0613C14.2701 13.9994 15.6516 11.3485 15.6516 8.10837C15.6516 6.14469 15.1965 4.59011 14.2863 3.44463C13.3762 2.26641 12.1247 1.67731 10.5319 1.67731C8.93911 1.67731 7.68763 2.28278 6.77747 3.49372C5.8673 4.67193 5.41222 6.0956 5.41222 7.76473ZM3.65691 27.0088C3.65691 29.2671 4.25827 31.0835 5.46098 32.4581C6.6962 33.7999 8.40276 34.4708 10.5807 34.4708C12.791 34.4708 14.4814 33.7836 15.6516 32.409C16.8218 31.0017 17.4069 29.3162 17.4069 27.3525C17.4069 26.1743 17.2606 25.307 16.968 24.7506C16.708 24.1615 16.4642 23.7033 16.2367 23.376C16.0416 23.0487 15.7653 22.7378 15.4078 22.4433C15.0827 22.116 14.7902 21.8542 14.5301 21.6578C14.2701 21.4287 13.9125 21.1996 13.4574 20.9705C13.0348 20.7087 12.6935 20.5123 12.4335 20.3814C12.1734 20.2178 11.7996 20.0214 11.312 19.7923C10.1743 19.2032 9.23166 18.6795 8.48402 18.2214C5.26595 20.4141 3.65691 23.3433 3.65691 27.0088Z" fill="#FFB932"/>
</g>
</svg>
