<svg width="91" height="239" viewBox="0 0 91 239" fill="none" xmlns="http://www.w3.org/2000/svg">
<g id="Group" opacity="0.4">
<path id="Vector" d="M19.4872 43.8969C20.7878 41.5991 21.4196 38.3532 21.2072 35.6159C21.186 35.371 21.0692 35.2266 20.9312 35.1701C20.7878 34.8687 20.3419 34.8436 20.2039 35.2643C19.3333 37.9388 17.592 39.8349 16.3657 42.2457C15.8879 43.1812 14.6404 45.6234 16.0843 46.245C17.369 46.7975 18.8873 44.9642 19.4925 43.8969H19.4872ZM17.0293 43.0556C17.9477 41.1847 19.2749 39.6088 20.1773 37.7442C20.0022 39.4016 19.7473 41.034 19.0838 42.5533C18.7599 43.2942 17.8097 45.1651 16.9231 45.1086C15.7446 45.0333 16.732 43.6583 17.0293 43.0556Z" fill="#A66427"/>
<path id="Vector_2" d="M99.4206 175.646C95.2533 171.183 89.8808 169.06 84.5562 167.347C78.6157 165.438 72.7496 163.63 67.2869 160.158C57.0836 153.685 46.5351 140.149 49.3541 125.301C50.007 121.848 51.3979 118.464 53.3887 115.808C56.2926 111.934 59.8866 111.125 63.6504 113.805C65.5403 115.149 67.3506 117.045 69.5909 117.466C70.7217 117.679 72.7443 117.679 73.6415 116.612C76.1047 113.68 71.9958 109.706 70.1059 108.55C65.9226 105.995 61.0863 105.129 56.4147 105.719C47.1828 106.88 39.1772 115.971 34.7445 125.05C29.0641 136.683 27.4821 150.414 29.1703 163.586C29.165 163.649 29.1703 163.711 29.1915 163.768C29.234 164.088 29.2659 164.408 29.3136 164.728C31.2354 178.195 36.4698 190.444 43.2119 201.431C49.9539 212.418 60.5077 221.892 71.7569 225.182C78.3609 227.116 85.379 226.149 91.6593 223.167C97.0688 220.599 100.801 215.212 103.71 209.436C103.79 209.279 103.811 209.128 103.79 208.99C108.944 198.054 107.368 184.172 99.4153 175.653L99.4206 175.646ZM59.4141 180.933C52.1836 181.096 42.8456 184.656 40.1381 193.364C39.655 192.422 39.1826 191.468 38.726 190.501C42.3996 183.224 48.1968 178.12 55.6184 178.202C55.7511 178.283 55.9263 178.258 56.0165 178.107C56.1917 177.969 56.2448 177.687 56.1705 177.455C56.8394 174.102 57.2428 170.825 58.5222 167.648C59.8122 164.433 61.6544 161.872 63.6982 159.323C64.3459 159.806 65.0095 160.271 65.6784 160.717C60.6829 165.03 58.9416 173.989 59.4141 180.939V180.933ZM31.1823 167.566C32.4564 170.536 34.564 173.01 37.6483 172.758C40.7433 172.507 41.9165 169.462 42.1979 166.292C43.626 168.389 46.4449 169.079 48.5524 168.106C50.7396 167.089 51.7855 163.573 51.3714 160.786C52.9799 162.449 55.7511 161.91 57.2375 160.126C58.6072 158.488 58.9522 156.598 58.5541 154.834C59.9396 156.247 61.4049 157.527 62.9285 158.714C58.6602 162.908 55.4166 170.454 55.4272 177.078C48.6958 176.764 40.9875 181.956 38.2217 189.402C35.0471 182.502 32.5944 175.125 31.1823 167.56V167.566ZM48.1543 167.014C46.0627 168.043 43.4242 167.077 42.3253 164.747C43.4242 164.408 44.4966 163.988 45.5052 163.485C47.066 162.707 48.7064 161.627 50.2459 160.321C50.5804 162.745 50.1981 166.016 48.1543 167.02V167.014ZM56.1758 152.235C56.6801 152.944 57.195 153.635 57.4817 154.514C57.9754 156.039 57.5401 157.647 56.7173 158.871C55.2202 161.1 53.0649 160.974 51.3448 159.317C53.4205 157.326 55.2043 154.909 56.1758 152.228V152.235ZM54.1425 153.39C53.9567 153.045 53.755 152.706 53.5692 152.367C53.2825 151.839 53.0012 151.306 52.6667 150.822C53.0914 150.169 53.4259 149.479 53.6223 148.744C54.2328 149.667 54.8751 150.558 55.5387 151.412C55.0609 152.084 54.5938 152.743 54.1372 153.396L54.1425 153.39ZM52.0456 151.67C52.2792 152.197 52.5605 152.699 52.826 153.202C53.033 153.591 53.2241 153.999 53.4418 154.376C52.9852 155.01 52.5234 155.625 52.0562 156.228C51.6262 155.198 51.0635 154.143 50.3574 153.352C50.9732 152.837 51.5466 152.272 52.0456 151.67ZM49.5292 154.011C49.8265 154.47 50.1504 154.897 50.4211 155.374C50.7503 155.945 51.0316 156.554 51.2917 157.176C50.6919 157.891 50.0601 158.576 49.3859 159.216C48.8869 157.873 48.2764 156.523 47.5491 155.324C48.2074 154.928 48.8816 154.495 49.5292 154.011ZM46.7793 155.769C47.3314 157.176 47.9738 158.557 48.6055 159.913C48.0056 160.422 47.3633 160.899 46.6732 161.338C46.1317 159.781 45.5689 158.199 44.831 156.761C45.4203 156.479 46.0839 156.146 46.774 155.763L46.7793 155.769ZM44.056 157.113C44.5762 158.72 45.2133 160.283 45.7654 161.878C45.7547 161.878 45.7494 161.891 45.7388 161.897C45.0221 162.292 44.3108 162.619 43.5994 162.901C43.0845 161.225 42.5324 159.574 41.9537 157.929C42.6704 157.691 43.3711 157.421 44.0613 157.113H44.056ZM41.2264 158.149C41.6883 159.85 42.182 161.539 42.7182 163.215C41.9749 163.46 41.2264 163.649 40.4779 163.787C40.3452 162.927 40.0107 162.079 39.7718 161.263C39.5223 160.403 39.294 159.53 38.9914 158.695C39.7453 158.551 40.4885 158.369 41.2264 158.149ZM38.1155 158.846C38.2854 159.913 38.6198 160.962 38.9384 161.979C39.1401 162.632 39.3153 163.316 39.5966 163.931C38.8693 164.032 38.1367 164.082 37.4041 164.101C37.1705 163.228 36.9051 162.374 36.6821 161.501C36.4751 160.692 36.3158 159.85 36.0876 159.047C36.7618 159.015 37.4413 158.946 38.1155 158.846ZM35.201 159.072C35.3868 160.742 35.8646 162.512 36.4061 164.101C35.6894 164.082 34.9727 164.032 34.2508 163.95C33.8685 162.305 33.4757 160.547 32.9183 158.94C33.6721 159.028 34.4366 159.072 35.201 159.072ZM31.8884 158.789C32.1379 160.466 32.6316 162.18 33.0988 163.799C32.2387 163.667 31.3734 163.504 30.5028 163.31C30.2851 161.658 30.1153 160.001 29.9985 158.337C30.6196 158.526 31.2513 158.67 31.8831 158.783L31.8884 158.789ZM41.3273 165.03C40.9663 168.451 40.0054 172.476 36.2097 171.465C33.5341 170.749 32.0636 167.736 31.0655 164.973C31.0018 164.791 30.8585 164.741 30.7151 164.766C30.7045 164.703 30.6939 164.634 30.6886 164.572C34.0331 165.877 37.8129 165.921 41.3326 165.036L41.3273 165.03ZM41.1786 146.873C38.3969 143.332 35.2169 140.419 31.5486 138.247C31.9202 136.665 32.3555 135.095 32.8546 133.538C35.2222 135.641 37.5422 137.688 39.6338 140.212C39.8886 140.519 40.3505 140.45 40.5257 140.074C42.1607 136.627 44.7089 134.568 47.7668 133.212C47.8995 134.398 48.1012 135.572 48.3666 136.727C44.9531 139.145 42.6757 142.598 41.1786 146.873ZM55.0609 107.602C59.7432 106.397 65.19 107.395 69.4263 109.957C70.9393 110.873 74.9421 114.829 71.4861 115.921C68.6566 116.819 65.9332 113.51 63.6292 112.041C55.1459 106.636 48.6055 118.552 47.7296 127.354C47.565 128.98 47.5544 130.6 47.6765 132.194C44.4488 133.205 41.9484 135.629 39.9735 138.705C37.9669 136.319 35.7213 134.09 33.1784 132.552C33.5288 131.523 33.9004 130.493 34.3091 129.47C38.2907 119.575 45.6486 110.02 55.0609 107.596V107.602ZM31.3416 139.119C34.9462 141.725 38.1686 144.814 40.9769 148.562C41.2583 148.939 41.8104 148.731 41.9165 148.267C42.9199 143.866 45.4362 140.293 48.6692 137.927C49.6142 141.411 51.1219 144.72 52.9746 147.714C47.9313 156.498 38.3225 158.45 29.9507 157.289C29.6215 151.211 30.0303 145.109 31.3469 139.113L31.3416 139.119ZM72.0966 223.769C62.1268 220.85 52.1358 212.613 45.8291 203.089C44.04 200.383 42.3465 197.539 40.7805 194.582C44.2683 185.227 51.8598 183.212 59.8919 182.239C60.4174 182.176 60.5661 181.466 60.2953 181.115C60.4599 177.285 60.5873 173.575 61.7181 169.908C62.8064 166.38 64.6485 164.076 66.6339 161.319C68.6566 162.6 70.7482 163.724 72.8876 164.691C78.4883 167.215 84.45 168.332 90.0666 170.787C96.092 173.418 101.146 178.032 103.885 185.039C106.168 190.884 106.364 197.407 104.777 203.403C104.198 202.743 103.593 202.266 102.977 201.946C105.94 190.149 97.3555 181.554 90.3533 175.094C90.0242 174.786 89.5942 175.094 89.5889 175.464C89.5782 175.496 89.5623 175.521 89.5517 175.565C88.4315 181.265 88.3307 188.059 89.7693 194.117C88.5059 191.982 86.9398 190.068 85.2463 188.46C82.8892 186.225 80.0756 184.945 77.6018 182.935C75.2075 180.989 71.5392 174.623 75.5951 172.036C79.5607 169.506 81.3019 177.838 77.6495 177.568C77.108 177.53 77.0337 178.478 77.5274 178.654C80.203 179.621 81.2807 175.747 80.5481 173.311C79.5182 169.877 75.5367 169.274 73.7689 172.275C71.4914 176.136 73.6627 181.014 76.4338 183.457C78.5839 185.353 81.1427 186.42 83.367 188.165C86.2815 190.451 88.3944 193.426 90.2843 196.804C89.4084 195.9 88.4634 195.115 87.5078 194.475C82.7406 191.286 76.6993 189.509 71.3799 188.153C71.1039 188.084 70.934 188.303 70.9128 188.548C70.8597 188.649 70.8278 188.762 70.8438 188.887C71.5604 194.55 74.7669 200.458 77.6814 204.884C78.7909 206.567 80.1287 208.375 81.6682 209.794C78.3928 208.507 75.388 206.862 72.7443 204.106C70.7429 202.015 69.2034 199.366 67.1011 197.407C64.383 194.877 59.8388 193.659 57.2747 197.256C55.2786 200.056 56.8075 204.451 59.8759 204.734C62.0578 204.935 64.9405 202.706 63.454 199.899C63.1833 199.385 62.4241 199.717 62.5993 200.326C63.7672 204.426 56.5102 204.602 57.5454 199.41C58.6072 194.111 64.7547 196.647 66.9631 198.882C69.2458 201.186 71.019 204.062 73.4557 206.178C75.3562 207.829 77.5274 209.216 79.8049 210.108C74.3581 209.737 68.7097 210.88 64.1442 213.956C63.9053 213.9 63.6982 214.132 63.6717 214.402C63.608 214.66 63.7407 214.98 63.9743 215.005C69.437 221.541 78.3928 225.998 85.809 221.66C85.9524 222.294 86.1647 222.928 86.4514 223.568C81.7426 224.931 76.8373 225.144 72.086 223.751L72.0966 223.769ZM98.6243 201.808C98.104 196.471 97.6634 190.67 95.4072 185.949C95.2267 185.566 94.6534 185.823 94.7914 186.257C96.5167 191.48 97.0529 196.666 97.8492 202.134C96.968 202.555 96.0973 203.126 95.2692 203.773C92.4237 199.472 90.64 194.977 90.1675 189.459C89.7959 185.127 90.4117 180.857 90.348 176.557C93.4164 180.016 97.175 183.017 99.5905 187.142C102.171 191.549 102.611 196.427 101.985 201.563C100.881 201.268 99.7497 201.406 98.6296 201.814L98.6243 201.808ZM90.5444 208.388C86.0214 204.244 81.6045 200.075 77.6973 195.115C77.4372 194.783 76.97 195.21 77.1718 195.599C78.6901 198.568 81.0471 200.76 83.2662 202.963C85.4321 205.117 87.6193 207.27 90.0666 208.959C89.35 209.838 88.6545 210.786 88.0387 211.784C88.0069 211.696 87.9431 211.627 87.837 211.608C82.953 210.623 79.9111 206.831 77.1983 202.153C74.8465 198.091 73.6149 193.722 71.879 189.364C80.1128 192.987 90.5285 194.086 93.1563 205.644C92.583 206.196 92.0468 206.755 91.5478 207.283C91.2186 207.634 90.8842 208.005 90.555 208.388H90.5444ZM85.8515 216.926C81.7426 216.763 77.761 217.428 73.6415 216.637C73.1955 216.556 73.0044 217.29 73.4503 217.453C77.331 218.828 81.6682 218.351 85.6763 217.887C85.5436 218.835 85.5277 219.802 85.6551 220.768C81.8594 222.087 78.1751 222.671 74.2997 221.202C70.711 219.839 68.1257 216.957 65.0785 214.616C68.5822 213.165 71.8737 211.853 75.68 211.552C79.6403 211.244 83.521 211.79 87.3486 212.99C86.685 214.245 86.1594 215.564 85.8568 216.926H85.8515ZM94.1703 204.69C94.1384 204.351 94.0906 204.018 94.0322 203.691C94.2021 203.917 94.3773 204.137 94.5578 204.357C94.4251 204.47 94.2977 204.577 94.1703 204.69ZM90.4966 222.131C89.4243 222.602 88.3413 223.01 87.2424 223.361C85.1826 217.786 88.2192 212.582 91.6274 208.833C94.7436 205.412 100.084 199.617 104.209 204.508C104.278 204.589 104.358 204.639 104.432 204.665C104.029 205.97 103.53 207.239 102.956 208.476C102.866 208.526 102.781 208.614 102.712 208.739C99.6648 214.49 96.0336 219.707 90.502 222.131H90.4966Z" fill="#A66427"/>
<path id="Vector_3" d="M117.677 195.266C117.778 192.34 115.623 189.547 113.234 188.749C114.821 187.042 115.718 184.31 115.251 181.887C114.497 177.988 111.769 176.839 108.849 177.185C110.261 175.031 109.688 171.572 108.18 169.638C106.412 167.378 103.317 165.921 101.066 167.679C101.061 164.829 99.6914 162.06 97.3449 160.999C95.248 160.051 92.5989 160.786 91.0541 162.719C90.8099 159.518 89.5092 156.987 86.5735 156.203C83.9722 155.506 81.4612 156.692 79.7677 158.959C79.7837 152.605 72.7231 149.014 69.2936 153.88C69.4901 151.08 68.9751 148.16 67.0056 146.339C65.0148 144.506 62.4879 145.021 60.4705 146.452C61.4739 143.778 61.3943 140.199 59.8547 137.964C58.7717 136.388 56.6483 135.779 54.8114 136.037C55.99 134.605 56.7332 132.326 56.8022 130.556C56.8925 128.34 55.9581 126.387 54.6575 124.88C56.5368 125.558 58.5488 125.583 60.2847 124.29C61.4633 123.411 62.2755 122.093 62.6683 120.611C63.5177 122.852 65.1475 124.692 67.2073 125.175C69.2087 125.64 71.364 124.491 72.2347 122.432C74.3051 124.07 77.9575 123.116 79.5501 121.164C81.5833 118.671 81.1799 113.793 78.122 112.952C80.0438 110.842 80.3942 107.037 78.7007 104.564C77.0603 102.172 73.7052 101.701 71.6401 103.578C71.5923 100.332 69.9094 97.5823 67.1436 97.0926C64.4733 96.6217 61.6862 97.2182 60.2051 99.8299C60.4281 88.8116 63.3532 78.5529 65.6784 68.0493C68.5079 68.0305 70.8969 65.2806 71.3322 62.0159C71.7144 59.153 70.658 55.5367 68.0036 55.0281C68.0089 54.9654 68.0195 54.8963 68.0302 54.8335C68.0514 54.8335 68.0726 54.8398 68.0992 54.8335C71.3587 54.1743 73.0681 50.4576 72.9354 46.7597C72.8292 43.9595 71.2738 41.0339 68.7362 41.7308C71.5605 39.9603 72.4629 35.9485 71.7303 32.4201C71.2472 30.1097 69.5219 27.5983 67.494 28.1257C71.0402 23.7937 67.2285 14.9665 62.3604 16.8123C63.4593 14.2131 64.0964 11.0362 61.6385 9.17159C59.8919 7.84688 57.2004 7.23162 55.4007 8.61284C55.8095 6.10781 54.8539 3.15074 52.9534 1.97043C51.8598 1.29237 50.3999 1.27354 49.2054 1.51839C47.6022 1.85114 46.8059 3.5965 45.9883 5.10957C45.7495 5.54277 46.3016 6.06386 46.5989 5.66832C47.3421 4.68263 47.857 3.53372 48.8922 3.00634C50.0761 2.40363 51.6368 2.50407 52.7251 3.37047C54.6203 4.88354 54.2753 7.18767 54.1266 9.44158C51.5253 7.57065 48.6639 6.2522 45.6751 5.66832C45.6751 5.62438 45.6751 5.58043 45.6698 5.53649C44.9001 2.0646 41.9166 -0.113967 38.9384 0.413408C35.8009 0.965896 34.6065 3.51488 34.9037 6.9491C34.8082 6.99305 34.7126 7.03699 34.6171 7.08094C34.6011 7.03071 34.5852 6.98049 34.5534 6.93026C32.5095 3.78485 28.6819 4.55706 26.3302 6.77957C23.92 9.05231 24.2916 12.248 25.348 15.2804C24.9605 15.8956 24.5942 16.5297 24.2704 17.189C20.9153 19.1038 17.3743 20.0895 13.9449 21.7721C12.9416 22.2618 11.1578 23.2036 12.2408 24.7292C13.361 26.305 16.9709 25.2314 18.3034 24.6664C19.8854 23.9946 21.4992 22.8331 22.7362 21.3326C22.3805 22.7327 22.1628 24.1955 22.115 25.7086C22.115 25.8404 22.115 25.9786 22.115 26.1104C22.0301 26.0162 21.908 25.966 21.7859 25.9597C21.7487 25.9597 21.7116 25.9597 21.6744 25.9723H21.6638C21.6319 25.9848 21.6001 25.9974 21.5682 26.0225C21.5417 26.0413 21.5151 26.0602 21.4939 26.079C21.4886 26.0853 21.478 26.0853 21.4727 26.0978C19.0784 28.785 16.3126 30.4864 13.5733 32.5896C12.6018 33.3367 11.3914 35.0695 12.8088 36.1494C14.2794 37.2669 16.6364 35.2453 17.7088 34.178C19.6146 32.2757 21.1701 29.4944 22.1257 26.7759C22.2796 31.7232 24.5464 36.84 28.5757 38.7109C32.2812 40.4374 36.576 38.4347 37.1759 33.569C37.5103 33.1483 36.9848 32.3698 36.5441 32.7151C34.7126 34.1654 32.2441 33.9206 30.4922 32.4075C30.54 28.2701 34.8825 26.7633 37.6377 28.7849C40.2496 30.6998 41.4175 34.5107 41.6087 37.9763C41.6777 39.2132 41.6299 40.45 41.4919 41.6805C37.4519 42.8546 34.7179 48.4485 37.4944 52.655C35.5673 51.6253 32.7749 52.1339 31.4371 54.0927C30.2798 55.7753 30.1047 58.0543 30.7948 59.9503C29.0641 59.1279 27.0734 59.6238 25.5073 61.0365C24.4615 61.9782 23.5431 63.2841 23.0706 64.7469C22.5981 66.2035 22.906 67.478 23.2299 68.8529C20.9259 68.1937 18.0061 68.7964 16.4294 70.818C14.6244 73.1347 14.4864 76.5501 15.4738 79.3502C13.2866 79.3628 10.627 81.1709 9.52805 83.3055C8.91755 84.4858 8.6415 87.2671 9.52275 88.5918C7.06481 88.5039 4.71835 90.7892 3.66723 93.3005C2.63734 95.7679 2.50993 99.3465 4.35736 101.186C-0.070112 102.574 -0.813333 111.275 2.81783 114.584C-1.17963 117.604 -0.988521 126.324 3.80525 127.404C0.779283 131.642 3.2213 139.182 8.05754 139.044C6.85246 141.354 6.77814 144.632 8.24865 146.735C9.47497 148.493 12.0178 149.039 13.8016 148.022C13.5892 150.219 14.3431 152.724 15.7127 154.099C16.8329 155.223 18.4095 155.531 19.8641 155.192C18.8183 156.818 18.2874 158.896 18.6166 160.949C18.951 163.027 20.395 165.086 22.1575 165.507C20.2145 167.365 19.1793 170.517 19.742 173.449C20.257 176.155 22.2743 178.208 24.5464 178.246C22.0779 180.186 20.7666 183.971 21.9876 187.362C23.1131 190.476 25.8258 191.763 28.4006 191.135C26.9566 193.251 26.9991 196.986 27.6626 199.347C28.7085 203.051 32.053 204.583 35.0418 203.396C33.2049 205.895 33.2315 209.976 35.0524 212.5C36.5282 214.547 40.6956 216.537 42.5218 214.082C41.46 218.163 42.2457 221.955 45.3725 224.51C47.7349 226.444 51.2599 226.708 53.1445 223.914C53.3409 224.058 53.5427 224.203 53.7391 224.347C52.9056 227.649 54.6575 231.09 57.2747 232.553C59.6477 233.871 63.7566 233.463 64.8715 230.255C65.0254 230.311 65.1794 230.368 65.328 230.424C65.6359 238.549 76.3064 240.915 78.3503 232.98C78.3981 232.98 78.4406 232.98 78.4883 232.98C78.8228 236.546 82.9636 239.139 85.7401 238.574C88.7979 237.958 90.6134 234.687 90.7621 231.247C92.5671 233.721 95.5134 234.38 97.9342 232.572C99.8719 231.128 101.146 227.737 100.992 224.849C102.967 226.733 106.274 225.408 107.872 223.204C109.725 220.655 109.937 216.731 108.828 213.63C111.201 213.975 113.68 212.425 114.577 209.675C115.618 206.485 114.248 203.29 112.077 201.356C114.795 201.155 117.571 198.594 117.688 195.247L117.677 195.266ZM114.189 182.483C114.535 185.252 113.239 186.998 111.641 188.529C111.588 188.529 111.53 188.529 111.477 188.529C111.296 188.548 111.174 188.668 111.11 188.812C110.548 185.089 109.459 181.51 107.824 178.227C107.846 178.214 107.867 178.214 107.893 178.195C110.633 178.321 113.69 178.44 114.189 182.471V182.483ZM78.6635 231.655C74.2148 231.611 69.5431 230.657 65.0095 228.943C64.898 228.761 64.7069 228.648 64.5423 228.761C61.0386 227.392 57.6251 225.571 54.4664 223.368C54.4664 223.368 54.4664 223.368 54.4611 223.368C50.8405 220.844 47.5491 217.824 44.8417 214.402C41.7732 210.529 38.9702 206.291 36.2468 202.072C32.7431 196.66 30.5294 190.978 28.5173 184.549C26.5372 178.214 24.9127 172.149 24.2385 165.457C23.6068 159.185 23.6227 153.377 24.5199 147.099C26.7549 131.46 33.911 115.469 45.845 107.351C51.5944 103.44 58.3364 101.626 64.9033 103.038C67.9877 103.704 71.3853 104.922 73.7423 107.477C76.9382 110.942 78.2866 119.707 71.9958 119.638C66.687 119.581 62.594 113.378 56.9933 115.934C53.7816 117.403 52.2155 121.289 51.6581 125.081C49.869 137.223 56.5421 147.557 64.8025 153.88C67.786 156.165 70.9818 157.665 74.3688 158.852C80.4526 160.98 86.5894 163.008 92.6255 165.312C92.6839 165.476 92.8006 165.614 92.9758 165.689C99.4737 168.433 104.947 174.014 108.026 181.353C111.063 188.598 111.02 197.187 109.189 204.853C105.414 220.624 92.5193 231.781 78.6688 231.655H78.6635ZM39.0445 53.4209C39.0658 53.4711 39.0923 53.5214 39.1401 53.5716C39.8196 54.3124 40.531 54.9779 41.3167 55.5618C41.8582 55.9636 42.4687 56.4408 43.1004 56.7233C42.7023 57.4516 42.2776 58.1736 41.8422 58.8767C41.184 58.3305 40.462 57.8973 39.7771 57.4013C39.0499 56.874 38.3385 56.334 37.6059 55.8255C38.1102 55.0407 38.5933 54.2371 39.0499 53.4209H39.0445ZM31.7291 21.364C34.4472 19.9075 38.2323 20.1021 40.7327 20.6671C43.7215 21.3389 46.4237 23.034 48.4569 25.7274C51.5625 29.846 52.8897 34.9 52.9746 40.0796C52.9587 40.0105 52.9428 39.9415 52.9215 39.8724C52.5924 38.7046 51.6634 35.1323 50.1185 35.5843C48.7276 35.9924 49.5664 38.5288 49.7735 39.4894C50.4158 42.4402 51.7908 45.2089 52.1571 48.1974C51.9288 49.2772 51.6581 50.3383 51.3502 51.3867C50.5008 54.2434 49.508 56.9681 48.3932 59.5987C48.6162 58.7135 48.802 57.8094 48.9294 56.8865C49.0674 55.8569 49.5505 53.6093 48.4251 53.0191C45.4575 51.4746 45.999 63.5917 45.7229 64.9164C45.6964 65.042 45.7176 65.1613 45.7654 65.2617C44.486 67.7982 43.1057 70.2844 41.6458 72.758C38.6464 77.8497 35.0099 83.0481 32.329 88.6546C32.4086 87.242 32.3609 85.8608 32.2865 85.0132C32.1963 83.9899 31.6495 79.9404 30.2745 79.8901C27.944 79.8022 29.9188 91.8314 30.2533 93.5517C30.2586 93.5831 30.2745 93.6082 30.2852 93.6333C29.9613 94.5813 29.6693 95.5482 29.4304 96.5276C28.3634 100.841 28.4696 105.669 30.0622 109.536C28.236 108.061 26.2558 106.799 24.1164 106.165C22.9697 105.826 19.9438 104.959 19.6624 107.188C19.4182 109.09 21.5948 110.064 22.7521 110.459C25.2206 111.294 28.6766 112.405 31.262 111.821C31.9733 112.908 32.8493 113.856 33.8951 114.634C31.7026 114.578 29.4039 115.884 28.0714 117.811C26.2558 120.442 26.0063 124.347 27.3441 127.31C25.4117 127.04 23.5325 128.616 22.699 130.82C21.5151 133.934 22.0035 136.903 23.6386 139.358C16.3657 133.965 11.5188 123.537 12.554 113.372C13.7113 102.04 18.3087 91.8 24.5464 83.2616C27.6839 78.9609 31.1186 74.9805 34.5003 70.9499C37.7651 67.0573 41.2848 63.2213 43.8383 58.6068C48.2711 50.602 50.6813 39.6464 47.1616 30.5805C44.555 23.8816 37.6643 19.242 31.7344 21.364H31.7291ZM29.5579 31.4218C28.1192 29.419 27.9865 26.7508 28.6395 24.3462C28.7722 24.2457 28.9049 24.1453 29.0429 24.0574C29.1544 25.7274 29.595 27.7741 30.3754 29.1177C30.3807 29.1303 30.3913 29.1303 30.3966 29.1428C29.9826 29.8083 29.6906 30.5743 29.5632 31.4155L29.5579 31.4218ZM23.9041 30.4989C23.5802 29.3123 23.4157 28.1006 23.3785 26.9015C23.4422 26.9831 23.5325 27.0396 23.6333 27.0521C24.2544 27.1212 24.9074 26.8701 25.5179 26.7445C26.0329 26.6378 26.5531 26.5624 27.0574 26.4306C27.0097 27.3786 27.0787 28.3266 27.2698 29.237C26.2187 29.9276 25.1994 30.6747 24.196 31.4469C24.0899 31.1393 23.989 30.8254 23.9041 30.5052V30.4989ZM38.7207 7.31323C38.8003 9.45412 39.5223 11.9529 40.1381 14.0059C39.1826 14.0749 38.227 14.2319 37.2927 14.4767C37.0485 13.2588 36.5176 12.0408 36.1301 10.8793C35.854 10.0506 35.6257 9.17789 35.2541 8.39938C36.3796 7.91595 37.5422 7.5518 38.7207 7.31323ZM48.1118 7.96618C47.6447 10.2829 47.4907 12.8067 47.3208 15.1925C46.4502 14.8095 45.5265 14.5081 44.5709 14.3072C44.7196 13.2462 44.3692 12.1538 44.2312 11.0928C44.0613 9.75549 44.1197 8.39309 44.0029 7.05582C45.3832 7.19394 46.7581 7.50158 48.1065 7.96618H48.1118ZM51.1803 17.5531C51.1325 17.1827 51.897 16.0087 52.0615 15.6571C52.3163 15.1171 52.5658 14.5772 52.8101 14.0373C53.2347 13.0955 53.7125 12.1726 54.0523 11.1807C55.2361 12.0533 56.3138 13.0139 57.3118 14.0498C55.836 15.7575 54.5248 17.8356 53.4099 19.8761C52.7198 19.0725 51.9713 18.3316 51.1803 17.6661C51.1803 17.6285 51.1803 17.5908 51.1803 17.5594V17.5531ZM63.47 72.0611C60.4121 70.5857 57.1314 69.487 53.8771 68.8404C54.3867 67.2582 54.907 65.6636 55.4219 64.0563C56.8341 64.8725 58.4904 64.9729 59.9874 65.5505C61.5217 66.1407 62.9922 66.8501 64.5848 67.1138C64.2238 68.7776 63.8522 70.4288 63.47 72.0674V72.0611ZM62.3127 77.0586C58.9363 76.1734 55.3635 75.7465 52.0881 74.4469C52.5605 72.9526 53.0436 71.4521 53.5267 69.9328C53.5373 69.8951 53.5533 69.8512 53.5639 69.8135C56.8181 70.8243 60.0193 71.9042 63.2364 73.0719C62.9285 74.4029 62.6153 75.7339 62.3127 77.0586ZM60.8315 83.8831C57.3012 82.8032 53.909 81.1207 50.3468 80.1727C50.8087 78.5717 51.2971 76.9644 51.8014 75.3572C53.118 76.142 54.615 76.3555 56.0537 76.707C58.0551 77.1967 60.0511 77.7178 62.0632 78.1511C61.6278 80.0596 61.2138 81.9682 60.8315 83.8831ZM59.9609 88.7174C56.4571 87.198 52.603 86.1433 48.9081 85.5908C49.2585 84.1217 49.6407 82.6526 50.0495 81.1897C51.9872 81.9682 53.962 82.6149 55.8997 83.3746C57.4339 83.9773 58.9894 84.8814 60.6139 84.9881C60.375 86.2249 60.1573 87.468 59.9609 88.7174ZM23.5325 146.233C23.1821 148.562 22.9591 150.835 22.8317 153.089C21.2497 151.758 19.9331 149.774 19.673 147.451C19.312 144.236 21.4674 142.039 23.8775 141.342C23.9784 141.411 24.0793 141.48 24.1801 141.549C24.2438 141.587 24.3022 141.612 24.3659 141.631C24.0421 143.163 23.766 144.701 23.5325 146.233ZM24.8915 139.32C23.4316 137.305 22.6831 135.334 23.2405 132.59C23.8297 129.702 25.8789 127.687 28.374 128.584C26.946 132.044 25.7834 135.654 24.8915 139.32ZM28.6872 127.825C28.6554 127.806 28.6235 127.787 28.5917 127.768C28.5917 127.68 28.5757 127.592 28.5333 127.498C27.1636 124.504 27.084 120.781 29.1703 118.163C30.9116 115.984 33.0828 115.727 35.3709 115.978C32.7378 119.55 30.5081 123.556 28.6872 127.819V127.825ZM36.8043 114.126C36.4857 111.2 37.1122 108.205 39.1348 106.271C41.1415 104.35 43.626 104.363 45.6592 105.951C45.3141 106.184 44.9691 106.416 44.6346 106.654C41.7467 108.726 39.1348 111.256 36.8043 114.119V114.126ZM47.0926 97.7895C47.8889 98.185 48.8604 98.5115 49.8 98.6057C48.4834 99.899 47.6924 101.826 47.1456 103.923C47.0076 101.839 46.9917 99.7923 47.0926 97.7895ZM51.7855 98.5303C54.7318 97.3375 57.0199 98.612 58.7293 101.224C54.9813 101.487 51.2387 102.743 47.8305 104.639C48.5525 102.09 49.439 99.4784 51.7855 98.5303ZM52.6402 97.0801C52.173 97.1805 51.743 97.3249 51.3502 97.5133C50.6813 97.3375 49.9646 97.35 49.2904 97.237C48.5737 97.1177 47.8676 96.9294 47.151 96.785C47.2518 95.2719 47.4164 93.7714 47.6287 92.2897C49.2798 93.3445 51.2493 93.6082 53.0596 94.0728C55.0716 94.5876 57.0942 95.2405 59.1381 95.5544C59.0425 96.7662 58.9682 97.9841 58.931 99.2147C57.4286 97.237 54.9282 96.6029 52.6402 97.0801ZM59.2283 94.4369C55.5228 93.131 51.4086 93.0933 47.857 91.2852C47.8305 91.2726 47.8039 91.2727 47.7827 91.2664C48.0322 89.6905 48.3401 88.1272 48.6905 86.5765C52.4013 87.6438 56.0855 88.7739 59.7857 89.8914C59.5627 91.3919 59.3769 92.9113 59.2336 94.4369H59.2283ZM64.8396 65.9147C63.2629 65.5694 61.7818 64.9855 60.2423 64.4267C58.7505 63.8868 57.1685 63.7612 55.6927 63.1836C56.0802 61.9594 56.4571 60.7288 56.8234 59.4983C59.6318 60.1449 62.9179 60.9486 65.7952 60.7225C65.5085 62.4993 65.1847 64.2384 64.8343 65.9147H64.8396ZM65.9704 59.6238C62.9975 59.4229 60.0777 58.8202 57.1207 58.4938C57.5189 57.1125 57.8958 55.7188 58.2409 54.3187C61.0014 54.551 63.884 54.6075 66.6499 54.2685C66.4694 56.0829 66.2411 57.8722 65.9757 59.6238H65.9704ZM59.9503 44.3488C62.233 44.1228 64.8768 43.6017 67.0746 42.7102C67.1224 44.3551 67.1224 46.0063 67.0746 47.6574C64.5423 47.8772 61.957 47.9776 59.4513 48.4108C59.6689 47.061 59.8388 45.7112 59.9556 44.3488H59.9503ZM59.2708 49.453C60.8952 49.4719 62.5303 49.271 64.1495 49.1454C65.0891 49.0701 66.1084 49.1266 67.0268 48.8378C66.9631 50.2818 66.8675 51.7195 66.7401 53.1447C63.9849 53.1698 61.2297 53.2891 58.4692 53.3204C58.7664 52.0397 59.0372 50.7526 59.2655 49.453H59.2708ZM63.8256 42.3774C62.5622 42.6913 61.2722 42.9362 60.0246 43.3317C60.1042 42.0949 60.1414 40.8581 60.1202 39.615C61.2244 39.4706 62.318 39.0939 63.3744 38.7109C64.4892 38.3028 65.689 37.8947 66.6977 37.179C66.8569 38.6418 66.9684 40.1235 67.0321 41.6177C65.9544 41.781 64.8874 42.12 63.8256 42.3837V42.3774ZM66.6074 36.3314C66.6074 36.3314 66.5862 36.3314 66.5703 36.3314C65.4023 36.6077 64.2716 37.2229 63.1249 37.6248C62.1215 37.9763 61.0863 38.2275 60.0936 38.6042C60.0618 37.8319 60.014 37.0534 59.9344 36.2749C59.8653 35.5404 59.7592 34.8121 59.6371 34.0775C60.6882 33.682 61.6915 33.0981 62.7055 32.6084C63.7089 32.1187 64.7865 31.7546 65.7209 31.1016C66.0925 32.8093 66.3845 34.5547 66.6021 36.3377L66.6074 36.3314ZM65.4767 30.2666C64.2769 30.4864 63.1143 31.1581 61.9941 31.6981C61.1447 32.1061 60.2688 32.5205 59.4725 33.0667C59.1858 31.5976 58.7983 30.1473 58.3258 28.741C60.2316 27.7302 62.2543 26.3176 63.9 24.8045C64.5583 26.5562 65.105 28.3831 65.5457 30.2666C65.5244 30.2666 65.4979 30.2666 65.4767 30.2666ZM60.5661 25.8907C59.7008 26.4996 58.7983 27.0773 57.9595 27.7428C57.5507 26.6503 57.0836 25.5956 56.558 24.5848C58.2568 23.0403 59.8866 21.3264 61.4473 19.581C62.2277 20.9308 62.9072 22.3623 63.5124 23.8439C62.4932 24.4278 61.5376 25.2063 60.5661 25.8907ZM60.9005 18.6958C59.2708 20.3407 57.6622 22.0609 56.1864 23.8879C55.5281 22.7076 54.7902 21.5963 53.978 20.5667C55.2521 18.5576 56.6376 16.7055 57.9967 14.7907C59.0797 16.0024 60.0405 17.3082 60.9058 18.6895L60.9005 18.6958ZM58.6496 39.571C58.9947 62.4177 42.8031 81.8427 45.93 105.016C43.8914 103.139 40.9185 103.277 38.8003 105.104C36.1725 107.364 35.3974 111.143 35.8805 114.779C33.0351 113.328 31.1664 110.572 30.248 107.332C31.9255 104.94 33.9429 102.9 35.5408 100.433C36.5494 98.8819 38.0359 96.4271 37.7758 94.349C37.7545 94.1858 37.6059 94.0225 37.4732 93.9911C35.6841 93.5391 33.8473 96.5464 32.9183 97.9339C31.4743 100.094 30.4232 102.548 29.7808 105.179C29.5685 103.754 29.5154 102.278 29.6322 100.809C30.0781 95.1777 32.5998 90.174 35.2276 85.5845C36.2256 83.8392 37.2608 82.1126 38.3066 80.3861C40.5522 80.0848 43.1588 78.5654 44.9319 76.9644C46.0308 75.9788 48.7754 73.1096 48.3879 71.1633C47.926 68.8341 44.8257 71.1822 42.4634 73.5114C44.5178 70.0458 46.4927 66.5111 48.1862 62.8132C49.2957 60.3898 50.3946 57.8031 51.3502 55.1223C51.4032 55.0972 51.4563 55.0658 51.5094 55.0093C54.0151 52.498 57.9861 49.7921 57.4977 45.2717C57.4552 44.8699 57.2269 44.669 56.8871 44.7255C55.6343 44.9264 54.5885 46.791 53.8877 47.8835C53.6223 48.2978 53.3675 48.731 53.1286 49.1705C53.1286 49.1391 53.1286 49.114 53.1286 49.0826C53.9143 45.6986 54.323 42.2456 54.0682 38.8302C54.0204 38.1773 53.9408 37.5118 53.8506 36.8525C54.7106 34.9188 55.0026 32.5331 55.0026 30.3859C55.0026 29.2495 55.0291 25.809 54.1213 25.0745C52.5393 23.8 52.4491 28.2764 52.5658 31.3841C51.1484 27.2091 48.7807 23.4735 45.4787 21.3201C42.7022 19.5119 39.4533 18.8967 36.3106 19.0222C34.4472 19.0976 31.9202 19.6249 30.1471 21.0124C30.2214 20.9057 30.2905 20.799 30.3701 20.6985C33.704 16.2661 39.7931 14.6149 44.5762 15.814C53.6648 18.0993 58.4904 29.3939 58.6443 39.5647L58.6496 39.571ZM30.6196 105.292C31.1399 103.371 31.8247 101.538 32.7856 99.855C33.2527 99.0452 35.7425 94.688 36.8149 95.5419C37.7014 96.245 32.8493 102.454 30.6196 105.292ZM30.816 92.0449C30.2214 89.0752 29.5791 85.3585 30.1365 82.571C30.3595 81.4534 30.4975 81.0202 31.0708 83.0858C31.3575 84.1217 31.4478 85.2267 31.4584 86.3128C31.4743 87.7254 31.3841 90.4125 30.816 92.0449ZM40.2496 77.1905C40.2815 77.1716 40.3133 77.1465 40.3399 77.1089C41.4759 75.5958 42.7447 74.2459 44.1993 73.1724C44.8204 72.7141 45.93 71.766 46.6572 71.7158C47.1244 71.3328 47.2837 71.4333 47.1403 72.0234C46.9758 72.4315 46.7847 72.8208 46.5776 73.1975C44.7461 76.4873 41.9856 77.3663 39.2463 78.8354C39.5807 78.2892 39.9152 77.7367 40.2496 77.1905ZM47.427 55.4927C48.3242 53.4837 48.0587 56.2085 47.942 56.9995C47.8305 57.7969 47.6606 58.5817 47.4748 59.3539C47.3208 60.0005 47.1456 60.6409 46.9598 61.2813C46.9652 59.5611 46.7581 56.9681 47.4217 55.4927H47.427ZM53.5214 29.5321C53.5108 28.8728 53.3568 27.7867 53.4949 27.1275C53.7497 25.922 53.8293 27.7616 53.8718 28.1132C54.1638 30.4047 53.8771 32.4264 53.4365 34.4982C53.4259 34.4542 53.4152 34.4166 53.4099 34.3726C53.4524 34.3036 53.4896 34.2219 53.5002 34.1089C53.6117 32.5896 53.5427 31.0577 53.5214 29.5383V29.5321ZM56.5686 46.0188C56.5155 49.1579 54.2062 50.8154 52.2792 52.7115C52.7835 51.6881 53.2985 50.6773 53.8665 49.7042C54.3655 48.8503 55.5069 46.6717 56.5633 46.0188H56.5686ZM52.6826 45.0771C52.6667 45.2026 52.6508 45.3282 52.6349 45.4538C52.1093 43.6519 51.3183 41.9128 50.8618 40.0858C50.8299 39.9603 50.1822 37.518 50.2725 37.4615C51.3395 36.7898 52.1412 40.4751 52.2739 41.015C52.603 42.3962 52.7092 43.7272 52.688 45.0708L52.6826 45.0771ZM27.1424 25.5014C26.5637 25.4888 25.9957 25.583 25.4224 25.6772C24.7588 25.7902 24.0368 25.8404 23.4422 26.2297C23.4104 26.2485 23.3891 26.2799 23.3626 26.305C23.3679 24.5597 23.6493 22.8331 24.143 21.1819C25.4064 21.6528 26.8239 21.8223 28.1617 21.86C27.652 22.9713 27.3017 24.2206 27.1424 25.5014ZM43.7268 14.1565C42.8244 14.0184 41.9006 13.9557 40.9716 13.9745C40.7593 12.8444 40.4832 11.7269 40.2549 10.5968C40.0213 9.46669 39.8992 8.2487 39.5223 7.18139C40.6956 6.99932 41.8847 6.93655 43.0792 6.99305C42.7925 9.21556 43.2172 12.0157 43.7268 14.1565ZM34.3782 8.81375C34.5746 9.71782 34.9515 10.5905 35.2541 11.4443C35.5886 12.3986 36.2787 13.6794 36.3902 14.753C35.4134 15.0732 34.4684 15.4875 33.5766 16.0024C33.0298 15.205 32.483 14.414 31.9521 13.6041C31.4849 12.8946 31.0815 11.9592 30.4603 11.4381C31.6867 10.377 33.0032 9.50434 34.3782 8.82001V8.81375ZM29.8658 11.9654C30.0516 12.8507 30.7364 13.6668 31.2195 14.3575C31.7344 15.0983 32.2972 15.7701 32.897 16.4105C32.0742 16.9504 31.3097 17.5782 30.609 18.294C30.6037 18.294 30.6037 18.2877 30.5931 18.2814C29.2446 17.4589 28.082 16.5109 26.93 15.362C26.9778 15.2929 27.0203 15.2239 27.0681 15.1611C27.9228 13.9619 28.8571 12.9009 29.8605 11.9592L29.8658 11.9654ZM26.3567 16.2535C27.3919 17.415 28.6978 18.3442 30.0356 18.9343C29.5048 19.5559 29.0323 20.2402 28.6129 20.9811C27.2326 20.7425 25.8683 20.3721 24.4933 20.1084C24.9817 18.746 25.6135 17.4527 26.3567 16.2535ZM29.8764 110.685C28.6341 110.616 27.3972 110.258 26.1762 110.007C25.364 109.838 24.5358 109.706 23.7342 109.498C22.9379 109.291 20.1773 108.004 21.8018 107.031C22.9166 106.366 26.2293 108.299 27.153 108.846C28.0873 109.404 28.9845 110.045 29.8817 110.685H29.8764ZM4.64403 115.268C6.76752 114.973 9.16706 115.118 11.1154 114.126C11.0251 115.563 11.0092 116.995 11.0835 118.407C8.99718 119.28 6.879 119.889 4.75021 120.548C4.60687 118.797 4.57502 117.032 4.64403 115.268ZM47.512 38.3782C47.512 38.3782 47.4907 38.3656 47.4801 38.3593C46.0892 37.9512 44.3692 38.2086 42.904 38.3468C42.8881 38.0517 42.8721 37.7566 42.8509 37.4615C42.7925 36.7835 42.6916 36.0929 42.5536 35.4023C43.2437 35.2641 43.9179 35.0695 44.5975 34.8749C45.3513 34.6614 46.1742 34.5045 46.8855 34.1215C47.2147 35.509 47.4164 36.9404 47.5066 38.3719L47.512 38.3782ZM47.3792 43.4008C45.999 42.7918 44.2736 42.4716 42.7713 42.3335C42.8881 41.3289 42.9411 40.3119 42.9305 39.2759C44.3851 39.4078 46.0945 39.6652 47.4801 39.2571C47.5066 39.2508 47.5279 39.232 47.5491 39.2194C47.5491 39.2634 47.5491 39.3073 47.5544 39.3576C47.5916 40.7513 47.5332 42.1012 47.3952 43.4133C47.3845 43.4133 47.3792 43.4008 47.3739 43.4008H47.3792ZM42.6492 43.2689C44.0772 43.8654 45.776 44.3802 47.2571 44.4806C47.2624 44.4806 47.2677 44.4806 47.2784 44.4806C47.1297 45.5919 46.9227 46.6718 46.6626 47.7328C46.0043 47.4189 45.2717 47.2745 44.6028 47.0171C43.7587 46.6969 42.9252 46.3265 42.0811 46.0063C42.3147 45.1085 42.5111 44.1981 42.6492 43.2752V43.2689ZM44.4754 28.1446C43.8489 28.5401 43.2703 29.1365 42.7341 29.6262C42.182 30.1285 41.6458 30.6433 41.1415 31.2021C40.8442 30.6182 40.5098 30.0657 40.1381 29.5509C40.4726 28.7912 40.7593 28.0127 41.1043 27.2593C41.4175 26.5813 41.7892 25.9409 42.1077 25.2691C43.0102 26.1041 43.8012 27.071 44.4754 28.1446ZM43.3446 30.5052C43.8755 30.0406 44.5125 29.6325 45.0434 29.1302C45.7123 30.3796 46.2379 31.7295 46.636 33.1421C45.93 33.1986 45.2133 33.4874 44.5285 33.682C43.7905 33.8955 43.042 34.0964 42.32 34.3726C42.1236 33.6129 41.8794 32.8658 41.5821 32.1501C42.1661 31.5976 42.7447 31.0326 43.3446 30.5052ZM41.821 46.9103C42.5642 47.3749 43.3446 47.7391 44.1462 48.0718C44.8417 48.3606 45.6061 48.7436 46.36 48.8754C46.1211 49.723 45.845 50.558 45.5477 51.3742C44.9531 50.9598 44.2736 50.6899 43.6525 50.3822C42.7978 49.9553 41.9219 49.4907 41.0141 49.2521C41.3167 48.4799 41.5874 47.7014 41.8263 46.904L41.821 46.9103ZM40.6159 50.219C41.5131 50.8217 42.5218 51.2235 43.4667 51.7069C44.0082 51.9832 44.5391 52.3222 45.0912 52.5482C44.6559 53.6218 44.1675 54.6703 43.6419 55.6936C43.1323 55.3483 42.5801 55.0846 42.0811 54.7331C41.2742 54.1743 40.4991 53.5276 39.7665 52.837C39.6604 52.7366 39.5382 52.6989 39.4268 52.7115C39.8568 51.8953 40.2549 51.0665 40.6159 50.219ZM37.0432 56.6793C38.2429 57.9287 39.7241 59.1781 41.2158 59.8687C40.5416 60.9172 39.8302 61.9405 39.0976 62.9451C37.8288 61.6078 36.4061 60.4589 34.8135 59.7431C35.5833 58.7574 36.3318 57.7341 37.0432 56.6793ZM34.2242 60.484C35.7266 61.4634 37.1493 62.493 38.434 63.8366C37.7227 64.7846 36.9954 65.7138 36.2575 66.6241C35.5142 65.9649 34.702 65.4124 33.9322 64.7971C33.2633 64.2635 32.6104 63.6922 31.9149 63.2025C32.69 62.3298 33.4651 61.4194 34.2242 60.4777V60.484ZM31.315 63.8805C31.9362 64.5397 32.621 65.0922 33.3058 65.651C34.0543 66.2663 34.8082 66.9129 35.6045 67.434C35.1373 68.0053 34.6702 68.5704 34.203 69.1292C33.7836 69.6314 33.3589 70.1337 32.9342 70.6359C32.9024 70.5229 32.8546 70.4225 32.759 70.3346C31.3894 69.1229 29.9985 67.8798 28.5067 66.8753C29.2234 66.1219 29.9454 65.3685 30.6515 64.6025C30.8744 64.3639 31.0974 64.1191 31.315 63.8742V63.8805ZM27.8272 67.591C29.2712 68.8969 30.8001 70.0772 32.2494 71.3705C32.2653 71.3831 32.2812 71.3831 32.2972 71.3956C31.4478 72.4001 30.6037 73.4047 29.7596 74.4155C29.7224 74.3464 29.6693 74.2774 29.595 74.2271C28.013 73.0343 26.3992 71.8539 24.7216 70.8557C25.7515 69.757 26.7867 68.6771 27.8272 67.5973V67.591ZM24.1164 71.4961C25.6772 72.8836 27.3707 74.089 29.0482 75.2693C28.1086 76.3994 27.1796 77.542 26.2665 78.7035C24.3659 77.7806 22.7521 76.1922 20.9259 75.1375C21.9558 73.8881 23.0281 72.6764 24.1164 71.5024V71.4961ZM20.0659 76.1859C20.1243 76.1106 20.188 76.0353 20.2464 75.9599C21.754 77.4793 23.7023 78.7224 25.5179 79.6453C24.6367 80.7816 23.782 81.9306 22.9432 83.1046C21.4249 81.7736 19.4819 80.1475 17.5601 79.5637C18.3671 78.4022 19.1952 77.2784 20.0606 76.1797L20.0659 76.1859ZM16.939 80.4991C17.7937 81.0642 18.7705 81.4471 19.6252 81.9996C20.5596 82.6023 21.4461 83.2804 22.3061 84.015C21.5151 85.1576 20.756 86.3254 20.0181 87.5182C19.0784 86.9658 18.0645 86.5828 17.0824 86.1433C16.1215 85.7164 15.1659 85.2329 14.1732 84.9253C15.0491 83.4122 15.9675 81.9368 16.9337 80.4991H16.939ZM13.6582 85.8419C14.5076 86.3756 15.4207 86.7586 16.3232 87.1667C17.3372 87.6312 18.3565 88.1712 19.397 88.5416C18.8183 89.521 18.2662 90.513 17.7353 91.5363C17.5442 91.9067 17.3531 92.2897 17.162 92.6727C15.4154 91.5301 13.4034 90.7704 11.5082 89.9605C12.1877 88.5667 12.9044 87.1918 13.6582 85.8419ZM11.0039 91.0027C11.0251 90.9587 11.0463 90.9211 11.0623 90.8834C12.7611 92.1391 14.9217 92.5848 16.7054 93.6333C16.1374 94.8324 15.5959 96.0818 15.0863 97.3626C13.138 96.6092 11.195 95.7679 9.22546 95.1024C9.78818 93.7024 10.3828 92.3337 11.0092 91.0027H11.0039ZM8.87508 95.9814C10.7491 96.9482 12.7133 97.7079 14.6563 98.4676C14.1785 99.7358 13.7326 101.035 13.3344 102.354C11.3065 101.845 9.19361 101.356 7.11259 101.13C7.63815 99.3842 8.23273 97.6639 8.87508 95.9876V95.9814ZM13.0424 103.333C12.6337 104.758 12.278 106.202 11.986 107.653C9.95806 107.389 7.64877 107.263 5.55713 107.433C5.89689 105.644 6.32159 103.879 6.8153 102.134C8.84323 102.705 10.9773 103.051 13.0424 103.327V103.333ZM5.3554 108.563C7.41518 108.927 9.76695 108.921 11.7896 108.67C11.5241 110.133 11.3224 111.608 11.195 113.071C11.1525 113.071 11.1154 113.065 11.0729 113.071C9.02373 113.579 6.72505 113.466 4.70243 114.182C4.81922 112.299 5.04219 110.421 5.3554 108.557V108.563ZM4.85107 121.597C7.0011 121.189 9.11928 120.398 11.1578 119.525C11.2587 120.598 11.4286 121.672 11.6569 122.733C9.57583 123.637 7.59568 125.257 5.76417 126.657C5.75355 126.67 5.74294 126.682 5.73232 126.688C5.73232 126.67 5.7217 126.651 5.71639 126.632C5.31293 124.968 5.03157 123.286 4.85107 121.597ZM6.0827 127.304C7.96198 126.111 10.0749 125.1 11.8904 123.731C12.2249 125.044 12.6496 126.337 13.1592 127.592C12.1028 128.459 11.1472 129.539 10.1067 130.43C9.27324 131.146 8.38137 131.799 7.55321 132.527C6.91086 130.838 6.35875 129.106 5.9022 127.341C5.95529 127.341 6.01368 127.341 6.07739 127.297L6.0827 127.304ZM10.627 131.228C11.5825 130.355 12.6549 129.482 13.5149 128.44C14.0352 129.633 14.6244 130.794 15.2774 131.912C14.359 133.011 13.4459 134.078 12.4532 135.101C11.5985 135.98 10.696 136.866 9.99522 137.933C9.23608 136.489 8.54594 135.001 7.93013 133.469C8.88039 132.829 9.76695 132.012 10.627 131.228ZM13.414 135.578C14.2475 134.718 15.1288 133.852 15.8348 132.829C16.4135 133.751 17.0346 134.637 17.6929 135.478C16.7638 136.589 15.9304 137.826 15.0332 138.969C14.1997 140.03 13.276 141.041 12.4691 142.133C11.7683 141.066 11.1101 139.961 10.4836 138.831C11.4498 137.726 12.3948 136.614 13.414 135.572V135.578ZM15.6968 139.76C16.578 138.617 17.5071 137.468 18.2821 136.219C18.8979 136.96 19.535 137.657 20.1986 138.316C18.3883 140.62 16.955 143.577 15.5057 146.239C14.6457 145.203 13.8281 144.117 13.053 142.987C14.0033 142.001 14.8527 140.852 15.6968 139.753V139.76ZM20.8303 138.925C21.4514 139.502 22.0832 140.042 22.7362 140.538C20.5914 141.292 18.7599 143.495 18.5423 146.195C18.4308 147.539 18.7387 148.97 19.3014 150.288C18.2344 149.29 17.1992 148.223 16.217 147.093C17.7937 144.5 19.6518 141.794 20.8303 138.925ZM103.668 168.169C105.053 168.194 106.226 169.255 107.155 170.385C109.04 172.683 108.605 174.912 107.347 177.329C105.733 174.334 103.652 171.603 101.072 169.274C101.05 169.255 101.034 169.243 101.013 169.224C101.841 168.665 102.627 168.144 103.668 168.169ZM96.8937 162.23C98.9853 163.247 99.9887 165.714 99.8825 168.263C97.8386 166.618 95.6249 165.331 93.2837 164.346C93.0926 164.264 92.9334 164.302 92.8113 164.408C92.3388 164.22 91.861 164.025 91.3832 163.843C92.8856 162.161 94.802 161.213 96.899 162.23H96.8937ZM86.2709 157.446C88.7873 158.187 89.8225 160.466 89.9392 163.31C86.7009 162.148 83.3511 161.131 80.0385 160.001C81.5833 157.848 83.8873 156.743 86.2762 157.446H86.2709ZM75.3668 153.101C77.6549 154.068 78.8334 156.774 78.706 159.536C75.4783 158.394 72.309 157.088 69.3308 155.393C70.8809 153.346 73.0097 152.109 75.3668 153.101ZM66.3473 147.463C68.1788 149.29 68.3646 152.04 68.0832 154.658C67.0533 154.018 66.0447 153.327 65.0785 152.567C63.4169 151.268 61.7234 149.723 60.1467 147.991C62.0685 146.622 64.3884 145.511 66.3526 147.463H66.3473ZM59.4831 139.647C60.4758 142.045 59.9237 144.506 59.1115 146.81C56.7916 144.035 54.8167 140.833 53.6913 137.349C55.7723 136.884 58.4798 137.211 59.4831 139.647ZM53.3038 136.012C53.2719 135.886 53.2348 135.767 53.2029 135.641C52.4013 132.213 52.0456 127.988 52.7994 124.271C54.0204 126.004 55.5069 127.417 55.6555 129.853C55.7936 132.132 54.684 134.436 53.3038 136.012ZM58.5382 123.907C56.6217 124.61 54.907 123.625 53.1286 122.947C53.4577 121.816 53.893 120.749 54.4823 119.795C56.5952 116.367 59.1434 116.185 61.8136 117.045C62.1746 120.008 61.1129 122.953 58.5329 123.907H58.5382ZM65.981 123.342C64.0645 122.061 63.4912 119.814 63.0134 117.497C65.7368 118.633 68.5398 120.511 71.0933 120.881C71.1995 121.145 71.3162 121.396 71.4596 121.616C70.4297 123.939 68.1204 124.78 65.9863 123.348L65.981 123.342ZM77.915 121.189C76.0145 122.608 74.183 122.262 72.6328 120.925C76.0145 120.611 77.7239 117.422 77.5593 113.793C80.5428 115.017 80.4101 119.33 77.915 121.195V121.189ZM77.7345 105.286C79.1997 107.314 78.7697 110.22 77.3363 112.047C77.1824 111.294 76.9488 110.534 76.6303 109.794C75.6429 107.489 74.0555 105.775 72.1816 104.501C73.9706 103.302 76.2746 103.27 77.7345 105.286ZM67.5364 98.4927C69.8086 99.2461 69.9838 101.469 70.6792 103.616C67.8656 102.147 64.6432 101.475 61.8349 101.236C61.373 101.199 60.9059 101.18 60.4387 101.173C62.1375 98.3608 64.6697 97.5447 67.5364 98.4927ZM70.0687 62.7504C69.4529 65.2366 67.8497 66.4232 65.9173 66.9443C66.6233 63.6859 67.2604 60.4024 67.7329 57.0623C67.7806 56.717 67.8284 56.3654 67.8762 56.0201C69.8086 57.5834 70.7695 59.9252 70.0687 62.7504ZM71.7569 48.235C71.4967 50.8342 70.2386 52.8056 68.1629 53.5716C68.5345 50.0306 68.7044 46.4332 68.6141 42.8483C71.2579 42.7102 72.0329 45.4726 71.7569 48.2288V48.235ZM70.8703 34.5547C70.9287 37.0158 70.1643 39.119 68.5133 40.5693C68.2903 36.8086 67.7594 33.0918 66.8304 29.5069C69.6068 28.5275 70.8066 31.9241 70.8703 34.5547ZM67.3294 21.2008C68.2425 23.6933 67.5471 25.8969 66.4216 28.019C65.6625 25.4449 64.691 22.9524 63.47 20.573C63.04 19.7379 62.5781 18.9218 62.0844 18.1307C64.314 17.4652 66.3473 18.5137 67.3294 21.2008ZM60.8421 10.1573C62.9338 11.6955 62.0578 14.596 61.166 16.7369C59.4406 14.2507 57.4021 12.0345 55.1459 10.2389C56.85 8.61284 59.0053 8.80118 60.8421 10.1573ZM53.3462 10.6909C52.6986 11.7583 52.2049 13.0139 51.6793 14.1691C51.2918 15.023 50.6335 16.0589 50.4052 17.032C49.7098 16.5046 48.9825 16.0275 48.2127 15.6131C48.1915 15.6006 48.1649 15.588 48.1437 15.5817C48.4144 13.1646 48.8285 10.7098 48.9612 8.28009C49.6407 8.55633 50.3203 8.86397 50.9839 9.22183C51.812 9.67387 52.5924 10.1698 53.3462 10.6909ZM39.7878 1.58744C42.113 1.58744 43.6631 3.2198 44.6293 5.51137C43.1216 5.30418 41.5927 5.28536 40.0426 5.47998C38.6145 5.66205 37.1812 6.03874 35.7744 6.59123C35.7584 3.72206 37.0166 1.59372 39.7878 1.58744ZM26.5903 8.15452C28.6182 5.80644 31.5115 5.42974 33.7146 7.52669C30.7736 9.07115 28.0767 11.3878 26.0169 14.2633C25.5338 12.1161 25.1038 9.86849 26.5903 8.15452ZM19.2165 22.8143C18.0061 23.5614 16.6683 24.0511 15.3039 24.1327C13.6529 24.2332 12.4797 24.0762 14.6085 22.8457C17.3053 21.2887 20.2251 20.6483 22.8954 19.1478C21.7859 20.5478 20.7135 21.8851 19.2165 22.808V22.8143ZM18.3565 31.7734C17.746 32.6398 17.0293 33.4497 16.2383 34.0838C15.941 34.3224 15.6225 34.5484 15.2986 34.7367C14.6032 35.1386 12.7345 35.4211 13.6476 34.0587C14.651 32.5519 16.8913 31.629 18.2397 30.5994C18.7758 30.1913 19.2961 29.7518 19.7951 29.2935C19.3651 30.1536 18.9086 30.9949 18.3565 31.7734ZM24.5783 32.4075C25.5763 31.7043 26.569 30.9761 27.5299 30.1976C27.7582 30.9007 28.0767 31.56 28.4802 32.1627C28.151 32.8658 27.8325 33.5753 27.4821 34.2722C27.2433 34.743 26.93 35.2013 26.7018 35.6973C25.8364 34.7681 25.1145 33.6443 24.5783 32.4138V32.4075ZM28.3369 37.0848C28.013 36.8777 27.7104 36.6391 27.4184 36.3817C27.7688 35.9234 28.0343 35.3332 28.2838 34.8184C28.5864 34.1968 28.8465 33.5564 29.0535 32.8909C29.1013 32.9475 29.1438 33.0039 29.1916 33.0542C29.7224 33.6067 30.3276 34.0524 30.9647 34.3789C30.6621 35.4902 30.4444 36.7332 30.3966 37.8633C30.3966 37.8759 30.3966 37.8884 30.3966 37.901C29.68 37.7692 28.9739 37.4992 28.3262 37.0848H28.3369ZM31.2779 37.9952C31.5486 36.9906 31.7026 35.8166 31.7557 34.7179C32.2918 34.9063 32.844 35.0067 33.3961 35.0256C33.4438 35.4525 33.5129 35.8668 33.5872 36.2875C33.6562 36.6642 33.688 37.0409 33.8208 37.3736C33.051 37.8131 32.1697 38.014 31.2779 37.9952ZM34.5852 36.8086C34.5481 36.5763 34.4897 36.3503 34.4419 36.118C34.3622 35.7413 34.2879 35.3646 34.1924 34.9942C34.8241 34.9188 35.4452 34.7242 36.0345 34.404C35.7425 35.4274 35.2382 36.2247 34.5852 36.8086ZM30.9275 28.3957C30.471 26.8136 30.3064 25.1812 29.9029 23.5928C29.9029 23.574 29.887 23.5614 29.8817 23.5426C30.3223 23.2977 30.7682 23.0968 31.2195 22.9273C31.3363 24.3964 31.8353 25.9221 32.1751 27.3347C31.7185 27.6235 31.2938 27.9813 30.9275 28.4082V28.3957ZM32.9236 26.9203C32.6688 25.5202 32.4883 23.9632 32.0105 22.6511C32.8705 22.3999 33.7464 22.2618 34.6224 22.243C34.3835 23.5614 34.5799 25.1624 34.8347 26.4934C34.1764 26.5059 33.5288 26.6503 32.9236 26.914V26.9203ZM35.6045 26.5436C35.5302 25.7839 35.4718 25.0243 35.4558 24.2583C35.4399 23.5928 35.493 22.921 35.4558 22.2618C36.1672 22.312 36.8733 22.4439 37.574 22.6448C37.2608 23.9946 37.0909 25.5328 37.0538 26.958C36.7034 26.8073 36.3424 26.6817 35.9602 26.6001C35.8434 26.575 35.7266 26.5624 35.6098 26.5499L35.6045 26.5436ZM37.8342 27.3598C38.0465 25.8969 38.2482 24.4027 38.4022 22.9273C39.3365 23.2852 40.2496 23.7812 41.1203 24.4215C41.1999 24.478 41.2742 24.5471 41.3485 24.6099C40.5575 25.8028 39.9099 27.297 39.4905 28.741C38.9915 28.1948 38.4394 27.7302 37.8288 27.3598H37.8342ZM38.0518 45.9184C38.8216 44.3551 40.0107 43.7398 41.2795 43.0617C40.7486 46.2386 39.6285 49.3149 38.2005 52.0836C37.3564 50.0997 37.0432 47.9776 38.0518 45.9184ZM32.0848 55.1537C33.1412 53.377 35.5833 53.0442 37.213 53.8667C37.0378 54.1617 36.8573 54.4568 36.6768 54.7456C35.3072 56.9116 33.773 58.8956 32.1591 60.7853C31.3681 58.9332 30.97 57.0309 32.0795 55.16L32.0848 55.1537ZM23.7554 67.1829C23.5962 65.4689 24.3447 64.0186 25.3374 62.8258C26.946 60.8921 29.4198 59.9315 31.3734 61.6957C29.0641 64.3074 26.6115 66.7497 24.2173 69.2736C24.1961 69.2547 24.1748 69.2359 24.1483 69.2233C24.1323 69.2171 24.1111 69.2108 24.0899 69.1982C23.989 68.5264 23.8138 67.8798 23.7501 67.1892L23.7554 67.1829ZM17.6398 71.201C19.4235 69.4996 21.3665 70.209 23.3573 70.1839C21.616 72.0486 19.9172 73.976 18.3618 76.0478C17.6663 76.9707 16.9868 77.9188 16.3126 78.8982C15.7127 76.1734 15.5747 73.1661 17.6398 71.201ZM11.3489 82.7781C12.5116 81.579 13.7432 81.1395 15.1075 80.7126C13.5202 83.1611 12.0232 85.7541 10.6641 88.4537C9.29447 86.9783 10.181 83.9836 11.3489 82.7781ZM5.64738 92.1014C6.84715 90.4816 8.30705 90.1049 9.9209 89.9668C8.23273 93.5014 6.79406 97.2119 5.68985 101.017C5.66331 101.017 5.63145 101.017 5.60491 101.017C3.03018 99.0389 3.9539 94.393 5.64738 92.1014ZM1.68177 106.384C2.2498 104.162 3.66723 103.12 5.31293 102.348C4.31489 106.083 3.6513 109.9 3.41772 113.736C1.69769 111.928 0.996941 109.078 1.68177 106.384ZM1.28361 123.198C0.965088 122.068 0.885458 120.806 1.10842 119.638C1.43756 117.924 2.29758 116.7 3.33809 115.588C3.24253 119.217 3.54513 122.846 4.31489 126.425C2.7966 126.054 1.83041 125.131 1.28892 123.198H1.28361ZM3.60883 133.795C3.08858 131.711 3.63007 129.721 4.71305 128.114C4.99972 129.231 5.32886 130.342 5.71639 131.447C6.49678 133.682 7.4258 135.848 8.47693 137.933C6.34813 137.638 4.27242 136.445 3.60883 133.795ZM8.56187 144.858C7.78679 142.792 8.43446 141.066 9.1883 139.295C10.5898 141.882 12.193 144.33 13.9715 146.572C12.1771 148.009 9.48028 147.3 8.56718 144.858H8.56187ZM16.1746 152.881C14.9164 151.4 14.9748 149.617 14.9429 147.771C16.7585 149.918 18.7493 151.858 20.8675 153.553C19.243 154.125 17.523 154.476 16.1746 152.888V152.881ZM19.5828 159.53C19.6252 157.339 20.6711 155.776 21.8921 154.338C22.1787 154.551 22.4654 154.771 22.7574 154.978C22.6618 158.074 22.768 161.162 23.0441 164.346C21.0321 163.774 19.5244 162.343 19.5828 159.53ZM20.6286 171.804C20.6233 169.318 21.7275 167.472 23.198 165.959C23.6015 169.776 24.3128 173.43 25.2206 177.034C22.6247 177.247 20.6392 174.962 20.6286 171.804ZM22.5132 184.951C22.3645 182.132 23.8032 180.104 25.6188 178.603C26.2771 181.058 27.015 183.494 27.8007 185.962C28.1935 187.192 28.6023 188.379 29.0217 189.547C26.07 190.915 22.7308 188.969 22.5132 184.951ZM29.6375 191.217C31.1027 195.065 32.7962 198.644 34.9568 202.134C34.925 202.141 34.8984 202.134 34.8613 202.153C29.2977 204.526 26.0169 195.392 29.6375 191.217ZM42.0758 213.065C39.8674 214.559 36.8255 213.523 35.4771 210.999C34.203 208.614 34.7232 205.901 35.9389 203.704C37.9828 206.843 40.0585 210.014 42.2776 213.002C42.2085 213.002 42.1395 213.015 42.0705 213.065H42.0758ZM45.0062 222.507C42.7978 220.128 42.9995 217.466 43.3446 214.402C43.6897 214.842 44.0347 215.281 44.3851 215.714C46.6466 218.489 49.2744 221.001 52.1465 223.198C49.9593 225.345 47.1563 224.824 45.0115 222.514L45.0062 222.507ZM62.0897 231.548C60.6404 232.358 58.9151 232.182 57.503 231.291C55.4963 230.029 54.2275 227.524 54.5142 224.906C57.4393 226.89 60.5661 228.553 63.7726 229.847C63.3054 230.525 62.8117 231.146 62.0844 231.548H62.0897ZM71.1782 236.596C68.4708 236.131 66.7826 233.683 66.119 230.719C69.7608 231.969 73.4716 232.735 77.0762 232.942C75.68 235.271 73.8485 237.054 71.1782 236.596ZM85.8834 237.142C83.3989 237.896 80.3358 235.78 79.3855 232.992C82.8574 232.936 86.3081 232.182 89.5836 230.826C89.4615 233.633 88.4316 236.37 85.8834 237.142ZM98.1571 230.682C96.1505 233.174 93.0448 232.628 91.1072 230.374C91.0382 230.293 90.9585 230.261 90.8736 230.261C94.08 228.761 97.1007 226.683 99.7763 224.121C99.6117 226.463 99.6701 228.811 98.1571 230.688V230.682ZM108.138 220.348C107.124 223.838 103.169 226.174 100.785 223.104C103.482 220.304 105.786 217.001 107.538 213.291C108.254 215.589 108.881 217.799 108.138 220.341V220.348ZM113.882 207.998C113.51 211.508 110.887 212.757 108.276 212.393C108.217 212.28 108.159 212.167 108.095 212.054C108.419 211.294 108.727 210.516 109.008 209.725C109.911 207.157 110.58 204.52 111.004 201.858C112.262 203.855 114.2 205.01 113.882 207.998ZM111.227 200.502C111.227 200.502 111.206 200.508 111.195 200.515C111.647 197.024 111.684 193.514 111.286 190.112C111.572 189.999 111.854 189.854 112.124 189.678C114.588 190.162 117.284 192.504 116.716 195.844C116.196 198.914 113.526 200.157 111.227 200.508V200.502Z" fill="#A66427"/>
<path id="Vector_4" d="M64.0805 96.7221C66.6976 94.7507 67.7435 91.0717 68.7787 87.7818C70.074 83.6445 71.5127 79.2245 70.8331 74.767C70.7588 74.2835 70.1961 74.1643 69.9307 74.4845C67.6532 77.2155 66.1296 80.499 65.174 84.1593C64.2397 87.7316 63.3001 91.9883 63.5761 95.7804C63.5549 95.8055 63.5283 95.8243 63.5071 95.8494C63.0824 96.2387 63.6345 97.0674 64.0805 96.7284V96.7221ZM69.8988 76.3742C70.0528 79.9654 68.8689 83.6005 67.8496 86.9154C66.9843 89.7344 66.1508 92.7228 64.3937 94.8951C64.9245 88.3845 66.1933 81.3592 69.8988 76.3742Z" fill="#A66427"/>
<path id="Vector_5" d="M67.9028 94.895C67.8656 95.0143 67.8762 95.1085 67.9028 95.1964C67.9134 95.4726 68.062 95.7175 68.3593 95.6735C70.9128 95.3157 72.8399 93.2313 74.3104 90.8455C75.1651 89.4518 75.8446 87.9136 76.3065 86.2812C76.4923 85.622 77.1081 84.0775 76.6781 83.3869C75.5473 81.5725 72.9461 85.3018 72.3249 86.1117C70.3554 88.667 68.8849 91.6491 67.9028 94.9013V94.895ZM75.3721 84.4103C76.2003 84.6677 74.1564 88.962 73.7742 89.6464C72.6435 91.6743 71.0349 93.7586 68.9751 94.3802C69.6175 92.6348 70.3819 90.9585 71.3216 89.4078C71.9056 88.4409 72.5479 87.5243 73.238 86.6642C73.5141 86.3189 75.0058 84.2973 75.3721 84.4103Z" fill="#A66427"/>
<path id="Vector_6" d="M73.392 94.4621C73.392 94.4621 73.3442 94.5123 73.323 94.5312C73.1796 94.6818 73.1956 94.9078 73.2858 95.0711C73.3283 95.2406 73.4345 95.385 73.6256 95.4227C76.0729 95.9124 78.6529 95.4603 81.0047 94.5814C82.661 93.9598 84.6783 93.2755 85.3685 91.2225C85.4534 90.9651 85.3101 90.5884 85.1083 90.4691C81.233 88.1022 76.5082 91.2602 73.5353 94.3177C73.4769 94.3554 73.4344 94.4056 73.392 94.4621ZM83.4998 91.0969C84.3757 92.271 79.8845 93.5768 79.1573 93.7715C77.7398 94.1482 76.3702 94.211 74.9634 94.2298C75.8552 93.5204 76.7843 92.8737 77.7557 92.3338C78.6954 91.8127 82.5814 89.8664 83.4998 91.0969Z" fill="#A66427"/>
<path id="Vector_7" d="M40.9503 132.408C41.3379 132.42 41.6935 132.295 42.028 132C42.3571 131.717 42.5907 131.284 42.6757 130.813C42.8668 129.752 42.1182 128.923 41.2317 128.986C40.4938 129.036 39.9257 129.853 39.8514 130.688C39.7612 131.698 40.2177 132.383 40.9503 132.402V132.408Z" fill="#A66427"/>
<path id="Vector_8" d="M43.249 124.139C43.6366 124.152 43.9922 124.026 44.3267 123.731C44.6558 123.449 44.8894 123.016 44.9744 122.545C45.1655 121.484 44.4169 120.655 43.5304 120.718C42.7925 120.768 42.2244 121.584 42.1501 122.419C42.0599 123.43 42.5164 124.114 43.249 124.133V124.139Z" fill="#A66427"/>
<path id="Vector_9" d="M47.6925 192.61C46.9546 192.66 46.3866 193.477 46.3122 194.312C46.222 195.322 46.6785 196.007 47.4111 196.026C47.7987 196.038 48.1544 195.913 48.4888 195.617C48.8179 195.335 49.0515 194.902 49.1365 194.431C49.3276 193.37 48.5791 192.541 47.6925 192.604V192.61Z" fill="#A66427"/>
<path id="Vector_10" d="M54.5035 187.374C53.7656 187.425 53.1976 188.241 53.1233 189.076C53.033 190.087 53.4896 190.771 54.2222 190.79C54.6097 190.802 54.9654 190.677 55.2998 190.382C55.629 190.099 55.8626 189.666 55.9475 189.195C56.1386 188.134 55.3901 187.305 54.5035 187.368V187.374Z" fill="#A66427"/>
<path id="Vector_11" d="M62.2702 187.757C62.6577 187.77 63.0134 187.644 63.3479 187.349C63.677 187.066 63.9106 186.633 63.9955 186.162C64.1867 185.101 63.4381 184.273 62.5516 184.335C61.8137 184.386 61.2456 185.202 61.1713 186.037C61.0811 187.048 61.5376 187.732 62.2702 187.751V187.757Z" fill="#A66427"/>
<path id="Vector_12" d="M65.8111 178.967C66.1986 178.98 66.5543 178.854 66.8888 178.559C67.2179 178.277 67.4515 177.844 67.5364 177.373C67.7275 176.312 66.979 175.483 66.0925 175.546C65.3545 175.596 64.7865 176.412 64.7122 177.247C64.6219 178.258 65.0785 178.942 65.8111 178.961V178.967Z" fill="#A66427"/>
<path id="Vector_13" d="M67.3135 170.285C67.701 170.297 68.0567 170.172 68.3912 169.877C68.7203 169.594 68.9539 169.161 69.0388 168.69C69.2299 167.629 68.4814 166.8 67.5948 166.863C66.8569 166.913 66.2889 167.73 66.2146 168.565C66.1243 169.575 66.5809 170.26 67.3135 170.279V170.285Z" fill="#A66427"/>
</g>
</svg>
