<svg width="108" height="107" viewBox="0 0 108 107" fill="none" xmlns="http://www.w3.org/2000/svg">
<g id="OBJECTS" opacity="0.1">
<path id="Vector" fill-rule="evenodd" clip-rule="evenodd" d="M75.5537 44.0072C74.9918 42.781 73.7283 40.5936 72.8345 39.5304L70.0834 36.5304C69.9145 36.3819 69.8621 36.3091 69.7078 36.1809C66.5578 33.5624 63.8852 32.042 59.7949 30.9702C56.1645 30.0177 51.8704 30.0032 48.24 30.9585C45.483 31.6867 42.662 32.878 40.3475 34.5702C39.7332 35.0188 39.2907 35.3217 38.7113 35.8343C38.0447 36.4256 37.9544 36.4722 37.2033 37.2236C34.1028 40.3314 32.1027 43.8266 30.9528 48.2247C30.5976 49.5878 30.2395 51.7374 30.2395 53.2985C30.2395 55.7189 30.3123 57.3879 30.9411 59.785C31.5991 62.284 32.2192 63.752 33.4186 65.9132C33.5846 66.2132 33.7447 66.4928 33.9659 66.8161C34.5482 67.6783 35.1217 68.5346 35.8146 69.3152L38.2863 71.8667L39.4799 72.8453C39.7478 73.0696 40.0069 73.2327 40.3184 73.457C41.445 74.2667 42.662 74.9686 43.9488 75.5715C45.3374 76.2211 46.6562 76.6725 48.1963 77.0774C53.4483 78.4551 59.1282 77.8259 64.0075 75.5861C65.1342 75.0677 66.6131 74.2288 67.6437 73.4744L69.6758 71.8841L71.9844 69.554C72.0514 69.4696 72.0747 69.4288 72.1533 69.3385C72.6249 68.7967 72.9714 68.3278 73.4197 67.7045C75.1519 65.2841 76.2786 62.7268 77.0384 59.82C78.4155 54.5626 77.7866 48.8859 75.5479 44.0014L75.5537 44.0072ZM76.4882 50.5636C76.8783 51.0121 76.9773 50.9975 76.3164 52.1422C76.0952 52.0519 75.9205 51.8364 75.6148 51.682C75.1665 51.4577 75.0209 51.4577 74.8346 51.3704C74.9801 51.2247 75.2276 51.1228 75.5275 50.8257C75.7633 50.5898 75.8681 50.5024 76.0661 50.1558C76.2233 50.2403 76.3717 50.4325 76.4882 50.5665V50.5636ZM61.0758 74.8783C60.2782 74.7152 59.4251 73.4803 59.3378 72.822L61.1428 72.1841C61.5417 73.3842 61.4398 73.8531 61.0788 74.8783H61.0758ZM59.2214 72.2482C57.8327 72.6502 56.0655 72.9764 54.4585 72.9676C54.6623 72.3793 55.2591 71.8871 55.7511 71.4822C55.9112 71.3511 56.1179 71.2142 56.3042 71.0715C56.8516 70.6521 57.1514 70.489 57.5241 69.9705C57.6114 69.8453 57.6405 69.822 57.722 69.6851C57.8531 69.4637 57.9433 69.2569 57.9928 69.0035C58.1587 69.1055 58.2548 69.2336 58.4673 69.3676C59.8851 70.2589 61.8852 69.7171 63.0584 70.6492C62.6101 71.1094 59.9521 72.0385 59.2243 72.2511L59.2214 72.2482ZM58.2403 75.7114C57.8123 75.3997 57.5474 75.2279 57.265 74.7706C57.1398 74.5696 57.035 74.3541 56.9506 74.1181L56.7846 73.3317L58.7788 72.9443C58.872 73.5676 58.8895 73.4803 58.8836 74.0774C58.8836 74.5667 58.5488 75.4725 58.2373 75.7114H58.2403ZM55.3959 75.9822C54.7292 75.5308 54.2722 74.4618 54.2722 73.6929V73.524L56.214 73.422C56.214 74.29 56.1267 75.4201 55.3959 75.9793V75.9822ZM49.6199 75.6094C49.4249 75.0444 48.8484 74.6045 49.2094 72.9473C49.8587 73.0667 50.4264 73.224 51.1018 73.3201C50.997 74.2026 50.2575 75.458 49.6199 75.6094ZM46.761 71.5579C46.3768 71.3948 45.1307 70.8531 44.9357 70.6492C46.0856 69.7346 48.1701 70.2268 49.4947 69.388C49.7131 69.2482 49.8325 69.1084 49.9984 69.0064C50.3507 70.8181 52.9912 71.4268 53.5327 72.9706C51.3696 72.9822 48.6912 72.3705 46.761 71.5579ZM46.6068 34.2149C46.6068 33.912 46.828 33.4226 46.9153 33.1721C47.7043 33.3323 48.5224 34.4887 48.6534 35.2285C48.6417 35.2372 48.6272 35.243 48.6185 35.2489L47.7392 35.543C47.4394 35.645 47.1686 35.7527 46.8513 35.8693C46.5835 35.0624 46.6068 34.9809 46.6068 34.2178V34.2149ZM48.7698 35.8023C50.1585 35.4003 51.9228 35.0741 53.5327 35.0828C52.9941 36.6265 50.3507 37.2382 49.9984 39.0469C49.8354 38.945 49.7073 38.8023 49.4947 38.6654C49.3055 38.546 49.1891 38.479 48.9445 38.3945C48.4729 38.2314 48.0537 38.1732 47.5471 38.112C46.63 38.0013 45.5732 37.911 44.9357 37.4013C45.3695 36.9528 47.9983 36.0236 48.7698 35.7993V35.8023ZM49.7509 32.3391C50.4176 32.8226 50.7553 33.1226 51.0523 33.9673C51.0989 34.0984 51.1338 34.2003 51.1687 34.3372C51.2037 34.4683 51.2444 34.6052 51.2037 34.7188C50.8398 34.7857 50.5341 34.8236 50.1818 34.8906C49.8354 34.9547 49.5559 35.0421 49.2094 35.1061C49.1017 34.6168 49.0726 33.9964 49.1745 33.4925C49.2444 33.1547 49.5151 32.5197 49.7509 32.3391ZM52.5953 32.0682C53.2183 32.4906 53.7132 33.4576 53.7161 34.5061L51.7743 34.6256C51.7743 33.7547 51.8645 32.6304 52.5924 32.0682H52.5953ZM58.3713 32.4411C58.4266 32.6013 58.4819 32.645 58.5576 32.7877C59.0088 33.6644 58.9128 34.2323 58.7818 35.1032C58.1325 34.9838 57.5619 34.8265 56.8894 34.7304C56.9942 33.8566 57.7308 32.5925 58.3713 32.4411ZM59.2184 35.7993C59.9142 36.0003 60.6129 36.2275 61.2622 36.5071C61.6406 36.6702 62.8546 37.1945 63.0526 37.4013C62.0628 38.1877 60.2636 37.9489 59.0059 38.4033C58.4411 38.6071 58.2635 38.8722 57.9899 39.044C57.9404 38.7906 57.8501 38.5838 57.7191 38.3625C57.6201 38.1965 57.4396 37.9372 57.3348 37.8265C56.8632 37.3285 56.2344 36.9615 55.7482 36.5625C55.2562 36.1605 54.6594 35.6654 54.4556 35.077C56.0626 35.0683 57.8269 35.3945 59.2184 35.7964V35.7993ZM64.0512 59.8316C64.5228 59.785 64.8867 59.6335 65.2215 59.4122L66.1269 58.7219C66.9596 58.0345 67.4778 57.8685 68.2347 58.384C69.5098 59.2491 68.8956 61.0957 69.7631 63.1112C69.7165 63.1433 68.7413 63.3268 68.5287 63.3967C68.1707 63.5132 67.8242 63.6676 67.4603 63.8278C66.7645 64.1336 65.9639 64.5414 65.0992 64.2705C64.7848 64.1714 64.2986 63.8889 64.2055 63.6705C63.7222 62.5549 64.6189 61.4569 64.0512 59.8316ZM62.7789 59.7821C63.1137 60.3996 63.7979 59.4996 63.4631 61.7073C63.3059 62.7413 63.4311 62.7326 63.3816 63.4142C63.1982 63.4258 62.7964 63.3821 62.5431 63.3909C61.9813 63.4054 60.4266 63.7928 60.1035 63.4258C60.0045 63.1753 60.0307 62.9627 59.7512 62.8112C59.5824 62.718 59.1515 62.6219 58.9855 62.7326C58.8429 62.8287 58.7235 63.219 58.7381 63.4404C58.7614 63.7899 58.9215 63.8394 59.0933 64.0258C58.9768 64.652 58.6566 65.0569 58.3189 65.453C57.6958 66.1812 57.722 66.3938 57.4251 66.8482C57.3203 66.7899 57.4076 66.8423 57.297 66.7666C57.2359 66.7229 57.2388 66.7229 57.1835 66.6851C56.6128 66.2686 55.8734 66.1084 55.2678 65.7967C55.0437 65.6802 54.9621 65.6074 54.8224 65.4705C54.5633 65.2171 54.5779 65.3249 54.6419 64.9724C54.7234 64.521 54.2867 64.0666 53.9956 64.0666C53.7045 64.0666 53.2678 64.5122 53.3493 64.9724C53.4104 65.3045 53.4425 65.2025 53.1921 65.4472C53.0465 65.587 52.9592 65.6744 52.7234 65.7967C52.2139 66.0588 51.5909 66.222 51.0756 66.519L50.5661 66.8482L50.1673 66.1171C49.7015 65.4151 49.0697 64.9549 48.8979 64.0287C49.0551 63.8598 49.2327 63.7724 49.2531 63.4433C49.2997 62.7326 48.8164 62.4996 48.24 62.8142C47.6228 63.1491 48.5195 63.8365 46.3127 63.4986C45.285 63.3413 45.285 63.4666 44.6067 63.4171C44.5601 62.7675 44.6766 62.7122 44.531 61.751C44.1846 59.4821 44.8687 60.4112 45.2093 59.7821C45.3025 59.6102 45.4015 59.1821 45.2879 59.0161C45.1919 58.8733 44.8018 58.7539 44.5805 58.7685C44.2515 58.7889 44.1642 58.9665 43.9953 59.1238C42.9531 58.9287 42.4436 58.119 41.576 57.6529C41.4392 57.5772 41.2995 57.5364 41.1743 57.4549C41.2325 57.35 41.1772 57.4374 41.2558 57.3267C41.2995 57.2656 41.2966 57.2714 41.3373 57.216C41.8584 56.4995 41.9458 55.4714 42.5513 54.8539C42.8046 54.5947 42.6969 54.6092 43.0492 54.6733C43.4509 54.7461 43.5994 54.5684 43.809 54.3238C44.0768 54.0063 43.9109 53.8053 43.6576 53.5461C43.5208 53.4063 43.3228 53.3335 43.0521 53.383C42.7173 53.4442 42.8221 53.4762 42.5775 53.2257C41.972 52.6024 41.873 51.5888 41.3606 50.8665L41.1772 50.5985C41.2937 50.5228 41.413 50.4878 41.5469 50.4179C41.8934 50.2403 42.2486 49.981 42.5455 49.7276C42.9531 49.381 43.3578 49.0519 43.9982 48.9296C44.17 49.0868 44.2486 49.2645 44.5834 49.2849C45.2938 49.3315 45.5267 48.8509 45.2122 48.2713C44.8774 47.6538 44.1933 48.5538 44.5281 46.346C44.5659 46.0956 44.6213 45.7781 44.6329 45.5276C44.6445 45.2509 44.5951 44.8431 44.6096 44.6392C45.2559 44.5926 45.3141 44.7091 46.2749 44.5635C48.5428 44.2169 47.6141 44.9014 48.24 45.2422C48.8193 45.5567 49.2968 45.3208 49.2531 44.613C49.2298 44.2606 49.0726 44.2198 48.8979 44.0276C49.0144 43.4014 49.3346 42.9965 49.6723 42.6004C50.2983 41.8693 50.2692 41.6625 50.5661 41.2052C50.93 41.412 51.1833 41.6159 51.5967 41.7878C52.1411 42.0149 52.7641 42.1897 53.1688 42.5829C53.4279 42.8363 53.4133 42.7285 53.3493 43.081C53.2678 43.5324 53.7045 43.9868 53.9956 43.9868C54.1877 43.9868 54.3537 43.8091 54.4789 43.6868C54.6186 43.5499 54.6885 43.3518 54.6419 43.081C54.5808 42.746 54.5487 42.8509 54.7991 42.6062C54.9447 42.4664 55.032 42.379 55.2678 42.2567C55.9112 41.9246 56.6565 41.7441 57.2679 41.3072C57.3814 41.2256 57.329 41.2606 57.4251 41.2052C57.6988 41.6246 57.7133 41.8926 58.2956 42.5742C58.642 42.9819 58.9739 43.3868 59.0933 44.0276C58.9215 44.214 58.7614 44.2606 58.7381 44.613C58.6944 45.3237 59.1719 45.5567 59.7512 45.2422C60.3684 44.9072 59.4717 44.2227 61.6785 44.5577C62.712 44.715 62.7062 44.5897 63.3845 44.6392C63.4311 45.2888 63.3146 45.3441 63.4602 46.3053C63.8066 48.5742 63.1225 47.6451 62.7819 48.2713C62.4674 48.8509 62.7003 49.3315 63.4107 49.2849C63.7426 49.2645 63.8241 49.0868 63.9959 48.9296C65.0381 49.1247 65.5476 49.9344 66.4151 50.4004C66.552 50.4762 66.6946 50.517 66.8169 50.5985C66.7587 50.7005 66.814 50.616 66.7354 50.7267L66.2346 51.6296C66.0076 52.1742 65.8329 52.7976 65.4399 53.2024C65.1866 53.4616 65.2943 53.4471 64.942 53.383C64.5403 53.3102 64.3918 53.4879 64.1851 53.7325C64.0279 53.916 63.99 54.0966 64.1618 54.2976C64.3743 54.551 64.5199 54.749 64.942 54.6733C65.2768 54.6121 65.172 54.5801 65.4137 54.8306C66.0367 55.4714 66.1735 56.5374 66.7121 57.3005C66.7936 57.4141 66.7587 57.3588 66.814 57.4578C66.5025 57.6617 66.3453 57.6762 65.7747 58.0782C65.6378 58.1743 65.5709 58.2209 65.4457 58.3287C65.0381 58.6753 64.6334 59.0044 63.9959 59.1267C63.827 58.9695 63.7426 58.7918 63.4107 58.7714C62.7003 58.7248 62.4674 59.2083 62.7819 59.785L62.7789 59.7821ZM43.9255 48.2072C42.627 48.4577 42.4174 49.0082 41.4392 49.6286C40.7842 50.0422 40.4843 50.1383 39.8409 49.7247C38.4057 48.8014 39.1306 47.0422 38.2222 44.9392C38.2921 44.8926 39.1044 44.7587 39.3052 44.7004C39.6168 44.6072 39.9516 44.4761 40.2543 44.3421C41.7158 43.6985 42.2777 43.3518 43.5179 44.112C43.7333 44.2431 43.7595 44.2752 43.8381 44.5664C44.2079 45.9383 43.3461 46.7859 43.9225 48.2101L43.9255 48.2072ZM41.1102 51.9325C41.2762 52.3607 41.4247 52.7393 41.6139 53.1209C41.9167 53.7354 42.0913 53.7296 42.333 54.0238C42.1991 54.1869 42.0535 54.2655 41.9109 54.449C41.2471 55.2937 41.3053 56.2578 40.4465 57.1403C40.2398 57.3529 40.2398 57.3588 39.8788 57.385C38.3387 57.4986 37.7652 56.0947 37.0286 55.2442C36.7375 54.9063 36.6414 54.717 36.2455 54.385C36.0999 54.2626 35.9223 54.1927 35.7942 54.0238C35.9252 53.8519 36.1203 53.7704 36.2688 53.6393C36.6676 53.2869 37.0898 52.751 37.4042 52.3111C38.033 51.4344 38.6677 50.549 39.9195 50.6655C40.2922 50.7005 40.2514 50.7092 40.4669 50.9306C40.7522 51.2218 40.9268 51.4723 41.1073 51.9325H41.1102ZM38.3824 49.0082C38.5862 49.5733 38.8511 49.7509 39.0229 50.0247C38.7725 50.0771 38.557 50.1645 38.3416 50.2956C37.6895 50.6859 37.4333 51.0878 36.9558 51.7141C36.4755 52.3403 35.8408 53.2898 35.0606 53.5607C35.0519 51.95 35.3779 50.1878 35.7797 48.7985C35.9893 48.0674 36.9209 45.4082 37.3809 44.9625C38.164 45.947 37.9282 47.7558 38.3824 49.0111V49.0082ZM36.9762 56.3597C37.1043 56.5345 37.2819 56.7471 37.3954 56.9073C37.6458 57.2626 37.9981 57.5481 38.3707 57.7665C38.5716 57.883 38.787 57.9704 39.0229 58.0199C38.8278 58.3316 38.5745 58.483 38.3707 59.0714C37.934 60.3297 38.1582 62.1093 37.3809 63.085C37.1771 62.887 36.6356 61.6433 36.4726 61.2588C36.1989 60.6122 35.9776 59.9423 35.7797 59.2491C35.3779 57.8568 35.0519 56.0976 35.0606 54.4869C35.8117 54.749 36.4988 55.716 36.9762 56.3597ZM39.8438 58.3229C40.4872 57.9093 40.7871 58.0054 41.4421 58.419C42.3213 58.9753 42.8337 59.7209 43.94 59.8287C43.7537 60.3588 43.6693 60.6064 43.7479 61.2908C43.8177 61.9258 44.2544 63.487 43.5237 63.9355C43.2355 64.1132 42.8425 64.3608 42.4553 64.3608C41.2645 64.3608 40.4989 63.6879 39.2761 63.3326C39.0869 63.2773 38.3009 63.152 38.231 63.1054C39.1393 61.0025 38.4115 59.2432 39.8497 58.3199L39.8438 58.3229ZM64.0541 45.181C64.0541 44.782 64.1356 44.3159 64.4704 44.1091C64.7586 43.9315 65.1516 43.681 65.5418 43.6839C66.7237 43.6839 67.5243 44.3654 68.7209 44.712C68.9101 44.7674 69.6962 44.8926 69.7689 44.9422C69.3031 46.0169 69.3119 46.6985 69.1314 47.9538C69.0178 48.7461 68.7849 49.3199 68.1503 49.7276C67.5069 50.1412 67.207 50.0451 66.552 49.6315C66.3948 49.5325 66.2987 49.4684 66.156 49.3519C65.5418 48.8422 64.8896 48.3033 64.0541 48.2189C64.5548 46.7859 64.0541 46.4975 64.0541 45.1839V45.181ZM68.8344 50.7296C69.6409 50.9626 70.1503 51.7082 70.5841 52.3111C70.7006 52.4743 70.8228 52.6432 70.9626 52.8034C71.1111 52.9752 71.1751 53.0859 71.3323 53.2548C71.7108 53.6626 72.1096 53.9102 72.197 54.0238C72.066 54.1956 71.8709 54.2743 71.7224 54.4083C70.5957 55.4044 70.0659 56.9626 68.8373 57.318C68.619 57.3821 68.3512 57.4083 68.0717 57.3821C67.699 57.3471 67.7398 57.3384 67.5243 57.117C67.239 56.8258 67.0644 56.5782 66.8839 56.1151C66.6801 55.5908 66.4035 54.8393 66.0629 54.4228C65.929 54.2597 65.7863 54.1752 65.664 54.0238C65.9173 53.718 66.0862 53.7354 66.3977 53.0888C66.5782 52.716 66.7237 52.3519 66.8839 51.9354C67.0731 51.4403 67.2507 51.2131 67.5476 50.9072C67.7543 50.6946 67.7543 50.6888 68.1153 50.6626C68.3803 50.6422 68.6335 50.6713 68.8373 50.7325L68.8344 50.7296ZM69.3323 58.4947C69.2012 58.285 69.0702 58.183 68.9683 58.0199C69.2187 57.9704 69.4341 57.8801 69.6496 57.7491C70.555 57.2073 70.8287 56.5316 71.4459 55.7772C71.5943 55.5995 71.702 55.4481 71.868 55.2791C72.2057 54.9354 72.523 54.6238 72.9306 54.484C72.9422 56.619 72.3221 59.3889 71.5041 61.2908C71.3381 61.6782 70.8257 62.8782 70.6103 63.085C69.6787 61.9141 70.2173 59.8986 69.3293 58.4918L69.3323 58.4947ZM71.6264 52.4772C71.5448 52.3781 71.4837 52.317 71.4051 52.215L70.5958 51.1403C70.2464 50.6451 69.5681 50.15 68.9683 50.0276C69.0732 49.8616 69.2129 49.7422 69.3497 49.5237C70.194 48.1927 69.6932 46.1189 70.6103 44.9625C70.8199 45.1664 71.3527 46.3956 71.5186 46.7888C72.3309 48.7199 72.9422 51.3966 72.9335 53.5636C72.4153 53.383 71.9728 52.8908 71.6293 52.4801L71.6264 52.4772ZM72.9073 49.2296L73.6555 49.1334C74.3309 49.0898 75.3586 49.3665 75.673 49.7801C75.1869 50.4529 74.8928 50.7849 74.0456 51.082L73.4838 51.2451C73.4081 51.2539 73.4343 51.2509 73.3702 51.2451L73.2945 51.2306C73.2276 50.8723 73.1926 50.5636 73.1257 50.214C73.0558 49.85 72.9714 49.5791 72.9073 49.2267V49.2296ZM72.785 48.6849L72.1475 46.8791C72.9888 46.5994 74.0311 46.4422 74.8229 46.9694C74.7473 47.6655 73.5187 48.5509 72.785 48.6849ZM71.9058 46.349C71.8418 46.0606 71.4371 45.3091 71.2624 44.9625C71.1809 44.7994 71.0849 44.6567 71.0237 44.482C71.472 44.3101 71.8622 44.115 72.3949 44.0654C72.7879 44.0276 73.5391 44.0771 73.8215 44.313C73.6526 44.7907 73.4808 45.1955 73.1257 45.5742C72.9393 45.7693 72.229 46.2791 71.9029 46.3519L71.9058 46.349ZM70.7559 44.0072C70.6773 43.9402 69.7165 42.4518 69.702 42.3994C70.3832 41.9246 71.309 41.5693 72.3309 41.8169C72.1358 42.4081 72.1358 42.6848 71.7574 43.1392C71.5041 43.445 71.1052 43.8266 70.753 44.0072H70.7559ZM70.1591 44.1499C69.3031 44.2955 68.2493 43.78 67.5767 43.4829C66.4064 42.9674 66.0833 42.9062 64.9537 43.0606C65.0352 42.4606 65.108 42.2421 64.9537 41.6101C64.6509 40.3868 63.664 39.0353 63.8649 37.8557C64.68 38.2401 65.8416 39.2625 66.5986 39.8712C66.7063 39.9586 66.7005 39.9673 66.7936 40.0605C67.1983 40.4741 67.6321 40.7596 68.1648 41.4441C68.29 41.6072 68.4036 41.7266 68.5433 41.8868C68.9509 42.3586 69.9407 43.6926 70.1561 44.1528L70.1591 44.1499ZM63.9056 43.5441C63.4515 44.2839 61.8619 43.8266 61.2214 43.7625C60.5489 43.6955 60.3218 43.78 59.8007 43.9606C59.6581 42.5072 58.019 41.5955 58.019 40.4916C58.019 40.1887 58.4411 39.6062 58.7264 39.379C59.7017 38.6013 61.2767 39.0266 63.0759 38.246C63.1225 38.3159 63.2564 39.1285 63.3146 39.3295C63.4078 39.6411 63.5417 39.9761 63.6727 40.279C64.3132 41.7411 64.6655 42.3033 63.9027 43.5441H63.9056ZM54.7904 36.7052C54.9563 36.8596 55.0553 36.912 55.2416 37.0722C56.15 37.8528 57.495 38.3945 57.3523 39.944C57.3174 40.3169 57.3086 40.2761 57.0874 40.4916C56.2606 41.3043 55.2067 41.2897 54.3944 41.9538C54.2314 42.0878 54.147 42.2276 53.9956 42.3557C53.8326 42.2217 53.754 42.0761 53.5705 41.9334C52.7467 41.2868 51.7423 41.3072 50.8776 40.4683C50.6651 40.2615 50.6593 40.2644 50.6331 39.9033C50.5428 38.6858 51.4191 38.0508 52.2809 37.4275L53.2241 36.679C53.5909 36.3353 53.9199 35.8663 53.9927 35.8139C54.048 35.8547 54.4381 36.379 54.7846 36.7023L54.7904 36.7052ZM49.6607 39.8042C50.176 40.5761 49.9402 41.0945 49.2793 41.9101C49.192 42.0208 49.1803 42.0557 49.0988 42.1635C48.6621 42.7285 48.2807 43.0751 48.1934 43.9606C47.0318 43.5557 46.7378 43.8353 45.5907 43.9227C44.6329 43.9955 44.0594 43.9373 43.745 42.8742C43.4102 41.7411 44.2632 40.6256 44.6416 39.4431C44.7173 39.2071 44.8774 38.3042 44.9153 38.246C46.9416 39.1256 48.7786 38.4848 49.6578 39.8072L49.6607 39.8042ZM43.4597 40.4334C42.9444 41.6043 42.8803 41.9246 43.0375 43.0577C42.4349 42.9761 42.2224 42.9004 41.5877 43.0577C40.3591 43.3606 39.0141 44.3451 37.835 44.147C38.0388 43.7159 38.8132 42.6848 39.1306 42.2858L39.4945 41.8285C40.266 40.9402 41.1452 39.9994 42.071 39.2858C42.5077 38.9508 43.6926 38.0566 44.1292 37.8499C44.2748 38.7062 43.7566 39.7606 43.4626 40.4334H43.4597ZM37.2353 44.0043C36.6007 43.6722 35.6894 42.7344 35.6516 41.7091C36.1727 41.546 36.7142 41.5664 37.2208 41.7149C37.5672 41.8169 38.2135 42.1169 38.3765 42.3266L37.2324 44.0072L37.2353 44.0043ZM36.9646 44.479C36.9034 44.6567 36.8277 44.7557 36.7433 44.9276C36.6618 45.0907 36.6036 45.2014 36.5337 45.347C36.3852 45.6557 36.2513 45.8917 36.1349 46.215C35.5963 46.0926 34.8393 45.4082 34.5366 44.881C34.4318 44.6975 34.3066 44.4849 34.3066 44.2722C34.3066 44.2519 34.3066 44.246 34.3124 44.2344C34.6385 44.048 35.3022 44.0188 35.7273 44.0771C36.1873 44.1412 36.5861 44.3363 36.9675 44.482L36.9646 44.479ZM35.8787 46.7713L35.2062 48.6791C34.3706 48.5276 33.4477 47.7878 33.0926 46.8703C33.3575 46.7363 33.8728 46.4888 34.193 46.4888C34.6355 46.4888 35.5293 46.4567 35.8816 46.7713H35.8787ZM35.0839 49.2325C34.9616 49.8966 34.8073 50.4412 34.7112 51.1257C33.8408 51.0208 32.5744 50.2839 32.423 49.6432C32.5831 49.5878 32.6268 49.5296 32.7694 49.4568C33.6457 49.0053 34.2134 49.1014 35.0839 49.2325ZM34.621 51.6616L34.5016 53.7442C34.0038 53.7442 33.34 53.584 32.9441 53.383C32.6384 53.2257 32.0591 52.7539 31.9746 52.5238C32.2308 52.2412 32.6006 51.9908 33.0634 51.8335C33.6457 51.6383 33.9659 51.6616 34.6181 51.6616H34.621ZM34.6035 56.2432C33.6079 56.2432 32.7461 56.1733 32.0358 55.4248C32.6704 54.6879 33.4739 54.3005 34.5045 54.3005L34.6035 56.2432ZM34.5074 56.8025L34.6967 56.8141C34.7607 57.1724 34.7986 57.4811 34.8655 57.8306C34.9354 58.1947 35.0198 58.4656 35.0839 58.8122C34.5948 58.9199 33.9747 58.9491 33.471 58.8471C33.1333 58.7801 32.4987 58.5093 32.3182 58.2704C32.6413 57.8248 32.8043 57.5685 33.2876 57.2772C33.5525 57.117 34.193 56.8461 34.5074 56.8054V56.8025ZM35.2062 59.3627C35.2062 59.3627 35.2207 59.3918 35.2265 59.4005L35.8437 61.1685C35.046 61.4365 33.9456 61.5967 33.1683 61.0782C33.2439 60.3821 34.4725 59.4966 35.2062 59.3627ZM36.0854 61.6957C36.1494 61.9811 36.3707 62.3627 36.5017 62.6307C36.5861 62.7967 36.6414 62.9103 36.7258 63.0821C36.8074 63.2452 36.9034 63.3879 36.9646 63.5627C36.5162 63.7345 36.129 63.9297 35.5934 63.9792C35.2003 64.0171 34.4492 63.9676 34.1668 63.7316C34.26 63.4637 34.324 63.2685 34.455 63.0297C34.7374 62.5229 35.506 61.8209 36.0854 61.6928V61.6957ZM37.2353 64.0375C37.3139 64.1045 38.2747 65.5928 38.2892 65.6452C37.608 66.12 36.6822 66.4754 35.6603 66.2278C35.8495 65.6569 35.8583 65.3656 36.2105 64.9316C36.4638 64.62 36.8772 64.2239 37.2353 64.0346V64.0375ZM37.8321 63.8947C38.6735 63.752 39.7274 64.2559 40.3795 64.5472C41.5469 65.0685 41.8992 65.1414 43.0346 64.9841C42.8774 66.1171 42.9414 66.4375 43.4567 67.6084C43.7537 68.2812 44.269 69.3356 44.1234 70.1919C43.7391 70.0113 42.1903 68.887 41.8555 68.5812C41.1335 67.92 40.4727 67.419 39.8438 66.6326C39.2208 65.855 38.231 64.7423 37.8292 63.8977L37.8321 63.8947ZM43.6605 65.7618C43.6605 65.185 43.7799 64.9986 44.0856 64.4977C44.3068 64.1365 44.8047 64.0812 45.253 64.0812C46.3535 64.0812 47.0085 64.5676 48.1818 64.0899C48.4321 65.3889 48.9882 65.6074 49.6025 66.5773C49.7626 66.8278 49.9722 67.221 49.9722 67.5472C49.9722 67.8443 49.5559 68.4327 49.2648 68.6628C48.9067 68.9453 48.4525 69.0822 47.9256 69.1579C46.6766 69.3385 45.9896 69.3297 44.9153 69.7958C44.8658 69.723 44.7406 68.9365 44.6882 68.7501C44.4029 67.7627 43.6634 66.586 43.6605 65.7618ZM53.227 71.3628C52.2139 70.4132 50.5108 69.7958 50.636 68.1414C50.6622 67.7802 50.668 67.7831 50.8805 67.5734C51.2182 67.2472 51.3813 67.1307 51.9111 66.9122C52.441 66.6938 53.1513 66.4404 53.5705 66.1084C53.754 65.9656 53.8326 65.82 53.9956 65.686C54.2896 65.9307 54.2838 66.1025 54.8981 66.4054C55.7744 66.8365 56.4556 66.9297 57.0874 67.5472C57.3086 67.7627 57.3174 67.722 57.3523 68.0948C57.4222 68.8521 57.1398 69.3938 56.6449 69.8569C56.1005 70.3696 55.7045 70.5705 55.2416 70.9667C54.8078 71.3395 54.8282 71.2667 54.3799 71.7472C54.2401 71.8958 54.1586 72.1026 53.9956 72.222C53.9315 72.1754 53.5851 71.6919 53.227 71.3569V71.3628ZM58.2927 68.1792C57.8793 67.5385 57.9782 67.2297 58.3887 66.5802C59.0059 65.6016 59.562 65.3889 59.8094 64.0928C61.2272 64.6695 62.1006 63.8132 63.4515 64.1773C63.7426 64.2559 63.7717 64.2821 63.9056 64.4977C64.6655 65.7385 64.3161 66.2977 63.6756 67.7627C63.5417 68.0657 63.4107 68.4006 63.3175 68.7123C63.2564 68.9132 63.1254 69.7288 63.0788 69.7987C60.9827 68.8899 59.2243 69.6181 58.2956 68.1792H58.2927ZM64.9537 66.4346C65.1109 65.7996 65.0381 65.5812 64.9537 64.9812C65.5243 65.0598 65.7339 65.1384 66.3686 64.9899C67.6088 64.6986 68.9625 63.6909 70.1591 63.8918C69.9786 64.2734 68.8548 65.8287 68.5491 66.1608C68.0804 66.6705 67.4923 67.4132 67.0061 67.8064C66.9072 67.8851 66.913 67.8618 66.7965 67.9812L66.1852 68.5288C66.1095 68.5958 66.0687 68.6424 65.9785 68.7123C65.5592 69.0443 64.2724 69.9967 63.8649 70.189C63.664 69.0094 64.6538 67.6608 64.9537 66.4346ZM70.7559 64.0346C71.3905 64.3666 72.3018 65.3074 72.3396 66.3297C71.9437 66.452 71.7253 66.4404 71.3352 66.4404C70.8694 66.4404 69.8243 65.9831 69.6117 65.7151L70.7559 64.0346ZM71.0266 63.5598C71.0878 63.3821 71.1634 63.2831 71.2479 63.1112C71.4226 62.7617 71.7661 62.118 71.8563 61.8239C72.7064 62.019 73.7865 63.3617 73.6817 63.8045C73.2974 63.9938 72.7472 64.0287 72.2668 63.9617C71.8068 63.8977 71.408 63.7025 71.0266 63.5569V63.5598ZM72.1125 61.2675C72.197 60.9617 72.3571 60.6209 72.4619 60.3151L72.6919 59.5811C72.7094 59.5287 72.7093 59.5258 72.7326 59.4704C72.7763 59.3685 72.753 59.4151 72.7879 59.3598C73.2741 59.4471 73.804 59.8229 74.1126 60.0384C74.395 60.2365 74.7327 60.7258 74.9045 61.1656C74.4736 61.3811 74.1271 61.5471 73.5653 61.5471C73.1169 61.5471 72.4037 61.518 72.1184 61.2646L72.1125 61.2675ZM72.9073 58.8063C73.0296 58.1423 73.1839 57.5976 73.28 56.9131C74.1533 57.018 75.4168 57.7549 75.5682 58.3957C75.4285 58.4452 75.1985 58.6112 74.887 58.7335C74.165 59.0161 73.6089 58.9112 72.9073 58.8063ZM73.4867 54.2947C73.9758 54.2947 74.6541 54.4578 75.0442 54.6558C75.3499 54.8102 75.9292 55.2879 76.0137 55.5151C75.2858 56.3219 74.3542 56.3772 73.3702 56.3772L73.4867 54.2947ZM73.3877 51.7956C74.2581 51.7956 75.379 51.8859 75.9438 52.6141C75.5216 53.2374 74.5551 53.7325 73.507 53.7354L73.3877 51.7927V51.7956ZM76.264 48.1082C76.2436 48.382 76.034 48.9733 75.9205 49.2179C75.4722 48.9762 75.2917 48.8101 74.7414 48.682L74.2844 48.5567C74.6366 48.2975 74.8986 48.0179 75.1257 47.6567C75.1956 47.5461 75.2625 47.3917 75.347 47.3072C75.7662 47.549 75.9671 47.8868 76.264 48.1082ZM75.2713 45.2043C75.2887 45.4023 75.1577 46.1684 75.0558 46.4218C74.8608 46.3897 74.5726 46.2295 74.3076 46.1625C73.9903 46.0839 73.737 46.0956 73.3964 46.0606C73.7458 45.7373 74.1388 45.2159 74.3193 44.5431C74.5143 44.6043 75.1869 45.0907 75.2713 45.2043ZM72.8811 42.0091C73.344 42.1256 73.6526 42.4314 74.0049 42.5421C74.0078 42.8305 74.0136 43.5324 73.8942 43.6984C73.2479 43.4509 72.8782 43.5208 72.1678 43.5208C72.2232 43.3984 72.3076 43.3227 72.392 43.1858C72.7472 42.6149 72.721 42.3062 72.8811 42.0091ZM71.0295 40.5178C71.1169 40.244 71.1372 39.7722 71.2129 39.5887C71.3323 39.644 71.5827 39.7052 71.7544 39.7693C71.9 39.8217 72.2115 39.9149 72.2727 40.0373C72.3454 40.2382 72.3862 40.946 72.3687 41.2285C71.9699 41.2722 71.7603 41.0363 70.6976 41.3043C70.7821 41.0421 70.9364 40.8091 71.0295 40.5178ZM70.2406 40.9343C69.9786 41.3625 69.7049 41.6829 69.341 41.9596C69.2216 41.8314 69.1139 41.6945 68.9975 41.5606L68.0018 40.3751C68.6597 39.8246 69.7922 39.1809 70.6074 39.478C70.7471 39.7955 70.4007 40.6693 70.2377 40.9343H70.2406ZM69.1256 37.5003C69.5302 37.6023 69.9262 37.6285 70.3221 37.7683C70.4851 38.0508 70.5725 38.5868 70.5928 38.9188C69.8912 38.8023 69.4109 38.9945 68.8373 39.1635C69.1605 38.0683 69.0382 38.6159 69.1256 37.5003ZM67.8067 39.7547C67.7223 39.8741 67.7107 39.8974 67.6262 39.9965C67.5156 39.9644 66.2259 38.8198 66.1764 38.744C66.2608 38.4965 66.9217 38.0071 67.1721 37.8644C67.5418 37.6547 68.1066 37.4333 68.5462 37.4712C68.683 38.4586 68.2813 39.0906 67.8038 39.7547H67.8067ZM68.4385 36.9411C68.092 36.9411 67.8155 37.0052 67.5535 37.0838C67.2652 37.1741 67.0789 37.3081 66.8256 37.3926C67.0032 36.5916 66.9712 36.4081 66.8751 35.6071L67.9639 35.7236C68.1386 35.7877 68.4123 36.7809 68.4385 36.9382V36.9411ZM66.4122 36.6644C66.4122 37.1304 65.9552 38.179 65.6873 38.3887L64.0075 37.244C64.3336 36.6207 65.271 35.7003 66.3016 35.6595C66.4239 36.0586 66.4122 36.2741 66.4122 36.6644ZM66.1124 35.1236C65.0614 35.2984 64.779 35.7003 64.485 35.8314C64.485 35.5722 64.5257 35.2372 64.4995 34.9401C64.4733 34.6518 64.3831 34.41 64.3336 34.1246L65.5418 34.0954C65.7193 34.2032 66.0512 34.9052 66.1124 35.1236ZM63.7804 34.3168C63.9668 34.643 63.9959 35.3071 63.9376 35.7324C63.8765 36.1896 63.6785 36.5916 63.533 36.9731C63.3554 36.912 63.2535 36.8363 63.0846 36.7518L61.7978 36.143C61.8852 35.7615 62.3743 35.1644 62.581 34.9605C62.7935 34.7508 63.3554 34.3663 63.629 34.3168H63.7804ZM62.9245 32.8517C63.1167 33.1314 63.3932 33.4197 63.5155 33.7751C62.7702 34.0226 62.581 34.2673 62.0802 34.6314C62.0802 33.4372 61.7716 33.3527 61.7134 32.8838C62.3277 32.8488 62.7236 32.5547 62.9274 32.8517H62.9245ZM61.5242 34.2003C61.5242 34.643 61.5562 35.5343 61.2447 35.8896L59.3378 35.2168C59.4251 34.7304 59.8007 34.2003 60.0161 33.8916C60.2141 33.612 60.7032 33.2712 61.1428 33.0993C61.2767 33.3615 61.5213 33.8828 61.5213 34.2003H61.5242ZM60.086 31.7828C60.2782 32.0566 60.5664 32.2605 60.808 32.6391C60.1879 32.9187 59.8123 33.2275 59.4543 33.7168C59.4193 33.6615 59.4717 33.7954 59.4106 33.6178C59.4106 33.6178 59.3815 33.5071 59.3815 33.5042C59.166 32.5692 59.2272 32.9741 58.8662 32.1702C59.0525 32.0187 59.7832 31.7974 60.0889 31.7828H60.086ZM57.0786 31.2119L57.9404 31.975C57.6929 32.3216 57.626 31.943 56.8137 33.2129C56.2897 31.7537 56.1179 31.9605 55.9665 31.6168C56.214 31.544 56.8603 31.0925 57.0757 31.209L57.0786 31.2119ZM55.4949 31.9838C56.3042 32.7119 56.3567 33.6265 56.3567 34.6372C56.2169 34.6401 54.8952 34.509 54.2751 34.509C54.2751 34.011 54.4323 33.3469 54.6361 32.9508C54.7933 32.645 55.2678 32.0653 55.4949 31.9809V31.9838ZM54.0276 30.9935C54.1907 30.9556 54.8486 31.4391 55.0262 31.5294L54.8748 31.742C54.8137 31.8032 54.7875 31.8236 54.7263 31.8818C54.2605 32.3508 54.1353 32.8197 53.9985 33.0119C53.917 32.9013 53.8646 32.7469 53.7976 32.6129C53.5327 32.0945 53.1979 31.8702 53.0436 31.6284C53.1833 31.5207 53.8937 31.0226 54.0276 30.9935ZM50.537 31.509C50.9853 31.1187 50.9708 31.0197 52.1149 31.6809C52.0509 31.8411 51.9781 31.8964 51.8733 32.0246C51.5297 32.4527 51.457 32.9187 51.3405 33.1605C51.2444 33.0644 51.1629 32.9217 51.0843 32.8081C50.9824 32.6624 50.9096 32.5809 50.799 32.4673C50.5632 32.2314 50.4759 32.1236 50.1265 31.9284C50.208 31.7712 50.4031 31.6226 50.537 31.5061V31.509ZM48.0915 31.7333C48.3652 31.7537 48.9591 31.9634 49.2036 32.077C48.7757 32.878 48.8135 32.645 48.6155 33.5013L48.5398 33.7139C47.9721 32.9391 47.4743 32.8284 47.2909 32.6508C47.5325 32.2314 47.8732 32.0304 48.0915 31.7333ZM44.8221 33.1838C44.8716 33.1226 45.1511 32.7498 45.154 32.7498C45.2909 32.6624 46.1817 32.8517 46.4059 32.942C46.3738 33.1401 46.2137 33.4226 46.1468 33.6906C46.0682 34.0081 46.0798 34.2615 46.0449 34.6023C45.7246 34.2498 45.2006 33.8566 44.5281 33.6789C44.5747 33.5304 44.7261 33.3061 44.8221 33.1838ZM44.991 34.4624C45.4976 34.745 46.1992 35.5139 46.3244 36.0935C45.876 36.1955 44.8018 36.8537 44.4582 36.9731C44.2865 36.5246 44.0914 36.1372 44.0419 35.6013C44.0041 35.2081 44.0506 34.4595 44.2865 34.1741C44.5543 34.2673 44.7523 34.3314 44.9881 34.4624H44.991ZM42.531 33.9906C42.8308 33.9906 43.5121 33.9731 43.6867 34.1013C43.4422 34.7508 43.5091 35.1149 43.5091 35.8285C43.3869 35.7731 43.3112 35.6916 43.1743 35.6042C42.6037 35.2489 42.2951 35.2751 41.9982 35.1149C42.1088 34.6547 42.4203 34.3459 42.531 33.9906ZM41.7944 35.6654C42.3854 35.8576 42.6649 35.8634 43.1161 36.2362C43.4218 36.4896 43.8003 36.8887 43.9837 37.2411L42.4029 38.2955C42.2165 38.1382 41.9167 37.4654 41.8322 37.1829C41.6838 36.6994 41.6721 36.1722 41.7944 35.6625V35.6654ZM39.9632 35.7615C40.0855 35.6421 40.9647 35.61 41.2151 35.6246C41.2587 36.0178 41.0229 36.245 41.2907 37.2994C41.0287 37.2149 40.7987 37.0605 40.5047 36.9673C40.2369 36.8829 39.7507 36.8596 39.576 36.7838C39.6459 36.6295 39.8526 35.8722 39.9632 35.7644V35.7615ZM39.4654 37.3838C39.7856 37.244 40.659 37.5906 40.921 37.7537C41.3548 38.0217 41.6605 38.2809 41.9458 38.6537C41.8177 38.7732 41.6809 38.8809 41.5469 38.9974L40.362 39.9936L39.9719 39.4809C39.6168 38.9712 39.2558 37.9634 39.4654 37.3867V37.3838ZM37.7681 37.678C37.8496 37.5848 38.1495 37.544 38.3212 37.5062C38.56 37.4537 38.6851 37.4421 38.9035 37.4042C38.787 38.1062 38.9792 38.5868 39.148 39.1576C38.8977 39.0848 38.6619 38.9887 38.3824 38.9392C38.0447 38.878 37.8263 38.8984 37.4828 38.8722C37.5061 38.7003 37.6866 37.7712 37.7623 37.6809L37.7681 37.678ZM37.4595 39.4489C38.4464 39.3091 39.0782 39.7139 39.739 40.1887C39.8584 40.2761 39.8817 40.2848 39.9807 40.3693C39.9486 40.48 38.8016 41.7703 38.7259 41.8198C38.4755 41.7353 38.001 41.08 37.8467 40.8266C37.6371 40.48 37.4158 39.8829 37.4566 39.4489H37.4595ZM35.6516 40.4392C35.6749 40.1741 35.6283 40.0256 35.8495 39.9178C36.1028 39.7897 36.6647 39.6033 36.9296 39.5596C36.9296 39.9062 36.9908 40.1858 37.0723 40.445C37.1567 40.7159 37.2994 40.9227 37.3809 41.1732C36.5803 40.9955 36.3969 41.0275 35.6225 41.1266C35.5963 40.8732 35.6312 40.678 35.6516 40.4421V40.4392ZM35.113 41.8868C35.1683 42.2246 35.244 42.4839 35.3896 42.8043C35.5584 43.1742 35.7622 43.3868 35.8175 43.5149C34.3677 43.5149 35.4594 43.4334 34.1115 43.6693L34.0824 42.4606C34.1901 42.2829 34.8917 41.9509 35.1101 41.8868H35.113ZM32.8422 45.0761C33.11 44.8839 33.4274 44.6014 33.7651 44.4878C34.0154 45.2392 34.2571 45.4169 34.621 45.9237C33.4274 45.9237 33.3429 46.2324 32.8742 46.2907C32.8626 46.0781 32.7985 45.848 32.7607 45.6179C32.7112 45.3121 32.6326 45.2247 32.8422 45.0761ZM32.6297 47.1936C32.9092 47.814 33.2207 48.1897 33.7068 48.548C33.6574 48.583 33.7825 48.5334 33.6108 48.5917C33.6108 48.5917 33.5001 48.6208 33.4972 48.6208C32.5627 48.8364 32.9703 48.7752 32.1639 49.1364C32.0096 48.9499 31.7912 48.2189 31.7767 47.913C32.0503 47.7237 32.2541 47.4325 32.6326 47.1907L32.6297 47.1936ZM31.2031 50.9247L31.57 50.4704C31.7068 50.3189 31.8262 50.1791 31.9659 50.0626C32.0969 50.1558 32.1551 50.2869 32.2366 50.4034C32.4812 50.75 32.8567 50.9655 33.2032 51.1869C31.7505 51.7053 31.9513 51.883 31.6078 52.0344C31.535 51.7869 31.0838 51.1403 31.2002 50.9247H31.2031ZM31.5205 52.9811C31.6457 53.0218 31.567 52.9898 31.6573 53.0568C31.7767 53.1471 31.8494 53.3044 32.2192 53.5607C32.5802 53.8112 32.8946 53.9277 33.0023 54.0063C32.8917 54.0849 32.7374 54.1403 32.6035 54.2073C32.4463 54.2888 32.3909 54.3325 32.2454 54.4316C31.9688 54.6238 31.8174 54.8364 31.6195 54.9617C31.5117 54.8189 31.0139 54.1112 30.9848 53.9743C30.9469 53.8112 31.4302 53.1529 31.5205 52.9752V52.9811ZM31.5001 57.4694C31.11 57.0209 31.011 57.0384 31.6719 55.8908C31.832 55.9549 31.8873 56.0277 32.0154 56.1325L32.7723 56.5374C32.8713 56.5753 33.0402 56.6102 33.1537 56.6656C32.9179 56.9044 32.3647 57.1025 31.9222 57.8801C31.765 57.7986 31.6165 57.6034 31.5001 57.4694ZM31.7243 59.9161C31.7446 59.6423 31.9542 59.051 32.0678 58.8063C33.4681 59.5578 32.7316 59.1326 33.6049 59.4238C33.6806 59.45 33.6923 59.4617 33.701 59.4704C32.9237 60.0413 32.8131 60.5394 32.6384 60.72C32.2046 60.4695 32.0329 60.1491 31.7213 59.919L31.7243 59.9161ZM33.6661 63.4811C33.5118 63.4345 33.2993 63.286 33.1712 63.1899C33.11 63.1433 32.7403 62.8637 32.7374 62.8578C32.65 62.7209 32.8393 61.8297 32.9295 61.6054C33.1246 61.6374 33.4128 61.7976 33.6777 61.8646C33.9951 61.9433 34.2483 61.9316 34.589 61.9666C34.2367 62.2899 33.8466 62.8112 33.6661 63.4841V63.4811ZM35.4012 65.1792C35.2818 65.4355 35.2032 65.8258 35.1013 66.0122C34.6385 65.8957 34.3299 65.587 33.9776 65.4792C33.9776 65.1792 33.963 64.4977 34.0882 64.3229C34.7374 64.5676 35.1013 64.5006 35.8146 64.5006C35.7651 64.6142 35.6865 64.687 35.6079 64.8064C35.538 64.9142 35.4623 65.0452 35.4012 65.1792ZM36.9529 67.5035C36.8656 67.7773 36.8452 68.2492 36.7695 68.4326C36.6502 68.3773 36.3998 68.3161 36.228 68.2521C36.0825 68.1996 35.7709 68.1064 35.7098 67.9841C35.6399 67.7831 35.5934 67.0754 35.6137 66.7928C36.0155 66.7491 36.2193 66.9851 37.2877 66.7171C37.2033 66.9822 37.049 67.2093 36.9558 67.5064L36.9529 67.5035ZM37.739 67.087C38.0039 66.6588 38.2747 66.3385 38.6386 66.0618L39.279 66.8365C39.4508 67.0491 39.9079 67.4132 39.9748 67.6462C39.3198 68.1967 38.1844 68.8404 37.3692 68.5433C37.2295 68.2229 37.5759 67.3491 37.739 67.087ZM38.854 70.521C38.4493 70.4191 38.0563 70.3929 37.6604 70.2531C37.4973 69.9705 37.41 69.4375 37.3896 69.1026C38.0912 69.2191 38.5716 69.0268 39.1422 68.8579C38.822 69.9385 38.9413 69.4113 38.854 70.521ZM39.4333 70.5472C39.2965 69.5628 39.7594 68.7356 40.3533 68.022C40.4639 68.054 41.7565 69.2045 41.8031 69.2773C41.7507 69.4346 41.5091 69.6501 41.3723 69.7492C40.8919 70.1016 40.2077 70.6171 39.4333 70.5472ZM39.7361 71.7414C39.6517 71.5084 39.5818 71.3162 39.544 71.0773C40.3882 71.0773 40.6823 70.7802 41.1539 70.6259C40.9763 71.4239 41.0083 71.6103 41.1073 72.3851C39.8293 72.3006 40.0069 72.4812 39.7361 71.7385V71.7414ZM42.2951 69.6327L43.975 70.7773C43.6489 71.4006 42.7115 72.321 41.6809 72.3618C41.3752 71.3773 41.8293 69.9997 42.298 69.6327H42.2951ZM41.8701 72.8977C42.9152 72.7259 43.1889 72.3298 43.4975 72.19C43.4975 73.6288 43.4131 72.5453 43.6518 73.891L42.4436 73.9376C42.266 73.8181 41.9341 73.1162 41.873 72.8977H41.8701ZM44.202 73.7045C44.0186 73.3783 43.9895 72.7492 44.039 72.3298C44.0943 71.8667 44.2952 71.4472 44.4495 71.0453C44.6882 71.1298 45.6606 71.6861 46.1846 71.8783C46.1002 72.2453 45.6227 72.8395 45.4248 73.0375C45.2326 73.2298 44.6562 73.6521 44.3534 73.7045H44.202ZM45.0783 75.1987C44.9735 75.056 44.8454 74.8929 44.7494 74.7531C44.5339 74.4444 44.5689 74.424 44.4699 74.2463C45.2152 73.9987 45.4044 73.7541 45.9051 73.39C45.9051 73.7541 45.9197 74.0133 46.0012 74.322C46.0711 74.5871 46.2458 74.9046 46.2749 75.1376C45.777 75.1667 45.2588 75.4376 45.0812 75.2016L45.0783 75.1987ZM46.4583 73.5822C46.4583 73.1337 46.4874 72.423 46.7407 72.1346L48.6476 72.8074C48.4962 73.6521 47.7451 74.5725 46.8397 74.922C46.6242 74.4968 46.4583 74.1385 46.4583 73.5822ZM47.8965 76.2385C47.8033 76.1046 47.649 75.9677 47.5296 75.8337C47.4452 75.7405 47.4074 75.7114 47.3462 75.6327C47.2734 75.5366 47.2414 75.4521 47.1745 75.3822C47.7946 75.0997 48.1701 74.791 48.5282 74.3045L48.5952 74.4764C48.6592 74.7269 48.6447 74.8201 48.764 75.1259C48.8805 75.4259 48.9998 75.5861 49.1192 75.8483C48.93 76.0026 48.2021 76.2211 47.8965 76.2356V76.2385ZM50.9038 76.8094L50.0421 76.0463C50.2837 75.7084 50.3623 76.0667 51.1687 74.8084C51.3463 75.3036 51.4278 75.5948 51.7364 76.0288C51.8907 76.2473 51.9402 76.2385 52.0159 76.4075C51.7685 76.4803 51.1222 76.9318 50.9067 76.8153L50.9038 76.8094ZM52.4875 76.0376C51.6811 75.3094 51.6258 74.4036 51.6258 73.3841C51.7656 73.3812 53.0873 73.5123 53.7074 73.5123C53.7074 74.022 53.556 74.6308 53.3609 75.0385C53.2125 75.3502 52.7234 75.9502 52.4875 76.0405V76.0376ZM52.9592 76.4919C53.0203 76.2939 52.9766 76.422 53.2561 76.1395C53.7219 75.6706 53.8471 75.2016 53.9839 75.0094C54.0771 75.1376 54.1528 75.3968 54.3886 75.7376C54.4672 75.8512 54.5429 75.9618 54.639 76.0638C54.7525 76.189 54.8544 76.256 54.9389 76.39C53.6521 77.3657 53.9781 77.0191 52.9563 76.489L52.9592 76.4919ZM56.9797 76.8386C56.8516 76.8473 55.9956 76.4133 55.8676 76.3376C55.9753 76.0754 56.2548 75.9007 56.4993 75.2715C56.5488 75.1405 56.5808 74.9832 56.642 74.855C56.8894 75.1026 57.0757 75.6444 57.856 76.0871C57.7453 76.2968 57.0786 76.8298 56.9797 76.8386ZM59.891 76.2851C59.6173 76.2648 59.0234 76.055 58.7818 75.9415C58.9157 75.6881 59.0583 75.4929 59.1806 75.1958C59.3524 74.7735 59.3233 74.622 59.3989 74.4007C59.4251 74.3279 59.4368 74.3104 59.4426 74.3045C60.0103 75.0764 60.514 75.1958 60.6916 75.3677C60.4499 75.79 60.1093 75.9881 59.891 76.2851ZM63.1603 74.8346C63.1108 74.8958 62.8314 75.2686 62.8284 75.2686C62.6916 75.356 61.8008 75.1667 61.5766 75.0764C61.6115 74.8783 61.7687 74.5958 61.8357 74.3279C61.9143 74.0104 61.9027 73.757 61.9376 73.4162C62.2578 73.7686 62.7819 74.1589 63.4515 74.3395C63.4049 74.491 63.2535 74.7123 63.1574 74.8346H63.1603ZM62.22 72.8773C62.054 72.6531 61.7251 72.3006 61.6552 71.9249C62.1035 71.823 63.1778 71.1647 63.5213 71.0453C63.6931 71.4938 63.8881 71.8812 63.9376 72.4172C63.9755 72.8104 63.9289 73.5589 63.6931 73.8443C63.041 73.6172 62.6334 73.4308 62.22 72.8773ZM65.4515 74.0278C65.1633 74.0278 64.4617 74.0366 64.2957 73.9172C64.485 73.4191 64.5286 72.7812 64.4733 72.19C64.5869 72.2395 64.6596 72.3181 64.779 72.3968C65.3613 72.7696 65.6844 72.7405 65.9843 72.9036C65.8678 73.3667 65.5621 73.6725 65.4515 74.0278ZM66.1881 72.3531C65.6466 72.1754 65.338 72.1608 64.8925 71.8026C64.581 71.5521 64.1851 71.1327 63.9988 70.7773C64.0716 70.6929 65.5534 69.7375 65.6058 69.723C66.0803 70.4074 66.4355 71.3278 66.1881 72.3531ZM67.9552 72.2948C67.7543 72.3676 67.0469 72.4084 66.7645 72.3909C66.747 72.2337 66.8227 71.8201 66.8198 71.5463C66.814 71.2579 66.7529 70.9696 66.6888 70.7162C66.9537 70.8035 67.1837 70.955 67.4749 71.0482C67.7514 71.1385 68.2172 71.1531 68.4036 71.2317C68.3249 71.4006 68.1474 72.1929 67.9552 72.2919V72.2948ZM68.5142 70.6317C68.1939 70.7715 67.3206 70.4249 67.0585 70.2618C66.6248 69.9938 66.3191 69.7346 66.0338 69.3618L66.8082 68.721C67.0207 68.5492 67.3846 68.0919 67.6204 68.0249C67.7048 68.1268 67.7136 68.1472 67.8009 68.2666C68.0076 68.555 68.1503 68.6773 68.3191 69.0967C68.4763 69.487 68.683 70.1744 68.52 70.6317H68.5142ZM70.2377 70.3463C69.9203 70.5181 69.4516 70.5501 69.0761 70.6142C69.1663 70.0579 69.0266 69.3035 68.8315 68.8608C69.0673 68.9307 69.3002 69.0239 69.5535 69.0705C69.9116 69.1404 70.1329 69.12 70.4939 69.1462L70.2406 70.3463H70.2377ZM70.5201 68.5695C69.9669 68.6482 69.5128 68.5259 69.0702 68.3482C68.9043 68.2812 68.6656 68.1501 68.5113 68.0394L67.9989 67.6491C68.0309 67.5385 69.175 66.2482 69.2537 66.1987C69.6612 66.3385 70.6016 67.7016 70.523 68.5695H70.5201ZM71.7137 68.2666C71.4808 68.3511 71.2857 68.421 71.0499 68.4589C71.0499 67.6142 70.7588 67.3346 70.5987 66.8482C71.3993 67.0229 71.5827 66.9938 72.3571 66.8948C72.2785 68.1443 72.4619 67.9987 71.7137 68.2666ZM72.8666 66.1317C72.7879 65.6656 72.6482 65.2724 72.4037 64.8705C72.3309 64.7511 72.2115 64.6171 72.162 64.5035C73.5973 64.5035 72.5201 64.5909 73.8622 64.352L73.8971 65.5608C73.7894 65.7384 73.0878 66.0705 72.8695 66.1317H72.8666ZM74.2145 63.5307C73.9612 62.7734 73.7225 62.6074 73.3586 62.0947C73.737 62.0947 74.002 62.0802 74.3251 61.9899C74.5667 61.9229 74.8783 61.7539 75.0995 61.7277L75.2596 62.82C75.1577 62.9598 74.459 63.4462 74.2116 63.5307H74.2145ZM75.3499 60.8219C75.0704 60.1986 74.7589 59.8258 74.2727 59.4675L74.689 59.351C75.2625 59.2229 75.3615 59.0801 75.8186 58.8763C75.9525 59.0423 76.1912 59.817 76.2058 60.0996C75.9321 60.2918 75.7284 60.5831 75.3499 60.8219ZM76.7764 57.0908L76.0137 57.9559C75.8827 57.8626 75.8244 57.7316 75.7429 57.6151C75.6614 57.5015 75.577 57.4141 75.4663 57.3122C75.2276 57.0966 75.0355 56.9947 74.7764 56.8287C75.1199 56.7063 75.3208 56.6539 75.6352 56.4821C75.807 56.3889 75.8885 56.3393 76.0224 56.2403C76.1476 56.15 76.2204 56.0481 76.3717 55.9811C76.4445 56.2287 76.8958 56.8753 76.7793 57.0908H76.7764ZM76.4591 55.0345L76.2466 54.883C75.5391 54.1607 75.2946 54.2364 74.9772 54.0063C75.0879 53.9277 75.2422 53.8723 75.3761 53.8053C75.8914 53.5403 76.1214 53.2024 76.3572 53.051C76.4649 53.1937 76.9627 53.9015 76.9918 54.0354C77.0297 54.2015 76.5464 54.8568 76.4562 55.0345H76.4591Z" fill="#A66427"/>
<path id="Vector_2" fill-rule="evenodd" clip-rule="evenodd" d="M71.0966 71.855C71.0966 72.9822 72.657 72.9414 72.657 71.9045C72.657 70.8385 71.0966 70.9462 71.0966 71.855Z" fill="#A66427"/>
<path id="Vector_3" fill-rule="evenodd" clip-rule="evenodd" d="M36.9006 36.146C36.9006 35.1149 35.3401 35.0828 35.3401 36.146C35.3401 37.18 36.9006 37.1508 36.9006 36.146Z" fill="#A66427"/>
<path id="Vector_4" fill-rule="evenodd" clip-rule="evenodd" d="M32.8772 41.3654V41.3159C32.8772 40.3809 31.3284 40.3314 31.3196 41.3654C31.3109 42.3965 32.8801 42.4227 32.8772 41.3654Z" fill="#A66427"/>
<path id="Vector_5" fill-rule="evenodd" clip-rule="evenodd" d="M75.1199 66.685C75.1199 67.7045 76.6833 67.7278 76.6804 66.6355C76.6804 65.6918 75.1199 65.6103 75.1199 66.685Z" fill="#A66427"/>
<path id="Vector_6" fill-rule="evenodd" clip-rule="evenodd" d="M56.3946 79.1541C56.4295 80.1328 57.955 80.1852 57.9521 79.1046V79.0551C57.9521 78.1056 56.3538 78.1085 56.3946 79.1512V79.1541Z" fill="#A66427"/>
<path id="Vector_7" fill-rule="evenodd" clip-rule="evenodd" d="M78.9076 50.0888C77.8828 50.3422 78.2816 51.8684 79.2948 51.6005C80.2497 51.3471 79.9119 49.8412 78.9076 50.0888Z" fill="#A66427"/>
<path id="Vector_8" fill-rule="evenodd" clip-rule="evenodd" d="M66.8199 32.8779C67.8301 32.6566 67.4487 31.1216 66.5142 31.3488C65.4021 31.6197 65.8504 33.0906 66.8199 32.8779Z" fill="#A66427"/>
<path id="Vector_9" fill-rule="evenodd" clip-rule="evenodd" d="M28.9789 57.982C29.9309 57.982 29.9222 56.383 28.8829 56.4237C27.9047 56.4616 27.8523 57.9849 28.9323 57.982H28.9818H28.9789Z" fill="#A66427"/>
<path id="Vector_10" fill-rule="evenodd" clip-rule="evenodd" d="M41.1976 75.1725C40.167 75.4056 40.5222 76.9027 41.5062 76.7017C42.5135 76.4978 42.2108 74.9454 41.1976 75.1725Z" fill="#A66427"/>
<path id="Vector_11" fill-rule="evenodd" clip-rule="evenodd" d="M31.3196 66.6385C31.2701 67.7132 32.8771 67.6899 32.8771 66.7346V66.6851C32.8771 65.6685 31.3662 65.6394 31.3196 66.6355V66.6385Z" fill="#A66427"/>
<path id="Vector_12" fill-rule="evenodd" clip-rule="evenodd" d="M76.0632 42.1373C77.021 41.9393 76.7794 40.3606 75.7167 40.614C74.7211 40.8528 75.0646 42.3412 76.0632 42.1373Z" fill="#A66427"/>
<path id="Vector_13" fill-rule="evenodd" clip-rule="evenodd" d="M66.6976 75.1551C66.2609 75.1289 65.897 75.4668 65.865 75.8687C65.83 76.3173 66.191 76.7192 66.6044 76.7192C67.6787 76.7192 67.6758 75.2134 66.6947 75.1551H66.6976Z" fill="#A66427"/>
<path id="Vector_14" fill-rule="evenodd" clip-rule="evenodd" d="M30.813 44.9946C31.8757 44.8257 31.5176 43.2441 30.5481 43.4626C29.5204 43.6956 29.8232 45.149 30.813 44.9946Z" fill="#A66427"/>
<path id="Vector_15" fill-rule="evenodd" clip-rule="evenodd" d="M71.871 36.9179C72.8986 36.9179 72.9336 35.3567 71.871 35.3567C71.4401 35.3567 71.0966 35.7033 71.0966 36.146C71.0966 36.5538 71.4634 36.9179 71.871 36.9179Z" fill="#A66427"/>
<path id="Vector_16" fill-rule="evenodd" clip-rule="evenodd" d="M41.5149 32.881C42.4902 32.6887 42.2107 31.1246 41.2209 31.3664C40.9298 31.4363 40.8745 31.4334 40.7172 31.6518C40.3388 32.1819 40.7435 33.0324 41.5149 32.881Z" fill="#A66427"/>
<path id="Vector_17" fill-rule="evenodd" clip-rule="evenodd" d="M73.7429 68.7909C72.8084 69.0705 73.2014 70.6113 74.2436 70.2647C75.117 69.9734 74.8201 68.4705 73.7429 68.7909Z" fill="#A66427"/>
<path id="Vector_18" fill-rule="evenodd" clip-rule="evenodd" d="M35.9427 71.1648C34.8918 71.4502 35.3226 72.9415 36.3532 72.6561C37.2848 72.3998 36.9151 70.8968 35.9427 71.1648Z" fill="#A66427"/>
<path id="Vector_19" fill-rule="evenodd" clip-rule="evenodd" d="M79.056 53.2782C78.0894 53.552 78.5349 55.1278 79.5626 54.7579C80.4709 54.4287 80.0458 52.9957 79.056 53.2782Z" fill="#A66427"/>
<path id="Vector_20" fill-rule="evenodd" clip-rule="evenodd" d="M50.9417 29.6974C51.3143 29.6479 51.6695 29.2926 51.5967 28.8032C51.5356 28.4013 51.1513 28.0809 50.7263 28.1683C49.6171 28.3926 49.9577 29.8285 50.9417 29.6974Z" fill="#A66427"/>
<path id="Vector_21" fill-rule="evenodd" clip-rule="evenodd" d="M33.9543 39.3032C34.391 39.3324 34.7841 38.9625 34.7841 38.5605C34.7841 38.0858 34.4988 37.7595 34.0475 37.7479C33.0227 37.7217 32.9383 39.2392 33.9514 39.3032H33.9543Z" fill="#A66427"/>
<path id="Vector_22" fill-rule="evenodd" clip-rule="evenodd" d="M30.3385 62.8578C29.3516 63.2131 29.8843 64.6811 30.8625 64.32C31.7563 63.9908 31.34 62.4937 30.3385 62.8578Z" fill="#A66427"/>
<path id="Vector_23" fill-rule="evenodd" clip-rule="evenodd" d="M33.6108 68.5987C32.6995 68.9046 33.046 70.39 34.1348 70.058C34.4754 69.9531 34.7491 69.5279 34.6035 69.0793C34.4842 68.7094 34.0999 68.4356 33.6108 68.5958V68.5987Z" fill="#A66427"/>
<path id="Vector_24" fill-rule="evenodd" clip-rule="evenodd" d="M28.9324 51.3791C29.3574 51.3907 29.7242 51.0237 29.7213 50.5956C29.7213 50.1412 29.372 49.8208 28.9324 49.8266C27.9192 49.8354 27.9105 51.3558 28.9324 51.382V51.3791Z" fill="#A66427"/>
<path id="Vector_25" fill-rule="evenodd" clip-rule="evenodd" d="M38.2223 73.3026C37.2354 73.7424 37.8671 75.0677 38.7755 74.7502C39.7944 74.3948 39.1335 72.8948 38.2223 73.3026Z" fill="#A66427"/>
<path id="Vector_26" fill-rule="evenodd" clip-rule="evenodd" d="M47.4802 30.3615C48.1294 30.3615 48.4992 29.5518 48.0101 29.045C47.5239 28.5469 46.6854 28.8731 46.6854 29.5751C46.6854 30.044 46.9766 30.3615 47.4831 30.3615H47.4802Z" fill="#A66427"/>
<path id="Vector_27" fill-rule="evenodd" clip-rule="evenodd" d="M60.5199 30.3615C61.0235 30.3615 61.3175 30.044 61.3175 29.575C61.3175 28.876 60.4762 28.5469 59.9929 29.0449C59.5009 29.5517 59.8736 30.3615 60.5199 30.3615Z" fill="#A66427"/>
<path id="Vector_28" fill-rule="evenodd" clip-rule="evenodd" d="M60.5199 77.6891C59.8706 77.6891 59.5009 78.4988 59.9929 79.0056C60.4791 79.5037 61.3175 79.1774 61.3175 78.4755C61.3175 78.0095 61.0235 77.6891 60.5199 77.6891Z" fill="#A66427"/>
<path id="Vector_29" fill-rule="evenodd" clip-rule="evenodd" d="M30.3472 47.5023C30.3472 46.9984 30.027 46.7042 29.5612 46.7042C28.8625 46.7042 28.5335 47.546 29.0313 48.0295C29.5379 48.5217 30.3472 48.1489 30.3472 47.4994V47.5023Z" fill="#A66427"/>
<path id="Vector_30" fill-rule="evenodd" clip-rule="evenodd" d="M78.8201 56.7122C77.8827 57.0151 78.2786 58.5442 79.3151 58.1889C80.203 57.8831 79.842 56.3831 78.8201 56.7122Z" fill="#A66427"/>
<path id="Vector_31" fill-rule="evenodd" clip-rule="evenodd" d="M29.4564 59.8084C28.4054 60.0414 28.6907 61.4948 29.7038 61.3404C30.7228 61.1832 30.4171 59.5987 29.4564 59.8084Z" fill="#A66427"/>
<path id="Vector_32" fill-rule="evenodd" clip-rule="evenodd" d="M63.8037 31.4712C64.5024 31.4712 64.8139 30.6207 64.3423 30.1459C63.862 29.6595 63.0148 30.0061 63.0148 30.6848V30.7343C63.0148 31.1683 63.3379 31.4712 63.8037 31.4712Z" fill="#A66427"/>
<path id="Vector_33" fill-rule="evenodd" clip-rule="evenodd" d="M69.4575 34.8032C69.9612 34.8032 70.2668 34.5207 70.2668 34.0197C70.2668 33.3819 69.4924 33.009 68.9655 33.4314C68.4589 33.8391 68.7821 34.8003 69.4575 34.8003V34.8032Z" fill="#A66427"/>
<path id="Vector_34" fill-rule="evenodd" clip-rule="evenodd" d="M28.9178 54.7811C29.8349 54.6005 29.567 52.9694 28.4869 53.281C27.5873 53.5432 27.8406 54.9908 28.9178 54.7811Z" fill="#A66427"/>
<path id="Vector_35" fill-rule="evenodd" clip-rule="evenodd" d="M47.1978 77.7443C46.6854 77.9249 46.5893 78.4055 46.7407 78.7812C46.8688 79.1045 47.2968 79.3754 47.748 79.1861C48.6593 78.8016 48.1702 77.4035 47.1978 77.7443Z" fill="#A66427"/>
<path id="Vector_36" fill-rule="evenodd" clip-rule="evenodd" d="M44.1963 76.5793C43.4975 76.5793 43.186 77.4298 43.6577 77.9046C44.138 78.391 44.9852 78.0444 44.9852 77.3658V77.3162C44.9852 76.8852 44.6562 76.5793 44.1992 76.5793H44.1963Z" fill="#A66427"/>
<path id="Vector_37" fill-rule="evenodd" clip-rule="evenodd" d="M77.6528 47.4529C77.6528 48.216 78.4941 48.4927 78.9687 48.0296C79.4374 47.5723 79.2045 46.7043 78.3922 46.7014C77.9963 46.7014 77.6528 47.0131 77.6528 47.45V47.4529Z" fill="#A66427"/>
<path id="Vector_38" fill-rule="evenodd" clip-rule="evenodd" d="M78.3136 59.82C77.187 60.0821 77.612 61.5617 78.628 61.3258C79.5946 61.1015 79.2365 59.6073 78.3136 59.82Z" fill="#A66427"/>
<path id="Vector_39" fill-rule="evenodd" clip-rule="evenodd" d="M38.6881 34.6606C39.7274 34.678 39.7362 33.1023 38.6881 33.1023H38.6415C38.2893 33.1023 37.9428 33.4198 37.9428 33.8275C37.9428 34.3373 38.2281 34.6547 38.691 34.6606H38.6881Z" fill="#A66427"/>
<path id="Vector_40" fill-rule="evenodd" clip-rule="evenodd" d="M68.5317 74.1268C68.5317 74.6628 68.849 74.9482 69.3585 74.9482C70.0718 74.9482 70.2581 73.9667 69.8388 73.6026C69.3468 73.1744 68.5317 73.4365 68.5317 74.1298V74.1268Z" fill="#A66427"/>
<path id="Vector_41" fill-rule="evenodd" clip-rule="evenodd" d="M74.0922 39.4868C74.6104 39.4868 74.9132 39.1694 74.9132 38.7062C74.9132 37.8878 73.9059 37.7859 73.5682 38.1791C73.1402 38.6742 73.4022 39.4868 74.0951 39.4868H74.0922Z" fill="#A66427"/>
<path id="Vector_42" fill-rule="evenodd" clip-rule="evenodd" d="M77.8682 64.3753C78.3224 63.9238 78.072 63.0471 77.2801 63.0471C76.8667 63.0471 76.5436 63.3792 76.5436 63.7869C76.5436 64.5996 77.4257 64.8151 77.8682 64.3753Z" fill="#A66427"/>
<path id="Vector_43" fill-rule="evenodd" clip-rule="evenodd" d="M57.428 29.7352C58.2927 29.7352 58.4761 28.5789 57.7395 28.2469C57.4397 28.1129 57.0728 28.2032 56.8749 28.3925C56.3829 28.8673 56.7409 29.7381 57.428 29.7381V29.7352Z" fill="#A66427"/>
<path id="Vector_44" fill-rule="evenodd" clip-rule="evenodd" d="M50.5719 78.3124C50.144 78.3124 49.8063 78.6415 49.8063 79.0551C49.8063 79.9085 50.7204 80.0483 51.128 79.6551C51.62 79.1833 51.2619 78.3124 50.5749 78.3124H50.5719Z" fill="#A66427"/>
<path id="Vector_45" fill-rule="evenodd" clip-rule="evenodd" d="M53.7132 78.6095C52.7845 78.9765 53.294 80.392 54.2722 80.0541C54.5954 79.9435 54.8981 79.5124 54.7322 79.0435C54.6187 78.726 54.182 78.4231 53.7132 78.6095Z" fill="#A66427"/>
<path id="Vector_46" fill-rule="evenodd" clip-rule="evenodd" d="M63.0236 76.8707C62.581 77.2988 62.7936 78.2105 63.5156 78.2105C64.0192 78.2105 64.3336 77.925 64.3365 77.4619C64.3365 76.7658 63.4981 76.4075 63.0236 76.8707Z" fill="#A66427"/>
<path id="Vector_47" fill-rule="evenodd" clip-rule="evenodd" d="M54.0975 29.4934C54.5196 29.4556 54.8079 29.0827 54.7642 28.6109C54.7293 28.2323 54.3333 27.8915 53.9316 27.9556C52.8544 28.1245 53.0844 29.5866 54.0975 29.4934Z" fill="#A66427"/>
<path id="Vector_48" fill-rule="evenodd" clip-rule="evenodd" d="M44.4845 31.3663C45.3695 31.3663 45.5558 29.8401 44.3884 29.8401C43.9895 29.8401 43.6664 30.1809 43.6664 30.5391V30.5886C43.6664 31.0459 43.9692 31.3663 44.4874 31.3663H44.4845Z" fill="#A66427"/>
<path id="Vector_49" fill-rule="evenodd" clip-rule="evenodd" d="M78.1739 44.4091C78.1739 43.4334 76.6484 43.4771 76.6484 44.4091C76.6484 45.4868 78.1739 45.5305 78.1739 44.4091Z" fill="#A66427"/>
<path id="Vector_50" fill-rule="evenodd" clip-rule="evenodd" d="M51.0174 63.8278C50.8107 63.8948 50.7117 63.9705 50.6243 64.1307C50.3216 64.6957 50.834 65.2666 51.4017 65.1006C52.2576 64.8501 51.8354 63.5685 51.0174 63.8278Z" fill="#A66427"/>
<path id="Vector_51" fill-rule="evenodd" clip-rule="evenodd" d="M51.294 44.2402C51.7831 44.2402 52.0946 43.4888 51.6783 43.1043C51.227 42.6849 50.5312 43.046 50.5283 43.5383C50.5283 44.0393 50.834 44.2402 51.2911 44.2402H51.294Z" fill="#A66427"/>
<path id="Vector_52" fill-rule="evenodd" clip-rule="evenodd" d="M56.968 44.2315C57.2766 44.1645 57.5474 43.8179 57.4484 43.4247C57.3698 43.116 57.0379 42.8451 56.6507 42.9412C55.754 43.1655 56.0976 44.4208 56.968 44.2286V44.2315Z" fill="#A66427"/>
<path id="Vector_53" fill-rule="evenodd" clip-rule="evenodd" d="M56.8982 63.8103C55.7861 63.8103 55.9928 65.1297 56.7526 65.1297C57.7512 65.1297 57.5852 63.8103 56.8982 63.8103Z" fill="#A66427"/>
<path id="Vector_54" fill-rule="evenodd" clip-rule="evenodd" d="M65.0964 51.2714C65.0964 50.2753 63.7776 50.4413 63.7776 51.1258C63.7776 52.2355 65.0964 52.0316 65.0964 51.2714Z" fill="#A66427"/>
<path id="Vector_55" fill-rule="evenodd" clip-rule="evenodd" d="M44.2196 51.3179C44.2196 50.2169 42.9008 50.4208 42.9008 51.2218C42.9008 52.1771 44.2196 52.0169 44.2196 51.3179Z" fill="#A66427"/>
<path id="Vector_56" fill-rule="evenodd" clip-rule="evenodd" d="M61.8299 47.0247C62.613 46.8062 62.3831 45.5218 61.4485 45.7577C60.6014 45.9674 60.9827 47.2635 61.8299 47.0247Z" fill="#A66427"/>
<path id="Vector_57" fill-rule="evenodd" clip-rule="evenodd" d="M43.4597 56.1762C42.5019 56.3713 42.8949 57.6413 43.6897 57.4811C44.5485 57.3092 44.3069 56.0044 43.4597 56.1762Z" fill="#A66427"/>
<path id="Vector_58" fill-rule="evenodd" clip-rule="evenodd" d="M46.2051 61.0345C45.8324 61.1481 45.6053 61.3695 45.7247 61.8763C45.8004 62.1937 46.1468 62.4035 46.5777 62.3015C47.3288 62.1238 47.0377 60.784 46.2051 61.0345Z" fill="#A66427"/>
<path id="Vector_59" fill-rule="evenodd" clip-rule="evenodd" d="M61.1778 61.2064C60.776 61.6084 61.0205 62.319 61.5358 62.319C62.0977 62.319 62.2899 62.1268 62.2899 61.5647C62.2899 61.0491 61.5795 60.8045 61.1778 61.2064Z" fill="#A66427"/>
<path id="Vector_60" fill-rule="evenodd" clip-rule="evenodd" d="M65.0964 56.7791C65.0964 56.4209 64.8081 56.1733 64.4704 56.1529C64.1269 56.1296 63.7805 56.4267 63.7805 56.7325C63.7805 57.8102 65.0993 57.6704 65.0993 56.782L65.0964 56.7791Z" fill="#A66427"/>
<path id="Vector_61" fill-rule="evenodd" clip-rule="evenodd" d="M46.8251 46.847C47.1279 46.5441 47.1686 45.7314 46.3185 45.7314C45.9605 45.7314 45.7101 45.9819 45.7101 46.3402C45.7101 47.214 46.5427 47.1295 46.8251 46.847Z" fill="#A66427"/>
</g>
</svg>
